<svg width="9" height="15" viewBox="0 0 9 15" fill="none" xmlns="http://www.w3.org/2000/svg">
<g filter="url(#filter0_b_2001_2497)">
<path d="M8.15165 12.204C8.63165 12.668 8.63165 13.42 8.16765 13.9C7.92765 14.14 7.62365 14.252 7.30365 14.252C6.99965 14.252 6.69565 14.14 6.47165 13.9L0.887647 8.34795C0.663647 8.12395 0.535647 7.81995 0.535648 7.49995C0.535648 7.17995 0.663647 6.87595 0.887647 6.65195L6.47165 1.09995C6.93565 0.619954 7.68765 0.619954 8.16765 1.09995C8.63165 1.56395 8.63165 2.33195 8.15165 2.79595L3.43165 7.49995L8.15165 12.204Z" fill="white"/>
<path d="M8.08106 12.2748L8.08105 12.2748L8.08214 12.2759C8.52083 12.6999 8.52273 13.3881 8.09634 13.8298C7.87664 14.0492 7.59899 14.152 7.30365 14.152C7.02406 14.152 6.7477 14.0492 6.54475 13.8317L6.5448 13.8317L6.54215 13.829L0.958357 8.27724C0.958318 8.2772 0.958279 8.27716 0.95824 8.27713C0.752853 8.07168 0.635647 7.79308 0.635647 7.49995C0.635647 7.20683 0.752853 6.92823 0.95824 6.72278C0.958279 6.72274 0.958318 6.7227 0.958358 6.72266L6.54215 1.17087L6.54217 1.17088L6.54355 1.16946C6.96759 0.730796 7.65531 0.729042 8.09694 1.17066C8.52168 1.59541 8.52169 2.29916 8.08215 2.72406L8.08214 2.72405L8.08106 2.72512L3.36106 7.42912L3.28998 7.49995L3.36106 7.57078L8.08106 12.2748Z" stroke="url(#paint0_linear_2001_2497)" stroke-opacity="0.5" stroke-width="0.2"/>
</g>
<defs>
<filter id="filter0_b_2001_2497" x="-14.4639" y="-14.2598" width="37.9775" height="43.5117" filterUnits="userSpaceOnUse" color-interpolation-filters="sRGB">
<feFlood flood-opacity="0" result="BackgroundImageFix"/>
<feGaussianBlur in="BackgroundImageFix" stdDeviation="7.5"/>
<feComposite in2="SourceAlpha" operator="in" result="effect1_backgroundBlur_2001_2497"/>
<feBlend mode="normal" in="SourceGraphic" in2="effect1_backgroundBlur_2001_2497" result="shape"/>
</filter>
<linearGradient id="paint0_linear_2001_2497" x1="7.65426" y1="9.71933" x2="0.879682" y2="9.69725" gradientUnits="userSpaceOnUse">
<stop stop-color="white"/>
<stop offset="1" stop-color="white" stop-opacity="0"/>
</linearGradient>
</defs>
</svg>
