<svg width="33" height="41" viewBox="0 0 33 41" fill="none" xmlns="http://www.w3.org/2000/svg">
<g filter="url(#filter0_bd_493_6698)">
<path d="M17.3265 22.7038C18.0615 23.4143 18.0615 24.5658 17.351 25.3008C16.9835 25.6683 16.518 25.8398 16.028 25.8398C15.5625 25.8398 15.097 25.6683 14.754 25.3008L6.20351 16.7993C5.86051 16.4563 5.66451 15.9908 5.66451 15.5008C5.66451 15.0108 5.86051 14.5453 6.20351 14.2023L14.754 5.70085C15.4645 4.96585 16.616 4.96585 17.351 5.70085C18.0615 6.41135 18.0615 7.58735 17.3265 8.29785L10.099 15.5008L17.3265 22.7038Z" fill="white"/>
<path d="M17.2559 22.7747L17.2559 22.7747L17.257 22.7757C17.9507 23.4463 17.9526 24.534 17.2797 25.2307C16.9325 25.5776 16.4934 25.7398 16.028 25.7398C15.5869 25.7398 15.1491 25.5776 14.8271 25.2326L14.8272 25.2326L14.8245 25.2299L6.27422 16.7286C5.94976 16.4042 5.76451 15.964 5.76451 15.5008C5.76451 15.0377 5.94976 14.5975 6.27422 14.2731L14.8245 5.77176L14.8245 5.77177L14.8259 5.77035C15.4964 5.07669 16.5837 5.07493 17.2803 5.77156C17.9515 6.4428 17.9516 7.55456 17.257 8.22594L17.2559 8.22702L10.0284 15.43L9.95735 15.5008L10.0284 15.5717L17.2559 22.7747Z" stroke="url(#paint0_linear_493_6698)" stroke-opacity="0.5" stroke-width="0.2"/>
</g>
<defs>
<filter id="filter0_bd_493_6698" x="-9.33594" y="-9.84961" width="42.2168" height="50.6895" filterUnits="userSpaceOnUse" color-interpolation-filters="sRGB">
<feFlood flood-opacity="0" result="BackgroundImageFix"/>
<feGaussianBlur in="BackgroundImageFix" stdDeviation="7.5"/>
<feComposite in2="SourceAlpha" operator="in" result="effect1_backgroundBlur_493_6698"/>
<feColorMatrix in="SourceAlpha" type="matrix" values="0 0 0 0 0 0 0 0 0 0 0 0 0 0 0 0 0 0 127 0" result="hardAlpha"/>
<feOffset dx="5" dy="5"/>
<feGaussianBlur stdDeviation="5"/>
<feColorMatrix type="matrix" values="0 0 0 0 0.862745 0 0 0 0 0.482353 0 0 0 0 0.568627 0 0 0 0.5 0"/>
<feBlend mode="normal" in2="effect1_backgroundBlur_493_6698" result="effect2_dropShadow_493_6698"/>
<feBlend mode="normal" in="SourceGraphic" in2="effect2_dropShadow_493_6698" result="shape"/>
</filter>
<linearGradient id="paint0_linear_493_6698" x1="16.5649" y1="18.8993" x2="6.19131" y2="18.8655" gradientUnits="userSpaceOnUse">
<stop stop-color="white"/>
<stop offset="1" stop-color="white" stop-opacity="0"/>
</linearGradient>
</defs>
</svg>
