<svg width="226" height="308" viewBox="0 0 226 308" fill="none" xmlns="http://www.w3.org/2000/svg">
<g filter="url(#filter0_ddddd_1_3569)">
<g filter="url(#filter1_b_1_3569)">
<mask id="path-1-outside-1_1_3569" maskUnits="userSpaceOnUse" x="72" y="15" width="118" height="104" fill="black">
<rect fill="white" x="72" y="15" width="118" height="104"/>
<path d="M156.172 16H105.886C86.224 16 73 28.138 73 46.192V87.859C73 105.862 86.224 118 105.886 118H156.172C175.834 118 189 105.862 189 87.859V46.192C189 28.138 175.834 16 156.172 16Z"/>
</mask>
<path d="M156.172 16H105.886C86.224 16 73 28.138 73 46.192V87.859C73 105.862 86.224 118 105.886 118H156.172C175.834 118 189 105.862 189 87.859V46.192C189 28.138 175.834 16 156.172 16Z" fill="#0667AE" fill-opacity="0.5"/>
<path d="M156.172 17C156.724 17 157.172 16.5523 157.172 16C157.172 15.4477 156.724 15 156.172 15V17ZM156.172 15C155.62 15 155.172 15.4477 155.172 16C155.172 16.5523 155.62 17 156.172 17V15ZM156.172 15H105.886V17H156.172V15ZM105.886 15C95.85 15 87.3727 18.1 81.3935 23.5891C75.4068 29.085 72 36.9084 72 46.192H74C74 37.4216 77.2052 30.149 82.746 25.0624C88.2943 19.969 96.26 17 105.886 17V15ZM72 46.192V87.859H74V46.192H72ZM72 87.859C72 97.1179 75.4074 104.929 81.3939 110.418C87.373 115.9 95.85 119 105.886 119V117C96.26 117 88.294 114.031 82.7456 108.944C77.2046 103.863 74 96.6031 74 87.859H72ZM105.886 119H156.172V117H105.886V119ZM156.172 119C166.208 119 174.671 115.9 180.636 110.417C186.608 104.927 190 97.1165 190 87.859H188C188 96.6044 184.809 103.864 179.283 108.944C173.749 114.031 165.798 117 156.172 117V119ZM190 87.859V46.192H188V87.859H190ZM190 46.192C190 36.9098 186.609 29.0864 180.636 23.5899C174.671 18.1001 166.208 15 156.172 15V17C165.798 17 173.749 19.9689 179.282 25.0616C184.808 30.1476 188 37.4202 188 46.192H190Z" fill="url(#paint0_linear_1_3569)" mask="url(#path-1-outside-1_1_3569)"/>
</g>
<g filter="url(#filter2_bd_1_3569)">
<mask id="path-3-inside-2_1_3569" fill="white">
<path fill-rule="evenodd" clip-rule="evenodd" d="M96.2972 49.2845C96.2972 56.3423 102.821 62.0865 110.85 62.0865C118.873 62.0865 125.402 56.3423 125.402 49.2845C125.402 42.2266 118.873 36.4824 110.85 36.4824C102.821 36.4824 96.2972 42.2266 96.2972 49.2845ZM175.635 96.2681C177.72 91.9136 178.733 86.629 176.783 82.2321C176.133 80.7736 175.161 79.4154 173.797 78.2211C170.219 75.0979 166.875 72.1808 162.898 70.0246C156.656 66.6002 151.836 71.4092 150.536 72.947C149.499 74.1759 148.582 75.5098 147.653 76.8617C147.459 77.1434 147.265 77.426 147.069 77.7085L147.023 77.7759C144.258 81.8029 141.083 86.4273 135.609 89.1233C127.609 93.0181 121.536 89.4298 117.168 86.8192C115.528 85.8468 113.935 84.9273 112.348 84.3143C108.436 82.8293 104.917 84.5204 99.6929 90.3546C96.9522 93.4039 94.235 96.4267 91.4826 99.4389C89.837 101.241 90.2294 104.021 92.4488 105.226C95.9918 107.144 100.314 108.174 105.198 108.174H154.278C157.048 108.174 159.824 107.842 162.471 107.081C168.432 105.368 173.164 101.447 175.635 96.2681Z"/>
</mask>
<path fill-rule="evenodd" clip-rule="evenodd" d="M96.2972 49.2845C96.2972 56.3423 102.821 62.0865 110.85 62.0865C118.873 62.0865 125.402 56.3423 125.402 49.2845C125.402 42.2266 118.873 36.4824 110.85 36.4824C102.821 36.4824 96.2972 42.2266 96.2972 49.2845ZM175.635 96.2681C177.72 91.9136 178.733 86.629 176.783 82.2321C176.133 80.7736 175.161 79.4154 173.797 78.2211C170.219 75.0979 166.875 72.1808 162.898 70.0246C156.656 66.6002 151.836 71.4092 150.536 72.947C149.499 74.1759 148.582 75.5098 147.653 76.8617C147.459 77.1434 147.265 77.426 147.069 77.7085L147.023 77.7759C144.258 81.8029 141.083 86.4273 135.609 89.1233C127.609 93.0181 121.536 89.4298 117.168 86.8192C115.528 85.8468 113.935 84.9273 112.348 84.3143C108.436 82.8293 104.917 84.5204 99.6929 90.3546C96.9522 93.4039 94.235 96.4267 91.4826 99.4389C89.837 101.241 90.2294 104.021 92.4488 105.226C95.9918 107.144 100.314 108.174 105.198 108.174H154.278C157.048 108.174 159.824 107.842 162.471 107.081C168.432 105.368 173.164 101.447 175.635 96.2681Z" fill="url(#paint1_linear_1_3569)"/>
<path d="M176.783 82.2321L176.966 82.1511L176.966 82.1507L176.783 82.2321ZM175.635 96.2681L175.455 96.1818L175.455 96.182L175.635 96.2681ZM173.797 78.2211L173.928 78.0706L173.928 78.0704L173.797 78.2211ZM162.898 70.0246L162.802 70.2L162.803 70.2004L162.898 70.0246ZM150.536 72.947L150.383 72.8179L150.383 72.818L150.536 72.947ZM147.653 76.8617L147.488 76.7484L147.653 76.8617ZM147.069 77.7085L146.905 77.5945L146.904 77.5953L147.069 77.7085ZM147.023 77.7759L146.858 77.6627L146.858 77.6627L147.023 77.7759ZM135.609 89.1233L135.696 89.3031L135.697 89.3027L135.609 89.1233ZM117.168 86.8192L117.27 86.6475L117.27 86.6472L117.168 86.8192ZM112.348 84.3143L112.42 84.1277L112.419 84.1273L112.348 84.3143ZM99.6929 90.3546L99.8416 90.4883L99.8419 90.488L99.6929 90.3546ZM91.4826 99.4389L91.3349 99.304L91.3349 99.3041L91.4826 99.4389ZM92.4488 105.226L92.3534 105.401L92.3536 105.401L92.4488 105.226ZM162.471 107.081L162.416 106.888L162.416 106.888L162.471 107.081ZM110.85 61.8865C102.907 61.8865 96.4972 56.2086 96.4972 49.2845H96.0972C96.0972 56.476 102.735 62.2865 110.85 62.2865V61.8865ZM125.202 49.2845C125.202 56.2086 118.787 61.8865 110.85 61.8865V62.2865C118.958 62.2865 125.602 56.4761 125.602 49.2845H125.202ZM110.85 36.6824C118.787 36.6824 125.202 42.3604 125.202 49.2845H125.602C125.602 42.0928 118.958 36.2824 110.85 36.2824V36.6824ZM96.4972 49.2845C96.4972 42.3603 102.907 36.6824 110.85 36.6824V36.2824C102.735 36.2824 96.0972 42.0929 96.0972 49.2845H96.4972ZM176.6 82.3132C178.517 86.6333 177.528 91.8517 175.455 96.1818L175.816 96.3545C177.912 91.9755 178.95 86.6246 176.966 82.1511L176.6 82.3132ZM173.665 78.3716C175.008 79.5468 175.962 80.8814 176.601 82.3136L176.966 82.1507C176.304 80.6658 175.315 79.284 173.928 78.0706L173.665 78.3716ZM162.803 70.2004C166.757 72.3442 170.084 75.246 173.665 78.3718L173.928 78.0704C170.353 74.9497 166.993 72.0173 162.994 69.8488L162.803 70.2004ZM150.689 73.0761C151.33 72.3181 152.837 70.7564 154.946 69.8074C157.046 68.8623 159.745 68.5227 162.802 70.2L162.995 69.8493C159.809 68.1021 156.977 68.4548 154.782 69.4426C152.595 70.4264 151.042 72.0382 150.383 72.8179L150.689 73.0761ZM147.818 76.975C148.748 75.6216 149.659 74.2961 150.689 73.076L150.383 72.818C149.339 74.0558 148.416 75.3979 147.488 76.7484L147.818 76.975ZM147.234 77.8225C147.43 77.5395 147.624 77.2567 147.818 76.975L147.488 76.7484C147.294 77.0302 147.1 77.3124 146.905 77.5945L147.234 77.8225ZM147.188 77.8891L147.234 77.8217L146.904 77.5953L146.858 77.6627L147.188 77.8891ZM135.697 89.3027C141.224 86.5806 144.426 81.9118 147.188 77.8891L146.858 77.6627C144.09 81.694 140.941 86.2741 135.52 88.9439L135.697 89.3027ZM117.065 86.9909C121.433 89.6009 127.593 93.2484 135.696 89.3031L135.521 88.9435C127.625 92.7878 121.64 89.2587 117.27 86.6475L117.065 86.9909ZM112.276 84.5009C113.845 85.107 115.425 86.0181 117.066 86.9912L117.27 86.6472C115.631 85.6756 114.025 84.7476 112.42 84.1277L112.276 84.5009ZM99.8419 90.488C102.449 87.5764 104.613 85.7192 106.599 84.7702C108.571 83.8272 110.372 83.7783 112.277 84.5013L112.419 84.1273C110.412 83.3653 108.497 83.4194 106.426 84.4093C104.368 85.3932 102.161 87.2986 99.5439 90.2212L99.8419 90.488ZM91.6302 99.5738C94.3833 96.5609 97.101 93.5375 99.8416 90.4883L99.5442 90.2209C96.8034 93.2703 94.0867 96.2925 91.3349 99.304L91.6302 99.5738ZM92.5443 105.05C90.4425 103.909 90.0695 101.283 91.6303 99.5738L91.3349 99.3041C89.6045 101.199 90.0162 104.133 92.3534 105.401L92.5443 105.05ZM105.198 107.974C100.341 107.974 96.0533 106.95 92.5441 105.05L92.3536 105.401C95.9303 107.338 100.286 108.374 105.198 108.374V107.974ZM154.278 107.974H105.198V108.374H154.278V107.974ZM162.416 106.888C159.789 107.643 157.032 107.974 154.278 107.974V108.374C157.064 108.374 159.859 108.04 162.526 107.273L162.416 106.888ZM175.455 96.182C173.01 101.306 168.326 105.191 162.416 106.888L162.526 107.273C168.539 105.546 173.318 101.588 175.816 96.3543L175.455 96.182Z" fill="url(#paint2_linear_1_3569)" fill-opacity="0.5" mask="url(#path-3-inside-2_1_3569)"/>
</g>
</g>
<defs>
<filter id="filter0_ddddd_1_3569" x="0" y="0" width="226" height="308" filterUnits="userSpaceOnUse" color-interpolation-filters="sRGB">
<feFlood flood-opacity="0" result="BackgroundImageFix"/>
<feColorMatrix in="SourceAlpha" type="matrix" values="0 0 0 0 0 0 0 0 0 0 0 0 0 0 0 0 0 0 127 0" result="hardAlpha"/>
<feOffset dx="-1" dy="8"/>
<feGaussianBlur stdDeviation="9.5"/>
<feComposite in2="hardAlpha" operator="out"/>
<feColorMatrix type="matrix" values="0 0 0 0 0.0235294 0 0 0 0 0.403922 0 0 0 0 0.682353 0 0 0 0.05 0"/>
<feBlend mode="normal" in2="BackgroundImageFix" result="effect1_dropShadow_1_3569"/>
<feColorMatrix in="SourceAlpha" type="matrix" values="0 0 0 0 0 0 0 0 0 0 0 0 0 0 0 0 0 0 127 0" result="hardAlpha"/>
<feOffset dx="-4" dy="34"/>
<feGaussianBlur stdDeviation="17"/>
<feColorMatrix type="matrix" values="0 0 0 0 0.0235294 0 0 0 0 0.403922 0 0 0 0 0.682353 0 0 0 0.04 0"/>
<feBlend mode="normal" in2="effect1_dropShadow_1_3569" result="effect2_dropShadow_1_3569"/>
<feColorMatrix in="SourceAlpha" type="matrix" values="0 0 0 0 0 0 0 0 0 0 0 0 0 0 0 0 0 0 127 0" result="hardAlpha"/>
<feOffset dx="-10" dy="76"/>
<feGaussianBlur stdDeviation="23"/>
<feComposite in2="hardAlpha" operator="out"/>
<feColorMatrix type="matrix" values="0 0 0 0 0.0235294 0 0 0 0 0.403922 0 0 0 0 0.682353 0 0 0 0.03 0"/>
<feBlend mode="normal" in2="effect2_dropShadow_1_3569" result="effect3_dropShadow_1_3569"/>
<feColorMatrix in="SourceAlpha" type="matrix" values="0 0 0 0 0 0 0 0 0 0 0 0 0 0 0 0 0 0 127 0" result="hardAlpha"/>
<feOffset dx="-18" dy="135"/>
<feGaussianBlur stdDeviation="27"/>
<feComposite in2="hardAlpha" operator="out"/>
<feColorMatrix type="matrix" values="0 0 0 0 0.0235294 0 0 0 0 0.403922 0 0 0 0 0.682353 0 0 0 0.01 0"/>
<feBlend mode="normal" in2="effect3_dropShadow_1_3569" result="effect4_dropShadow_1_3569"/>
<feColorMatrix in="SourceAlpha" type="matrix" values="0 0 0 0 0 0 0 0 0 0 0 0 0 0 0 0 0 0 127 0" result="hardAlpha"/>
<feOffset dy="-5"/>
<feGaussianBlur stdDeviation="5"/>
<feComposite in2="hardAlpha" operator="out"/>
<feColorMatrix type="matrix" values="0 0 0 0 0.0196078 0 0 0 0 0.403922 0 0 0 0 0.682353 0 0 0 0.15 0"/>
<feBlend mode="normal" in2="effect4_dropShadow_1_3569" result="effect5_dropShadow_1_3569"/>
<feBlend mode="normal" in="SourceGraphic" in2="effect5_dropShadow_1_3569" result="shape"/>
</filter>
<filter id="filter1_b_1_3569" x="48" y="-9" width="166" height="152" filterUnits="userSpaceOnUse" color-interpolation-filters="sRGB">
<feFlood flood-opacity="0" result="BackgroundImageFix"/>
<feGaussianBlur in="BackgroundImageFix" stdDeviation="12"/>
<feComposite in2="SourceAlpha" operator="in" result="effect1_backgroundBlur_1_3569"/>
<feBlend mode="normal" in="SourceGraphic" in2="effect1_backgroundBlur_1_3569" result="shape"/>
</filter>
<filter id="filter2_bd_1_3569" x="75.4717" y="21.4824" width="117.355" height="101.691" filterUnits="userSpaceOnUse" color-interpolation-filters="sRGB">
<feFlood flood-opacity="0" result="BackgroundImageFix"/>
<feGaussianBlur in="BackgroundImageFix" stdDeviation="7.5"/>
<feComposite in2="SourceAlpha" operator="in" result="effect1_backgroundBlur_1_3569"/>
<feColorMatrix in="SourceAlpha" type="matrix" values="0 0 0 0 0 0 0 0 0 0 0 0 0 0 0 0 0 0 127 0" result="hardAlpha"/>
<feOffset dx="5" dy="5"/>
<feGaussianBlur stdDeviation="5"/>
<feColorMatrix type="matrix" values="0 0 0 0 0.0235294 0 0 0 0 0.403922 0 0 0 0 0.682353 0 0 0 0.5 0"/>
<feBlend mode="normal" in2="effect1_backgroundBlur_1_3569" result="effect2_dropShadow_1_3569"/>
<feBlend mode="normal" in="SourceGraphic" in2="effect2_dropShadow_1_3569" result="shape"/>
</filter>
<linearGradient id="paint0_linear_1_3569" x1="91.4653" y1="27.8831" x2="154.302" y2="116.39" gradientUnits="userSpaceOnUse">
<stop stop-color="white" stop-opacity="0.25"/>
<stop offset="1" stop-color="white" stop-opacity="0.06"/>
</linearGradient>
<linearGradient id="paint1_linear_1_3569" x1="171.633" y1="49.4285" x2="74.3781" y2="53.2923" gradientUnits="userSpaceOnUse">
<stop stop-color="white"/>
<stop offset="1" stop-color="white" stop-opacity="0.2"/>
</linearGradient>
<linearGradient id="paint2_linear_1_3569" x1="99.8817" y1="60.5316" x2="174.057" y2="61.0305" gradientUnits="userSpaceOnUse">
<stop stop-color="white"/>
<stop offset="1" stop-color="white" stop-opacity="0"/>
</linearGradient>
</defs>
</svg>
