<svg width="90" height="89" viewBox="0 0 90 89" fill="none" xmlns="http://www.w3.org/2000/svg">
<g filter="url(#filter0_d_1_701)">
<path d="M74.9453 11.7494L52.1941 5.55504C43.9416 3.3082 37.842 6.90983 35.6235 15.3228L28.1096 43.8163C25.8547 52.3672 29.394 58.4749 37.6464 60.7217L60.3977 66.9161C68.7832 69.1991 74.718 65.6709 76.9728 57.12L84.4867 28.6264C86.7052 20.2135 83.3308 14.0324 74.9453 11.7494Z" fill="url(#paint0_linear_1_701)"/>
<g opacity="0.5" filter="url(#filter1_f_1_701)">
<path d="M69.0003 19.5525L53.4996 15.3322C47.8771 13.8014 43.7214 16.2553 42.2099 21.9871L37.0906 41.4C35.5544 47.2258 37.9657 51.387 43.5882 52.9178L59.0888 57.1381C64.8019 58.6936 68.8454 56.2897 70.3816 50.464L75.5009 31.051C77.0124 25.3192 74.7134 21.108 69.0003 19.5525Z" fill="#B57DAC"/>
</g>
<g filter="url(#filter2_b_1_701)">
<path d="M50.3688 17.2881H22.3341C11.3724 17.2881 4 25.1078 4 36.7388V63.5821C4 75.1803 11.3724 83 22.3341 83H50.3688C61.3305 83 68.6706 75.1803 68.6706 63.5821V36.7388C68.6706 25.1078 61.3305 17.2881 50.3688 17.2881Z" fill="#B57DAC" fill-opacity="0.35"/>
</g>
<g filter="url(#filter3_bd_1_701)">
<mask id="path-4-inside-1_1_701" fill="white">
<path d="M32.4973 60.8156C31.773 60.8156 31.0487 60.5363 30.4957 59.9745L22.8226 52.1777C21.7167 51.0541 21.7167 49.2339 22.8226 48.1135C23.9284 46.9898 25.7166 46.9865 26.8224 48.1102L32.4973 53.8764L45.8453 40.3135C46.9512 39.1898 48.7393 39.1898 49.8452 40.3135C50.951 41.4371 50.951 43.2574 49.8452 44.381L34.4988 59.9745C33.9459 60.5363 33.2216 60.8156 32.4973 60.8156Z"/>
</mask>
<path d="M32.4973 60.8156C31.773 60.8156 31.0487 60.5363 30.4957 59.9745L22.8226 52.1777C21.7167 51.0541 21.7167 49.2339 22.8226 48.1135C23.9284 46.9898 25.7166 46.9865 26.8224 48.1102L32.4973 53.8764L45.8453 40.3135C46.9512 39.1898 48.7393 39.1898 49.8452 40.3135C50.951 41.4371 50.951 43.2574 49.8452 44.381L34.4988 59.9745C33.9459 60.5363 33.2216 60.8156 32.4973 60.8156Z" fill="url(#paint1_linear_1_701)"/>
<path d="M22.8226 48.1135L22.9649 48.254L22.9651 48.2538L22.8226 48.1135ZM32.4973 53.8764L32.3547 54.0167L32.4973 54.1615L32.6398 54.0167L32.4973 53.8764ZM49.8452 44.381L49.7026 44.2407L49.8452 44.381ZM34.4988 59.9745L34.6414 60.1148L34.4988 59.9745ZM32.4973 60.6156C31.8246 60.6156 31.1523 60.3564 30.6383 59.8342L30.3532 60.1148C30.9451 60.7162 31.7213 61.0156 32.4973 61.0156V60.6156ZM30.6383 59.8342L22.9651 52.0375L22.68 52.318L30.3532 60.1148L30.6383 59.8342ZM22.9651 52.0375C21.9357 50.9915 21.936 49.2963 22.9649 48.254L22.6802 47.973C21.4974 49.1714 21.4977 51.1166 22.68 52.318L22.9651 52.0375ZM22.9651 48.2538C23.9929 47.2094 25.6527 47.2067 26.6799 48.2505L26.965 47.9699C25.7805 46.7663 23.8639 46.7702 22.68 47.9732L22.9651 48.2538ZM26.6799 48.2505L32.3547 54.0167L32.6398 53.7361L26.965 47.9699L26.6799 48.2505ZM32.6398 54.0167L45.9878 40.4537L45.7027 40.1732L32.3547 53.7361L32.6398 54.0167ZM45.9878 40.4537C47.0154 39.4097 48.6751 39.4097 49.7026 40.4537L49.9877 40.1732C48.8035 38.9699 46.887 38.9699 45.7027 40.1732L45.9878 40.4537ZM49.7026 40.4537C50.7319 41.4996 50.7319 43.1949 49.7026 44.2407L49.9877 44.5213C51.1702 43.3198 51.1702 41.3747 49.9877 40.1732L49.7026 40.4537ZM49.7026 44.2407L34.3563 59.8342L34.6414 60.1148L49.9877 44.5213L49.7026 44.2407ZM34.3563 59.8342C33.8423 60.3564 33.17 60.6156 32.4973 60.6156V61.0156C33.2732 61.0156 34.0495 60.7162 34.6414 60.1148L34.3563 59.8342Z" fill="url(#paint2_linear_1_701)" fill-opacity="0.5" mask="url(#path-4-inside-1_1_701)"/>
</g>
</g>
<defs>
<filter id="filter0_d_1_701" x="0" y="0" width="92" height="89" filterUnits="userSpaceOnUse" color-interpolation-filters="sRGB">
<feFlood flood-opacity="0" result="BackgroundImageFix"/>
<feColorMatrix in="SourceAlpha" type="matrix" values="0 0 0 0 0 0 0 0 0 0 0 0 0 0 0 0 0 0 127 0" result="hardAlpha"/>
<feOffset dy="2"/>
<feGaussianBlur stdDeviation="2"/>
<feComposite in2="hardAlpha" operator="out"/>
<feColorMatrix type="matrix" values="0 0 0 0 0 0 0 0 0 0 0 0 0 0 0 0 0 0 0.2 0"/>
<feBlend mode="normal" in2="BackgroundImageFix" result="effect1_dropShadow_1_701"/>
<feBlend mode="normal" in="SourceGraphic" in2="effect1_dropShadow_1_701" result="shape"/>
</filter>
<filter id="filter1_f_1_701" x="22.6367" y="0.885742" width="67.3174" height="70.7148" filterUnits="userSpaceOnUse" color-interpolation-filters="sRGB">
<feFlood flood-opacity="0" result="BackgroundImageFix"/>
<feBlend mode="normal" in="SourceGraphic" in2="BackgroundImageFix" result="shape"/>
<feGaussianBlur stdDeviation="7" result="effect1_foregroundBlur_1_701"/>
</filter>
<filter id="filter2_b_1_701" x="-20" y="-6.71191" width="112.671" height="113.712" filterUnits="userSpaceOnUse" color-interpolation-filters="sRGB">
<feFlood flood-opacity="0" result="BackgroundImageFix"/>
<feGaussianBlur in="BackgroundImageFix" stdDeviation="12"/>
<feComposite in2="SourceAlpha" operator="in" result="effect1_backgroundBlur_1_701"/>
<feBlend mode="normal" in="SourceGraphic" in2="effect1_backgroundBlur_1_701" result="shape"/>
</filter>
<filter id="filter3_bd_1_701" x="6.99316" y="24.4707" width="58.6816" height="51.3447" filterUnits="userSpaceOnUse" color-interpolation-filters="sRGB">
<feFlood flood-opacity="0" result="BackgroundImageFix"/>
<feGaussianBlur in="BackgroundImageFix" stdDeviation="7.5"/>
<feComposite in2="SourceAlpha" operator="in" result="effect1_backgroundBlur_1_701"/>
<feColorMatrix in="SourceAlpha" type="matrix" values="0 0 0 0 0 0 0 0 0 0 0 0 0 0 0 0 0 0 127 0" result="hardAlpha"/>
<feOffset dx="5" dy="5"/>
<feGaussianBlur stdDeviation="5"/>
<feColorMatrix type="matrix" values="0 0 0 0 0.862745 0 0 0 0 0.482353 0 0 0 0 0.568627 0 0 0 0.5 0"/>
<feBlend mode="normal" in2="effect1_backgroundBlur_1_701" result="effect2_dropShadow_1_701"/>
<feBlend mode="normal" in="SourceGraphic" in2="effect2_dropShadow_1_701" result="shape"/>
</filter>
<linearGradient id="paint0_linear_1_701" x1="87.9999" y1="15.3037" x2="37.9551" y2="45.4472" gradientUnits="userSpaceOnUse">
<stop stop-color="#DC7B91"/>
<stop offset="1" stop-color="#B57DAC"/>
</linearGradient>
<linearGradient id="paint1_linear_1_701" x1="48.6411" y1="43.3252" x2="16.72" y2="44.7237" gradientUnits="userSpaceOnUse">
<stop stop-color="white"/>
<stop offset="1" stop-color="white" stop-opacity="0.2"/>
</linearGradient>
<linearGradient id="paint2_linear_1_701" x1="25.0828" y1="46.6309" x2="49.4367" y2="46.8115" gradientUnits="userSpaceOnUse">
<stop stop-color="white"/>
<stop offset="1" stop-color="white" stop-opacity="0"/>
</linearGradient>
</defs>
</svg>
