<svg width="112" height="118" viewBox="0 0 112 118" fill="none" xmlns="http://www.w3.org/2000/svg">
<g filter="url(#filter0_d_1_4635)">
<path d="M60.38 13.1111L27.4177 22.0193C15.4614 25.2505 10.3758 34.1927 13.5901 46.2915L24.4762 87.2686C27.7431 99.5657 36.5382 104.587 48.4945 101.355L81.4569 92.4472C93.6059 89.1639 98.5369 80.4335 95.27 68.1364L84.3838 27.1593C81.1696 15.0605 72.529 9.82779 60.38 13.1111Z" fill="url(#paint0_linear_1_4635)"/>
<g filter="url(#filter1_f_1_4635)">
<rect width="53.0061" height="44.5546" rx="14" transform="matrix(-0.256759 -0.966476 0.965368 -0.260894 37.8237 87.0605)" fill="#0667AE" fill-opacity="0.5"/>
</g>
</g>
<g filter="url(#filter2_b_1_4635)">
<path d="M91.3772 34.3164H57.252C44.874 34.3164 37.667 41.6264 37.667 54.1519V96.5746C37.667 109.305 44.874 116.451 57.252 116.451H91.3772C103.955 116.451 110.958 109.305 110.958 96.5746V54.1519C110.958 41.6264 103.955 34.3164 91.3772 34.3164Z" fill="#0667AE" fill-opacity="0.35"/>
<path d="M91.3772 33.8164H57.252C50.9646 33.8164 45.927 35.675 42.4619 39.1859C38.9976 42.6959 37.167 47.7944 37.167 54.1519V96.5746C37.167 103.033 38.9966 108.143 42.4627 111.639C45.9293 115.135 50.9676 116.951 57.252 116.951H91.3772C97.7594 116.951 102.799 115.136 106.241 111.638C109.682 108.14 111.458 103.029 111.458 96.5746V54.1519C111.458 47.7982 109.681 42.6989 106.241 39.1873C102.801 35.674 97.7625 33.8164 91.3772 33.8164Z" stroke="url(#paint1_linear_1_4635)" stroke-linecap="round" stroke-linejoin="round"/>
</g>
<g filter="url(#filter3_bd_1_4635)">
<mask id="path-5-inside-1_1_4635" fill="white">
<path fill-rule="evenodd" clip-rule="evenodd" d="M58.3512 53.4141V53.4551C56.5963 53.4551 55.1752 54.8925 55.1752 56.6584C55.1752 58.4243 56.5963 59.8616 58.3512 59.8616H70.5216C72.2765 59.8616 73.7016 58.4243 73.7016 56.6132C73.7016 54.8514 72.2765 53.4141 70.5216 53.4141H58.3512ZM90.2735 78.4248H58.3512C56.5963 78.4248 55.1752 76.9875 55.1752 75.2216C55.1752 73.4557 56.5963 72.0142 58.3512 72.0142H90.2735C92.0244 72.0142 93.4495 73.4557 93.4495 75.2216C93.4495 76.9875 92.0244 78.4248 90.2735 78.4248ZM90.2738 97.1923H58.3515C57.13 97.3566 55.9492 96.7406 55.2977 95.7139C54.6462 94.6461 54.6462 93.2909 55.2977 92.2642C55.9492 91.1965 57.13 90.6215 58.3515 90.7447H90.2738C91.8985 90.909 93.1241 92.3053 93.1241 93.9891C93.1241 95.6277 91.8985 97.0281 90.2738 97.1923Z"/>
</mask>
<path fill-rule="evenodd" clip-rule="evenodd" d="M58.3512 53.4141V53.4551C56.5963 53.4551 55.1752 54.8925 55.1752 56.6584C55.1752 58.4243 56.5963 59.8616 58.3512 59.8616H70.5216C72.2765 59.8616 73.7016 58.4243 73.7016 56.6132C73.7016 54.8514 72.2765 53.4141 70.5216 53.4141H58.3512ZM90.2735 78.4248H58.3512C56.5963 78.4248 55.1752 76.9875 55.1752 75.2216C55.1752 73.4557 56.5963 72.0142 58.3512 72.0142H90.2735C92.0244 72.0142 93.4495 73.4557 93.4495 75.2216C93.4495 76.9875 92.0244 78.4248 90.2735 78.4248ZM90.2738 97.1923H58.3515C57.13 97.3566 55.9492 96.7406 55.2977 95.7139C54.6462 94.6461 54.6462 93.2909 55.2977 92.2642C55.9492 91.1965 57.13 90.6215 58.3515 90.7447H90.2738C91.8985 90.909 93.1241 92.3053 93.1241 93.9891C93.1241 95.6277 91.8985 97.0281 90.2738 97.1923Z" fill="url(#paint2_linear_1_4635)"/>
<path d="M58.3512 53.4551V53.8551H58.7512V53.4551H58.3512ZM58.3512 53.4141V53.0141H57.9512V53.4141H58.3512ZM58.3515 97.1923V96.7923H58.3247L58.2982 96.7959L58.3515 97.1923ZM90.2738 97.1923V97.5923H90.294L90.3141 97.5903L90.2738 97.1923ZM55.2977 95.7139L54.9562 95.9223L54.9599 95.9282L55.2977 95.7139ZM55.2977 92.2642L55.6355 92.4786L55.6392 92.4726L55.2977 92.2642ZM58.3515 90.7447L58.3113 91.1427L58.3314 91.1447H58.3515V90.7447ZM90.2738 90.7447L90.3141 90.3468L90.294 90.3447H90.2738V90.7447ZM58.7512 53.4551V53.4141H57.9512V53.4551H58.7512ZM55.5752 56.6584C55.5752 55.1098 56.8207 53.8551 58.3512 53.8551V53.0551C56.3718 53.0551 54.7752 54.6751 54.7752 56.6584H55.5752ZM58.3512 59.4616C56.8207 59.4616 55.5752 58.2069 55.5752 56.6584H54.7752C54.7752 58.6416 56.3718 60.2616 58.3512 60.2616V59.4616ZM70.5216 59.4616H58.3512V60.2616H70.5216V59.4616ZM73.3016 56.6132C73.3016 58.2099 72.0491 59.4616 70.5216 59.4616V60.2616C72.5039 60.2616 74.1016 58.6386 74.1016 56.6132H73.3016ZM70.5216 53.8141C72.053 53.8141 73.3016 55.0698 73.3016 56.6132H74.1016C74.1016 54.6331 72.5 53.0141 70.5216 53.0141V53.8141ZM58.3512 53.8141H70.5216V53.0141H58.3512V53.8141ZM58.3512 78.8248H90.2735V78.0248H58.3512V78.8248ZM54.7752 75.2216C54.7752 77.2048 56.3718 78.8248 58.3512 78.8248V78.0248C56.8207 78.0248 55.5752 76.7701 55.5752 75.2216H54.7752ZM58.3512 71.6142C56.3711 71.6142 54.7752 73.239 54.7752 75.2216H55.5752C55.5752 73.6723 56.8214 72.4142 58.3512 72.4142V71.6142ZM90.2735 71.6142H58.3512V72.4142H90.2735V71.6142ZM93.8495 75.2216C93.8495 73.2387 92.2492 71.6142 90.2735 71.6142V72.4142C91.7996 72.4142 93.0495 73.6727 93.0495 75.2216H93.8495ZM90.2735 78.8248C92.2485 78.8248 93.8495 77.2051 93.8495 75.2216H93.0495C93.0495 76.7698 91.8002 78.0248 90.2735 78.0248V78.8248ZM58.3515 97.5923H90.2738V96.7923H58.3515V97.5923ZM54.9599 95.9282C55.687 97.0739 57.0141 97.7758 58.4048 97.5888L58.2982 96.7959C57.2458 96.9374 56.2114 96.4072 55.6354 95.4996L54.9599 95.9282ZM54.9599 92.0499C54.2239 93.2099 54.2283 94.7291 54.9562 95.9222L55.6392 95.5056C55.0641 94.5631 55.0685 93.3719 55.6354 92.4785L54.9599 92.0499ZM58.3916 90.3468C57.0182 90.2082 55.6885 90.8558 54.9562 92.0559L55.6392 92.4726C56.2099 91.5372 57.2417 91.0348 58.3113 91.1427L58.3916 90.3468ZM90.2738 90.3447H58.3515V91.1447H90.2738V90.3447ZM93.5241 93.9891C93.5241 92.1103 92.1532 90.5327 90.3141 90.3468L90.2336 91.1427C91.6438 91.2853 92.7241 92.5003 92.7241 93.9891H93.5241ZM90.3141 97.5903C92.1504 97.4046 93.5241 95.8255 93.5241 93.9891H92.7241C92.7241 95.4298 91.6466 96.6515 90.2336 96.7943L90.3141 97.5903Z" fill="url(#paint3_linear_1_4635)" mask="url(#path-5-inside-1_1_4635)"/>
</g>
<defs>
<filter id="filter0_d_1_4635" x="8.646" y="12.1494" width="91.6084" height="98.1621" filterUnits="userSpaceOnUse" color-interpolation-filters="sRGB">
<feFlood flood-opacity="0" result="BackgroundImageFix"/>
<feColorMatrix in="SourceAlpha" type="matrix" values="0 0 0 0 0 0 0 0 0 0 0 0 0 0 0 0 0 0 127 0" result="hardAlpha"/>
<feOffset dy="4"/>
<feGaussianBlur stdDeviation="2"/>
<feComposite in2="hardAlpha" operator="out"/>
<feColorMatrix type="matrix" values="0 0 0 0 0 0 0 0 0 0 0 0 0 0 0 0 0 0 0.25 0"/>
<feBlend mode="normal" in2="BackgroundImageFix" result="effect1_dropShadow_1_4635"/>
<feBlend mode="normal" in="SourceGraphic" in2="effect1_dropShadow_1_4635" result="shape"/>
</filter>
<filter id="filter1_f_1_4635" x="0.335449" y="0.37207" width="104.378" height="110.523" filterUnits="userSpaceOnUse" color-interpolation-filters="sRGB">
<feFlood flood-opacity="0" result="BackgroundImageFix"/>
<feBlend mode="normal" in="SourceGraphic" in2="BackgroundImageFix" result="shape"/>
<feGaussianBlur stdDeviation="13.5" result="effect1_foregroundBlur_1_4635"/>
</filter>
<filter id="filter2_b_1_4635" x="12.667" y="9.31641" width="123.291" height="132.135" filterUnits="userSpaceOnUse" color-interpolation-filters="sRGB">
<feFlood flood-opacity="0" result="BackgroundImageFix"/>
<feGaussianBlur in="BackgroundImageFix" stdDeviation="12"/>
<feComposite in2="SourceAlpha" operator="in" result="effect1_backgroundBlur_1_4635"/>
<feBlend mode="normal" in="SourceGraphic" in2="effect1_backgroundBlur_1_4635" result="shape"/>
</filter>
<filter id="filter3_bd_1_4635" x="39.8091" y="38.4141" width="68.6406" height="73.8047" filterUnits="userSpaceOnUse" color-interpolation-filters="sRGB">
<feFlood flood-opacity="0" result="BackgroundImageFix"/>
<feGaussianBlur in="BackgroundImageFix" stdDeviation="7.5"/>
<feComposite in2="SourceAlpha" operator="in" result="effect1_backgroundBlur_1_4635"/>
<feColorMatrix in="SourceAlpha" type="matrix" values="0 0 0 0 0 0 0 0 0 0 0 0 0 0 0 0 0 0 127 0" result="hardAlpha"/>
<feOffset dx="5" dy="5"/>
<feGaussianBlur stdDeviation="5"/>
<feColorMatrix type="matrix" values="0 0 0 0 0.862745 0 0 0 0 0.482353 0 0 0 0 0.568627 0 0 0 0.5 0"/>
<feBlend mode="normal" in2="effect1_backgroundBlur_1_4635" result="effect2_dropShadow_1_4635"/>
<feBlend mode="normal" in="SourceGraphic" in2="effect2_dropShadow_1_4635" result="shape"/>
</filter>
<linearGradient id="paint0_linear_1_4635" x1="43.8969" y1="17.5657" x2="65.3129" y2="96.8101" gradientUnits="userSpaceOnUse">
<stop stop-color="#0667AE" stop-opacity="0.5"/>
<stop offset="1" stop-color="#0667AE"/>
</linearGradient>
<linearGradient id="paint1_linear_1_4635" x1="49.3337" y1="43.8852" x2="102.664" y2="102.824" gradientUnits="userSpaceOnUse">
<stop stop-color="white" stop-opacity="0.25"/>
<stop offset="1" stop-color="white" stop-opacity="0"/>
</linearGradient>
<linearGradient id="paint2_linear_1_4635" x1="90.7099" y1="61.3243" x2="47.658" y2="62.5625" gradientUnits="userSpaceOnUse">
<stop stop-color="white"/>
<stop offset="1" stop-color="white" stop-opacity="0.2"/>
</linearGradient>
<linearGradient id="paint3_linear_1_4635" x1="60.96" y1="58.5174" x2="89.433" y2="89.6244" gradientUnits="userSpaceOnUse">
<stop stop-color="white" stop-opacity="0.25"/>
<stop offset="1" stop-color="white" stop-opacity="0"/>
</linearGradient>
</defs>
</svg>
