<svg width="15" height="15" viewBox="0 0 15 15" fill="none" xmlns="http://www.w3.org/2000/svg">
<path d="M7.84783 4.89746C5.54684 4.89746 3.31515 7.10142 3.21812 7.18459C3.14882 7.2539 3.12109 7.33706 3.12109 7.42023C3.12109 7.5034 3.16268 7.58657 3.21812 7.65588C3.31515 7.75291 5.53297 9.94301 7.84783 9.94301C10.1627 9.94301 12.3805 7.73905 12.4775 7.65588C12.533 7.60043 12.5746 7.5034 12.5746 7.42023C12.5746 7.33706 12.533 7.2539 12.4775 7.18459C12.3805 7.08756 10.1488 4.89746 7.84783 4.89746ZM7.84783 9.27766C6.23991 9.27766 4.57654 7.96083 3.95278 7.42023C4.57654 6.86578 6.23991 5.56281 7.84783 5.56281C9.45575 5.56281 11.1191 6.87964 11.7429 7.42023C11.1191 7.97469 9.45575 9.27766 7.84783 9.27766Z" fill="#1A1A1A"/>
<path d="M6.65527 7.41962C6.65527 8.08496 7.19587 8.6117 7.84735 8.6117C8.49884 8.6117 9.03943 8.0711 9.03943 7.41962C9.03943 6.76813 8.49884 6.22754 7.84735 6.22754C7.19587 6.22754 6.65527 6.75427 6.65527 7.41962ZM8.37408 7.41962C8.37408 7.71071 8.13844 7.94635 7.84735 7.94635C7.55626 7.94635 7.32062 7.71071 7.32062 7.41962C7.32062 7.12853 7.55626 6.89289 7.84735 6.89289C8.13844 6.89289 8.37408 7.12853 8.37408 7.41962Z" fill="#1A1A1A"/>
</svg>
