<svg width="120" height="120" viewBox="0 0 120 120" fill="none" xmlns="http://www.w3.org/2000/svg">
<g clip-path="url(#clip0_1_3876)">
<path d="M101.094 101.223C123.762 78.5554 123.762 41.8039 101.094 19.1363C78.4262 -3.53138 41.6747 -3.53139 19.007 19.1363C-3.66061 41.8039 -3.66061 78.5555 19.007 101.223C41.6747 123.891 78.4262 123.891 101.094 101.223Z" fill="#AAD496"/>
<path fill-rule="evenodd" clip-rule="evenodd" d="M15.0733 23.9804L14.9182 23.6853C15.0504 23.5219 15.1811 23.3573 15.315 23.1953L15.0733 23.9804Z" fill="#94D477"/>
<path fill-rule="evenodd" clip-rule="evenodd" d="M2.01245 60.3613L3.30074 62.624L2.31635 66.1728C2.1205 64.2618 2.0183 62.323 2.01245 60.3613Z" fill="#B6E1A3"/>
<path fill-rule="evenodd" clip-rule="evenodd" d="M3.30074 62.6236L2.01245 60.3609C2.01221 60.3004 2.01025 60.2404 2.01025 60.1797C2.01025 59.2668 2.03391 58.3597 2.07562 57.457L3.30074 62.6236Z" fill="#B0DE9B"/>
<path fill-rule="evenodd" clip-rule="evenodd" d="M21.0249 103.147L34.6378 100.621L33.0676 111.582C28.6951 109.281 24.6495 106.442 21.0249 103.147Z" fill="#CCEBBF"/>
<path fill-rule="evenodd" clip-rule="evenodd" d="M15.5913 97.4901L25.5796 58.3281L34.6381 100.621L21.0252 103.147C19.0891 101.387 17.275 99.495 15.5913 97.4901Z" fill="#C7E8B8"/>
<path fill-rule="evenodd" clip-rule="evenodd" d="M25.5795 58.3281L3.69897 46.2395C4.03873 44.8613 4.42775 43.5022 4.86385 42.1649L26.848 37.2891L25.5795 58.3281Z" fill="#B5E1A1"/>
<path fill-rule="evenodd" clip-rule="evenodd" d="M14.9184 23.6855L15.0735 23.9807L14.6282 24.046C14.7243 23.9253 14.8213 23.8055 14.9184 23.6855Z" fill="#97D47C"/>
<path fill-rule="evenodd" clip-rule="evenodd" d="M14.6281 24.0458L15.0735 23.9805L11.8264 27.8714C12.7089 26.5568 13.6442 25.2812 14.6281 24.0458Z" fill="#A3D989"/>
<path fill-rule="evenodd" clip-rule="evenodd" d="M11.8265 27.8714L15.0735 23.9805L26.8484 37.2897L4.86401 42.1656C6.53206 37.0527 8.88767 32.2505 11.8265 27.8714Z" fill="#ABDC94"/>
<path fill-rule="evenodd" clip-rule="evenodd" d="M3.30081 62.6234L2.07568 57.4571C2.25349 53.608 2.80739 49.8578 3.6991 46.2402L25.5796 58.3288L3.30081 62.6234Z" fill="#B6E1A3"/>
<path fill-rule="evenodd" clip-rule="evenodd" d="M3.82642 74.6406L25.5796 58.3281L15.5913 97.4898C10.095 90.9454 6.01422 83.173 3.82642 74.6406Z" fill="#C4E6B4"/>
<path fill-rule="evenodd" clip-rule="evenodd" d="M2.31641 66.1718L3.3008 62.623L25.5793 58.3281L3.82616 74.6406C3.12128 71.8911 2.61299 69.0628 2.31641 66.1718Z" fill="#BEE4AD"/>
<path fill-rule="evenodd" clip-rule="evenodd" d="M49.1276 81.7281L25.5796 58.3288L41.1562 53.8203L49.1276 81.7281Z" fill="#C5E8B6"/>
<path fill-rule="evenodd" clip-rule="evenodd" d="M41.1562 53.8204L26.8481 37.2899L36.812 20.1152L41.1562 53.8204Z" fill="#B3E09E"/>
<path fill-rule="evenodd" clip-rule="evenodd" d="M25.5796 58.3281L26.8481 37.2891L41.1562 53.8195L25.5796 58.3281Z" fill="#BDE4AC"/>
<path fill-rule="evenodd" clip-rule="evenodd" d="M82.0971 46.3061L70.5039 25.4827L90.5129 10.748C91.3485 11.2639 92.1698 11.8007 92.9766 12.3571L82.0971 46.3061Z" fill="#A9DC92"/>
<path fill-rule="evenodd" clip-rule="evenodd" d="M15.0735 23.9797L15.3152 23.1946C18.2325 19.6688 21.5591 16.4944 25.2213 13.7422L36.8123 20.1144L15.0735 23.9797Z" fill="#9CD681"/>
<path fill-rule="evenodd" clip-rule="evenodd" d="M26.8481 37.2899L15.0735 23.9806L36.812 20.1152L26.8481 37.2899Z" fill="#A7DB8F"/>
<path fill-rule="evenodd" clip-rule="evenodd" d="M36.8119 20.1142L25.2209 13.742C28.7466 11.0925 32.5846 8.83784 36.6683 7.03711L36.8119 20.1142Z" fill="#97D47C"/>
<path fill-rule="evenodd" clip-rule="evenodd" d="M34.6379 100.621L25.5796 58.3281L49.1276 81.7274L34.6379 100.621Z" fill="#C9E9BB"/>
<path fill-rule="evenodd" clip-rule="evenodd" d="M76.482 76.1471L61.2656 65.8442L82.0968 46.3066L76.482 76.1471Z" fill="#C5E7B5"/>
<path fill-rule="evenodd" clip-rule="evenodd" d="M33.0676 111.582L34.6379 100.621L45.1996 116.309C40.9447 115.184 36.881 113.589 33.0676 111.582Z" fill="#CFECC2"/>
<path fill-rule="evenodd" clip-rule="evenodd" d="M61.2656 65.8434L70.5037 25.4824L82.0968 46.3058L61.2656 65.8434Z" fill="#BAE3A7"/>
<path fill-rule="evenodd" clip-rule="evenodd" d="M36.8119 20.1151L36.6685 7.038C38.6946 6.14483 40.7804 5.3619 42.9199 4.70117L61.9894 8.73581L36.8119 20.1151Z" fill="#97D47C"/>
<path fill-rule="evenodd" clip-rule="evenodd" d="M49.1275 81.7281L41.156 53.8203L61.2655 65.8437L49.1275 81.7281Z" fill="#C7E8B8"/>
<path fill-rule="evenodd" clip-rule="evenodd" d="M63.8009 117.15L34.6377 100.622L49.1275 81.7285L63.8009 117.15Z" fill="#D0ECC4"/>
<path fill-rule="evenodd" clip-rule="evenodd" d="M45.1996 116.309L34.6379 100.621L63.8011 117.149L61.7389 118.207C61.1821 118.223 60.6238 118.232 60.0631 118.232C54.9248 118.232 49.9438 117.562 45.1996 116.309Z" fill="#D2ECC5"/>
<path fill-rule="evenodd" clip-rule="evenodd" d="M61.2655 65.8434L41.156 53.82L70.5036 25.4824L61.2655 65.8434Z" fill="#BDE4AC"/>
<path fill-rule="evenodd" clip-rule="evenodd" d="M41.1562 53.8204L36.812 20.1152L70.5037 25.4828L41.1562 53.8204Z" fill="#B0DE9B"/>
<path fill-rule="evenodd" clip-rule="evenodd" d="M70.5037 25.4834L36.812 20.1158L61.9896 8.73633L70.5037 25.4834Z" fill="#A1D988"/>
<path fill-rule="evenodd" clip-rule="evenodd" d="M61.739 118.208L63.8012 117.15L64.2583 118.081C63.4232 118.141 62.5834 118.184 61.739 118.208Z" fill="#D9EFCE"/>
<path fill-rule="evenodd" clip-rule="evenodd" d="M63.8011 117.15L49.1277 81.7285L74.8521 110.71L63.8011 117.15Z" fill="#D4EDC9"/>
<path fill-rule="evenodd" clip-rule="evenodd" d="M74.8521 110.709L49.1277 81.7279L76.4821 76.1465L74.8521 110.709Z" fill="#D0ECC4"/>
<path fill-rule="evenodd" clip-rule="evenodd" d="M64.2583 118.08L63.8013 117.149L74.8523 110.709L74.1793 116.5C70.9696 117.302 67.6547 117.838 64.2583 118.08Z" fill="#DBF0D1"/>
<path fill-rule="evenodd" clip-rule="evenodd" d="M49.1277 81.7281L61.2657 65.8438L76.4821 76.1467L49.1277 81.7281Z" fill="#C9E9BB"/>
<path fill-rule="evenodd" clip-rule="evenodd" d="M70.5036 25.4821L61.9895 8.73498L85.7441 8.10547C87.3788 8.91327 88.9697 9.79474 90.5129 10.7474L70.5036 25.4821Z" fill="#9CD681"/>
<path fill-rule="evenodd" clip-rule="evenodd" d="M74.8521 110.709L76.482 76.1465L93.5091 87.3101L74.8521 110.709Z" fill="#D2ECC5"/>
<path fill-rule="evenodd" clip-rule="evenodd" d="M61.9894 8.73565L42.9199 4.70102C43.6846 4.46516 44.4568 4.24614 45.2346 4.04102L83.4138 7.01858C84.1999 7.36443 84.9767 7.72687 85.7441 8.10589L61.9894 8.73565Z" fill="#94D477"/>
<path fill-rule="evenodd" clip-rule="evenodd" d="M101.479 100.854L93.509 87.3094L105.282 74.4297L106.974 94.3765C105.3 96.6687 103.463 98.8336 101.479 100.854Z" fill="#D1ECC5"/>
<path fill-rule="evenodd" clip-rule="evenodd" d="M93.509 87.3094L76.4819 76.1458L105.282 74.4297L93.509 87.3094Z" fill="#CCEABE"/>
<path fill-rule="evenodd" clip-rule="evenodd" d="M105.282 74.4296L82.0969 46.3052L106.874 25.8438C107.814 27.1223 108.702 28.4403 109.536 29.7957L105.282 74.4296Z" fill="#B6E1A3"/>
<path fill-rule="evenodd" clip-rule="evenodd" d="M82.0969 46.3064L92.9767 12.3574C98.3281 16.0474 103.029 20.6123 106.874 25.845L82.0969 46.3064Z" fill="#A7DB8F"/>
<path fill-rule="evenodd" clip-rule="evenodd" d="M87.2181 111.499L74.8521 110.71L93.5089 87.3105L101.479 100.855C97.3169 105.092 92.5111 108.692 87.2181 111.499Z" fill="#D9EFCE"/>
<path fill-rule="evenodd" clip-rule="evenodd" d="M76.4819 76.1471L82.0968 46.3066L105.282 74.431L76.4819 76.1471Z" fill="#C4E6B4"/>
<path fill-rule="evenodd" clip-rule="evenodd" d="M74.179 116.5L74.8519 110.709L87.218 111.498C83.136 113.662 78.766 115.354 74.179 116.5Z" fill="#DFF3D7"/>
<path fill-rule="evenodd" clip-rule="evenodd" d="M68.9039 2.79573L49.1982 3.14647C52.7182 2.47988 56.3492 2.12695 60.0631 2.12695C63.069 2.12695 66.0212 2.35525 68.9039 2.79573Z" fill="#8ED16F"/>
<path fill-rule="evenodd" clip-rule="evenodd" d="M83.4136 7.01809L45.2346 4.04053C46.5385 3.69712 47.8605 3.39931 49.1985 3.14565L68.9041 2.79492C73.9875 3.57321 78.8534 5.01224 83.4136 7.01809Z" fill="#94D477"/>
<path fill-rule="evenodd" clip-rule="evenodd" d="M105.281 74.4308L109.536 29.7969C114.856 38.4408 117.971 48.5842 118.106 59.4464L105.281 74.4308Z" fill="#B5E1A0"/>
<path fill-rule="evenodd" clip-rule="evenodd" d="M105.281 74.4297L118.106 59.4453C118.11 59.6899 118.116 59.9339 118.116 60.179C118.116 64.1087 117.723 67.9465 116.979 71.6573L105.281 74.4297Z" fill="#B8E3A6"/>
<path fill-rule="evenodd" clip-rule="evenodd" d="M106.974 94.3765L105.281 74.4297L113.847 82.058C112.054 86.4594 109.738 90.5914 106.974 94.3765Z" fill="#CFECC2"/>
<path fill-rule="evenodd" clip-rule="evenodd" d="M113.847 82.0589L105.281 74.4306L116.979 71.6582C116.257 75.2563 115.201 78.7341 113.847 82.0589Z" fill="#C5E7B5"/>
<path d="M60.0634 0.316406C76.5946 0.316406 91.5607 7.01714 102.394 17.8508C113.228 28.6842 119.929 43.6506 119.929 60.1818C119.929 76.713 113.228 91.6791 102.394 102.512C91.5607 113.346 76.5946 120.047 60.0634 120.047C43.5321 120.047 28.566 113.346 17.7324 102.512C6.89897 91.6788 0.198242 76.7125 0.198242 60.1815C0.198242 43.6505 6.89897 28.6842 17.7324 17.8506C28.566 7.01689 43.5321 0.316406 60.0634 0.316406ZM99.829 20.4159C89.6521 10.2391 75.5929 3.9447 60.0634 3.9447C44.5338 3.9447 30.4746 10.2391 20.2978 20.4159C10.1209 30.5927 3.82653 44.652 3.82653 60.1815C3.82653 75.711 10.1212 89.7703 20.2978 99.9471C30.4746 110.124 44.5338 116.418 60.0634 116.418C75.5929 116.418 89.6521 110.124 99.829 99.9471C110.006 89.7703 116.3 75.711 116.3 60.1815C116.3 44.652 110.006 30.5925 99.829 20.4159Z" fill="#1A1A1A" fill-opacity="0.7"/>
<path fill-rule="evenodd" clip-rule="evenodd" d="M36.6086 81.3945H46.7689V90.5092H36.6086V81.3945Z" fill="#1A1A1A" fill-opacity="0.7"/>
<path fill-rule="evenodd" clip-rule="evenodd" d="M64.9519 35.5099L59.9792 30.8594V60.4028H64.9519V35.5099Z" fill="#1A1A1A" fill-opacity="0.7"/>
<path fill-rule="evenodd" clip-rule="evenodd" d="M86.4297 90.1667L90.5673 88.6167V68.8889C89 69 88 68.8889 86.4297 68.8887V90.1667Z" fill="#1A1A1A" fill-opacity="0.7"/>
<path fill-rule="evenodd" clip-rule="evenodd" d="M79.2188 68.6004H65.3541C64.9278 68.6004 64.5822 68.2548 64.5822 67.8285C64.5822 67.4021 64.9278 67.0565 65.3541 67.0565L85.0005 66.5015C84.8863 65.5015 84.8863 64.5015 84.8863 61.9473H59.9795V90.5095H67.6234V80.6226C67.6234 80.1963 67.969 79.8507 68.3954 79.8507H76.471C76.8973 79.8507 77.2429 80.1963 77.2429 80.6226V90.5095H84.8863V68.6004C83.0005 68.6004 81.2373 68.6004 79.2188 68.6004ZM79.5114 74.3763H65.3541C64.9278 74.3763 64.5822 74.0307 64.5822 73.6043C64.5822 73.178 64.9278 72.8324 65.3541 72.8324H79.5114C79.9378 72.8324 80.2834 73.178 80.2834 73.6043C80.2834 74.0307 79.938 74.3763 79.5114 74.3763Z" fill="#1A1A1A" fill-opacity="0.7"/>
<path fill-rule="evenodd" clip-rule="evenodd" d="M69.167 81.3945H75.6987V90.5092H69.167V81.3945Z" fill="#1A1A1A" fill-opacity="0.7"/>
<path fill-rule="evenodd" clip-rule="evenodd" d="M24.9417 90.5094H35.0648V80.6225C35.0648 80.1962 35.4104 79.8506 35.8368 79.8506H47.5409C47.9673 79.8506 48.3129 80.1962 48.3129 80.6225V90.5094H58.4353V29.8535H24.9417V90.5094ZM49.1495 37.6618H51.0397C51.466 37.6618 51.8117 38.0074 51.8117 38.4338C51.8117 38.8601 51.466 39.2057 51.0397 39.2057H49.1495C48.7231 39.2057 48.3775 38.8601 48.3775 38.4338C48.3775 38.0074 48.7231 37.6618 49.1495 37.6618ZM49.1495 46.0362H51.0397C51.466 46.0362 51.8117 46.3818 51.8117 46.8081C51.8117 47.2345 51.466 47.5801 51.0397 47.5801H49.1495C48.7231 47.5801 48.3775 47.2345 48.3775 46.8081C48.3775 46.3816 48.7231 46.0362 49.1495 46.0362ZM49.1495 54.4103H51.0397C51.466 54.4103 51.8117 54.756 51.8117 55.1823C51.8117 55.6086 51.466 55.9542 51.0397 55.9542H49.1495C48.7231 55.9542 48.3775 55.6086 48.3775 55.1823C48.3775 54.756 48.7231 54.4103 49.1495 54.4103ZM49.1495 62.7847H51.0397C51.466 62.7847 51.8117 63.1303 51.8117 63.5567C51.8117 63.983 51.466 64.3286 51.0397 64.3286H49.1495C48.7231 64.3286 48.3775 63.983 48.3775 63.5567C48.3775 63.1303 48.7231 62.7847 49.1495 62.7847ZM49.1495 71.1589H51.0397C51.466 71.1589 51.8117 71.5045 51.8117 71.9308C51.8117 72.3572 51.466 72.7028 51.0397 72.7028H49.1495C48.7231 72.7028 48.3775 72.3572 48.3775 71.9308C48.3775 71.5045 48.7231 71.1589 49.1495 71.1589ZM40.7438 37.6618H42.6336C43.0599 37.6618 43.4056 38.0074 43.4056 38.4338C43.4056 38.8601 43.0599 39.2057 42.6336 39.2057H40.7438C40.3175 39.2057 39.9719 38.8601 39.9719 38.4338C39.9719 38.0074 40.3175 37.6618 40.7438 37.6618ZM40.7438 46.0362H42.6336C43.0599 46.0362 43.4056 46.3818 43.4056 46.8081C43.4056 47.2345 43.0599 47.5801 42.6336 47.5801H40.7438C40.3175 47.5801 39.9719 47.2345 39.9719 46.8081C39.9719 46.3816 40.3175 46.0362 40.7438 46.0362ZM40.7438 54.4103H42.6336C43.0599 54.4103 43.4056 54.756 43.4056 55.1823C43.4056 55.6086 43.0599 55.9542 42.6336 55.9542H40.7438C40.3175 55.9542 39.9719 55.6086 39.9719 55.1823C39.9719 54.756 40.3175 54.4103 40.7438 54.4103ZM40.7438 62.7847H42.6336C43.0599 62.7847 43.4056 63.1303 43.4056 63.5567C43.4056 63.983 43.0599 64.3286 42.6336 64.3286H40.7438C40.3175 64.3286 39.9719 63.983 39.9719 63.5567C39.9719 63.1303 40.3175 62.7847 40.7438 62.7847ZM40.7438 71.1589H42.6336C43.0599 71.1589 43.4056 71.5045 43.4056 71.9308C43.4056 72.3572 43.0599 72.7028 42.6336 72.7028H40.7438C40.3175 72.7028 39.9719 72.3572 39.9719 71.9308C39.9719 71.5045 40.3175 71.1589 40.7438 71.1589ZM32.338 37.6618H34.2277C34.6541 37.6618 34.9997 38.0074 34.9997 38.4338C34.9997 38.8601 34.6541 39.2057 34.2277 39.2057H32.338C31.9117 39.2057 31.566 38.8601 31.566 38.4338C31.5663 38.0074 31.9119 37.6618 32.338 37.6618ZM32.338 46.0362H34.2277C34.6541 46.0362 34.9997 46.3818 34.9997 46.8081C34.9997 47.2345 34.6541 47.5801 34.2277 47.5801H32.338C31.9117 47.5801 31.566 47.2345 31.566 46.8081C31.5663 46.3816 31.9119 46.0362 32.338 46.0362ZM32.338 54.4103H34.2277C34.6541 54.4103 34.9997 54.756 34.9997 55.1823C34.9997 55.6086 34.6541 55.9542 34.2277 55.9542H32.338C31.9117 55.9542 31.566 55.6086 31.566 55.1823C31.5663 54.756 31.9119 54.4103 32.338 54.4103ZM32.338 62.7847H34.2277C34.6541 62.7847 34.9997 63.1303 34.9997 63.5567C34.9997 63.983 34.6541 64.3286 34.2277 64.3286H32.338C31.9117 64.3286 31.566 63.983 31.566 63.5567C31.5663 63.1303 31.9119 62.7847 32.338 62.7847ZM32.338 71.1589H34.2277C34.6541 71.1589 34.9997 71.5045 34.9997 71.9308C34.9997 72.3572 34.6541 72.7028 34.2277 72.7028H32.338C31.9117 72.7028 31.566 72.3572 31.566 71.9308C31.5663 71.5045 31.9119 71.1589 32.338 71.1589Z" fill="#1A1A1A" fill-opacity="0.7"/>
</g>
<defs>
<clipPath id="clip0_1_3876">
<rect width="120" height="120" fill="white"/>
</clipPath>
</defs>
</svg>
