<svg width="120" height="120" viewBox="0 0 120 120" fill="none" xmlns="http://www.w3.org/2000/svg">
<g clip-path="url(#clip0_1_3800)">
<path d="M101.094 101.223C123.761 78.5554 123.761 41.8039 101.094 19.1363C78.426 -3.53138 41.6744 -3.53138 19.0068 19.1363C-3.66086 41.8039 -3.66086 78.5555 19.0068 101.223C41.6744 123.891 78.426 123.891 101.094 101.223Z" fill="#E8B586"/>
<path fill-rule="evenodd" clip-rule="evenodd" d="M15.0746 23.9807L14.9189 23.6848C15.0516 23.5209 15.1828 23.3558 15.3172 23.1934L15.0746 23.9807Z" fill="#E4AB75"/>
<path fill-rule="evenodd" clip-rule="evenodd" d="M2.01221 60.3594L3.30221 62.6247L2.31684 66.1774C2.1205 64.2643 2.01806 62.3233 2.01221 60.3594Z" fill="#EDC5A0"/>
<path fill-rule="evenodd" clip-rule="evenodd" d="M3.30245 62.6239L2.01245 60.3585C2.01221 60.2987 2.01025 60.2392 2.01025 60.1795C2.01025 59.2648 2.03391 58.3558 2.07586 57.4512L3.30245 62.6239Z" fill="#EBC097"/>
<path fill-rule="evenodd" clip-rule="evenodd" d="M21.0259 103.148L34.6376 100.623L33.0678 111.583C28.6956 109.282 24.6505 106.443 21.0259 103.148Z" fill="#F3D7BD"/>
<path fill-rule="evenodd" clip-rule="evenodd" d="M15.5923 97.4923L25.5811 58.3301L34.6381 100.624L21.0262 103.149C19.0901 101.389 17.2759 99.4969 15.5923 97.4923Z" fill="#F1D3B5"/>
<path fill-rule="evenodd" clip-rule="evenodd" d="M25.5809 58.3291L3.69922 46.2393C4.03897 44.8615 4.42776 43.5032 4.86361 42.1661L26.8504 37.291L25.5809 58.3291Z" fill="#ECC59E"/>
<path fill-rule="evenodd" clip-rule="evenodd" d="M14.9189 23.6855L15.0745 23.9814L14.6279 24.047C14.7243 23.926 14.8216 23.8058 14.9189 23.6855Z" fill="#E5AD77"/>
<path fill-rule="evenodd" clip-rule="evenodd" d="M14.6276 24.0461L15.0742 23.9805L11.8213 27.8785C12.7052 26.5617 13.642 25.2836 14.6276 24.0461Z" fill="#E8B586"/>
<path fill-rule="evenodd" clip-rule="evenodd" d="M11.8216 27.8785L15.0745 23.9805L26.8506 37.2912L4.86377 42.1663C6.53084 37.0558 8.88499 32.2558 11.8216 27.8785Z" fill="#EABC90"/>
<path fill-rule="evenodd" clip-rule="evenodd" d="M3.30227 62.6249L2.07568 57.4522C2.25373 53.6049 2.80788 49.8563 3.6991 46.2402L25.5808 58.33L3.30227 62.6249Z" fill="#EDC5A0"/>
<path fill-rule="evenodd" clip-rule="evenodd" d="M3.82666 74.6435L25.5808 58.3301L15.592 97.4923C10.0957 90.9481 6.01471 83.1757 3.82666 74.6435Z" fill="#F0D0B2"/>
<path fill-rule="evenodd" clip-rule="evenodd" d="M2.31689 66.1774L3.3025 62.625L25.581 58.3301L3.82665 74.6435C3.12177 71.8947 2.61348 69.0674 2.31689 66.1774Z" fill="#EFCCAA"/>
<path fill-rule="evenodd" clip-rule="evenodd" d="M49.1284 81.7296L25.5811 58.3291L41.1598 53.8203L49.1284 81.7296Z" fill="#F1D2B5"/>
<path fill-rule="evenodd" clip-rule="evenodd" d="M41.1599 53.8221L26.8506 37.2926L36.8123 20.1172L41.1599 53.8221Z" fill="#ECC39C"/>
<path fill-rule="evenodd" clip-rule="evenodd" d="M25.5811 58.3293L26.8506 37.291L41.1598 53.8205L25.5811 58.3293Z" fill="#EECBA9"/>
<path fill-rule="evenodd" clip-rule="evenodd" d="M82.0973 46.3078L70.5049 25.4839L90.5154 10.75C91.3507 11.2659 92.1717 11.8024 92.9783 12.3588L82.0973 46.3078Z" fill="#EABB8E"/>
<path fill-rule="evenodd" clip-rule="evenodd" d="M15.0742 23.98L15.3169 23.1927C18.234 19.6678 21.5598 16.4939 25.221 13.7422L36.812 20.1154L15.0742 23.98Z" fill="#E6B07D"/>
<path fill-rule="evenodd" clip-rule="evenodd" d="M26.8503 37.2926L15.0742 23.9818L36.812 20.1172L26.8503 37.2926Z" fill="#E9B98C"/>
<path fill-rule="evenodd" clip-rule="evenodd" d="M36.8122 20.1161L25.2212 13.743C28.7475 11.093 32.5863 8.83808 36.6707 7.03711L36.8122 20.1161Z" fill="#E5AD77"/>
<path fill-rule="evenodd" clip-rule="evenodd" d="M34.6381 100.624L25.5811 58.3301L49.1284 81.7306L34.6381 100.624Z" fill="#F2D4B9"/>
<path fill-rule="evenodd" clip-rule="evenodd" d="M76.481 76.1488L61.2671 65.8447L82.0973 46.3086L76.481 76.1488Z" fill="#F0D1B3"/>
<path fill-rule="evenodd" clip-rule="evenodd" d="M33.0684 111.583L34.6381 100.623L45.2025 116.309C40.9467 115.185 36.8825 113.59 33.0684 111.583Z" fill="#F3D9C0"/>
<path fill-rule="evenodd" clip-rule="evenodd" d="M61.2671 65.8444L70.5051 25.4844L82.0973 46.3083L61.2671 65.8444Z" fill="#EDC8A5"/>
<path fill-rule="evenodd" clip-rule="evenodd" d="M36.8121 20.1163L36.6709 7.03727C38.6965 6.14434 40.7819 5.36166 42.9209 4.70117L61.9909 8.73703L36.8121 20.1163Z" fill="#E5AD79"/>
<path fill-rule="evenodd" clip-rule="evenodd" d="M49.1282 81.7296L41.1597 53.8203L61.267 65.8432L49.1282 81.7296Z" fill="#F1D3B5"/>
<path fill-rule="evenodd" clip-rule="evenodd" d="M63.8026 117.152L34.6382 100.624L49.1284 81.7305L63.8026 117.152Z" fill="#F3DAC2"/>
<path fill-rule="evenodd" clip-rule="evenodd" d="M45.2026 116.309L34.6382 100.623L63.8026 117.151L61.7448 118.206C61.1862 118.222 60.626 118.232 60.0635 118.232C54.9262 118.233 49.946 117.562 45.2026 116.309Z" fill="#F3DCC4"/>
<path fill-rule="evenodd" clip-rule="evenodd" d="M61.267 65.8444L41.1597 53.8215L70.505 25.4844L61.267 65.8444Z" fill="#EECBA9"/>
<path fill-rule="evenodd" clip-rule="evenodd" d="M41.1596 53.8221L36.812 20.1172L70.5049 25.485L41.1596 53.8221Z" fill="#EBC097"/>
<path fill-rule="evenodd" clip-rule="evenodd" d="M70.5049 25.4834L36.812 20.1156L61.9906 8.73633L70.5049 25.4834Z" fill="#E8B585"/>
<path fill-rule="evenodd" clip-rule="evenodd" d="M61.7446 118.207L63.8024 117.152L64.2588 118.081C63.4254 118.141 62.5873 118.184 61.7446 118.207Z" fill="#F5E1CC"/>
<path fill-rule="evenodd" clip-rule="evenodd" d="M63.8026 117.152L49.1284 81.7305L74.8528 110.712L63.8026 117.152Z" fill="#F4DDC7"/>
<path fill-rule="evenodd" clip-rule="evenodd" d="M74.8528 110.712L49.1284 81.7306L76.4811 76.1484L74.8528 110.712Z" fill="#F3DAC2"/>
<path fill-rule="evenodd" clip-rule="evenodd" d="M64.2586 118.08L63.8022 117.151L74.8525 110.711L74.1798 116.5C70.9701 117.302 67.6552 117.838 64.2586 118.08Z" fill="#F6E3D0"/>
<path fill-rule="evenodd" clip-rule="evenodd" d="M49.1284 81.7301L61.2672 65.8438L76.4811 76.1479L49.1284 81.7301Z" fill="#F2D4B9"/>
<path fill-rule="evenodd" clip-rule="evenodd" d="M70.5054 25.4847L61.9912 8.73791L85.7485 8.10938C87.3827 8.91694 88.9732 9.7984 90.5159 10.7508L70.5054 25.4847Z" fill="#E6B17E"/>
<path fill-rule="evenodd" clip-rule="evenodd" d="M74.8525 110.712L76.4808 76.1484L93.5094 87.3128L74.8525 110.712Z" fill="#F3DCC4"/>
<path fill-rule="evenodd" clip-rule="evenodd" d="M61.9909 8.73663L42.9209 4.70077C43.6853 4.46492 44.4572 4.24589 45.2348 4.04102L83.4187 7.02077C84.2046 7.36663 84.9809 7.72906 85.7482 8.10809L61.9909 8.73663Z" fill="#E4AB75"/>
<path fill-rule="evenodd" clip-rule="evenodd" d="M101.478 100.856L93.5093 87.3134L105.283 74.4336L106.975 94.3775C105.301 96.6702 103.463 98.8353 101.478 100.856Z" fill="#F3DBC3"/>
<path fill-rule="evenodd" clip-rule="evenodd" d="M93.5095 87.3134L76.481 76.149L105.283 74.4336L93.5095 87.3134Z" fill="#F3D6BC"/>
<path fill-rule="evenodd" clip-rule="evenodd" d="M105.283 74.4323L82.0972 46.3074L106.875 25.8457C107.814 27.1245 108.703 28.4428 109.537 29.7981L105.283 74.4323Z" fill="#EDC6A2"/>
<path fill-rule="evenodd" clip-rule="evenodd" d="M82.0972 46.3086L92.9781 12.3594C98.3291 16.0494 103.029 20.614 106.874 25.8469L82.0972 46.3086Z" fill="#E9B98C"/>
<path fill-rule="evenodd" clip-rule="evenodd" d="M87.215 111.5L74.8525 110.712L93.5094 87.3125L101.478 100.855C97.3157 105.093 92.5089 108.694 87.215 111.5Z" fill="#F5E1CC"/>
<path fill-rule="evenodd" clip-rule="evenodd" d="M76.481 76.1488L82.0973 46.3086L105.283 74.4335L76.481 76.1488Z" fill="#F0D0B2"/>
<path fill-rule="evenodd" clip-rule="evenodd" d="M74.1802 116.5L74.8529 110.711L87.2153 111.5C83.1343 113.663 78.7655 115.355 74.1802 116.5Z" fill="#F7E6D6"/>
<path fill-rule="evenodd" clip-rule="evenodd" d="M68.9087 2.79671L49.1973 3.14671C52.7178 2.48012 56.349 2.12695 60.0631 2.12695C63.0707 2.1272 66.0246 2.35598 68.9087 2.79671Z" fill="#E3A56A"/>
<path fill-rule="evenodd" clip-rule="evenodd" d="M83.419 7.02127L45.2349 4.04151C46.5383 3.69834 47.86 3.40053 49.1973 3.14688L68.9088 2.79688C73.9927 3.57541 78.8588 5.01492 83.419 7.02127Z" fill="#E4AA73"/>
<path fill-rule="evenodd" clip-rule="evenodd" d="M105.283 74.433L109.537 29.7988C114.857 38.443 117.972 48.5871 118.107 59.4496L105.283 74.433Z" fill="#ECC49D"/>
<path fill-rule="evenodd" clip-rule="evenodd" d="M105.283 74.4326L118.107 59.4492C118.11 59.6929 118.116 59.9356 118.116 60.1797C118.116 64.1102 117.723 67.9487 116.979 71.66L105.283 74.4326Z" fill="#EDC7A3"/>
<path fill-rule="evenodd" clip-rule="evenodd" d="M106.975 94.3775L105.283 74.4336L113.847 82.0599C112.054 86.4609 109.739 90.5926 106.975 94.3775Z" fill="#F3D9C0"/>
<path fill-rule="evenodd" clip-rule="evenodd" d="M113.847 82.0589L105.283 74.4326L116.979 71.6602C116.256 75.2577 115.201 78.7348 113.847 82.0589Z" fill="#F0D1B3"/>
<path d="M60.0629 0.316406C76.5941 0.316406 91.5602 7.01714 102.394 17.8508C113.228 28.6842 119.928 43.6506 119.928 60.1818C119.928 76.713 113.228 91.6791 102.394 102.512C91.5602 113.346 76.5941 120.047 60.0629 120.047C43.5317 120.047 28.5656 113.346 17.7319 102.512C6.89849 91.6788 0.197754 76.7125 0.197754 60.1815C0.197754 43.6505 6.89849 28.6842 17.7319 17.8506C28.5656 7.01689 43.5317 0.316406 60.0629 0.316406ZM99.8285 20.4159C89.6516 10.2391 75.5924 3.9447 60.0629 3.9447C44.5334 3.9447 30.4741 10.2391 20.2973 20.4159C10.1204 30.5927 3.82605 44.652 3.82605 60.1815C3.82605 75.711 10.1207 89.7703 20.2973 99.9471C30.4741 110.124 44.5334 116.418 60.0629 116.418C75.5924 116.418 89.6516 110.124 99.8285 99.9471C110.005 89.7703 116.3 75.711 116.3 60.1815C116.3 44.652 110.005 30.5925 99.8285 20.4159Z" fill="#1A1A1A" fill-opacity="0.7"/>
<path fill-rule="evenodd" clip-rule="evenodd" d="M60.0498 86.4524C59.3115 86.1465 58.4652 86.497 58.1594 87.2355C57.8535 87.9738 58.2042 88.8202 58.9423 89.126C59.6806 89.4319 60.5269 89.0814 60.8328 88.3431C61.1386 87.6045 60.7881 86.7582 60.0498 86.4524Z" fill="#1A1A1A" fill-opacity="0.7"/>
<path fill-rule="evenodd" clip-rule="evenodd" d="M77.1441 83.0195C76.3465 83.0195 75.6978 83.6683 75.6978 84.4664C75.6978 85.2644 76.3465 85.9132 77.1441 85.9132C77.9419 85.9132 78.5909 85.2642 78.5909 84.4664C78.5909 83.6683 77.9421 83.0195 77.1441 83.0195Z" fill="#1A1A1A" fill-opacity="0.7"/>
<path fill-rule="evenodd" clip-rule="evenodd" d="M93.7383 73.0625C92.9442 73.0625 92.2974 73.7062 92.292 74.4998V74.5186C92.2964 75.3118 92.9432 75.9557 93.7383 75.9557C94.5364 75.9557 95.1852 75.3069 95.1852 74.5093C95.1852 73.7115 94.5364 73.0625 93.7383 73.0625Z" fill="#1A1A1A" fill-opacity="0.7"/>
<path fill-rule="evenodd" clip-rule="evenodd" d="M42.9825 83.0195C42.1847 83.0195 41.5356 83.6683 41.5356 84.4664C41.5356 85.2644 42.1844 85.9132 42.9825 85.9132C43.7795 85.9132 44.4278 85.2647 44.4288 84.4669V84.4664C44.4288 83.6683 43.7798 83.0195 42.9825 83.0195Z" fill="#1A1A1A" fill-opacity="0.7"/>
<path fill-rule="evenodd" clip-rule="evenodd" d="M26.3882 73.0625C25.5902 73.0625 24.9414 73.7113 24.9414 74.5093C24.9414 75.3069 25.5904 75.9557 26.3882 75.9557C27.186 75.9557 27.8351 75.3069 27.8351 74.5093V74.5088C27.8346 73.7115 27.1856 73.0625 26.3882 73.0625Z" fill="#1A1A1A" fill-opacity="0.7"/>
<path fill-rule="evenodd" clip-rule="evenodd" d="M64.9414 42.5293H69.9009V48.0798H64.9414V42.5293Z" fill="#1A1A1A" fill-opacity="0.7"/>
<path fill-rule="evenodd" clip-rule="evenodd" d="M41.9697 42.5293H46.9288V48.0798H41.9697V42.5293Z" fill="#1A1A1A" fill-opacity="0.7"/>
<path fill-rule="evenodd" clip-rule="evenodd" d="M30.3431 31.125L25.9697 35.7411H94.4873L91.3053 31.125H30.3431Z" fill="#1A1A1A" fill-opacity="0.7"/>
<path fill-rule="evenodd" clip-rule="evenodd" d="M30.4834 42.5293H35.4429V48.0798H30.4834V42.5293Z" fill="#1A1A1A" fill-opacity="0.7"/>
<path fill-rule="evenodd" clip-rule="evenodd" d="M53.4551 42.5293H58.4146V48.0798H53.4551V42.5293Z" fill="#1A1A1A" fill-opacity="0.7"/>
<path fill-rule="evenodd" clip-rule="evenodd" d="M76.4272 42.5293H81.3863V48.0798H76.4272V42.5293Z" fill="#1A1A1A" fill-opacity="0.7"/>
<path fill-rule="evenodd" clip-rule="evenodd" d="M95.1851 37.2852H24.9473V53.3239H95.1851V37.2852ZM36.987 48.8515C36.987 49.2778 36.6414 49.6235 36.2151 49.6235H29.7117C29.2853 49.6235 28.9397 49.2778 28.9397 48.8515V41.7571C28.9397 41.3308 29.2853 40.9852 29.7117 40.9852H36.2151C36.6414 40.9852 36.987 41.3308 36.987 41.7571V48.8515ZM48.4724 48.8515C48.4724 49.2778 48.1268 49.6235 47.7004 49.6235H41.1975C40.7712 49.6235 40.4256 49.2778 40.4256 48.8515V41.7571C40.4256 41.3308 40.7712 40.9852 41.1975 40.9852H47.7004C48.1268 40.9852 48.4724 41.3308 48.4724 41.7571V48.8515ZM59.9585 48.8515C59.9585 49.2778 59.6129 49.6235 59.1865 49.6235H52.6831C52.2568 49.6235 51.9112 49.2778 51.9112 48.8515V41.7571C51.9112 41.3308 52.2568 40.9852 52.6831 40.9852H59.1865C59.6129 40.9852 59.9585 41.3308 59.9585 41.7571V48.8515ZM71.4446 48.8515C71.4446 49.2778 71.099 49.6235 70.6726 49.6235H64.1695C63.7431 49.6235 63.3975 49.2778 63.3975 48.8515V41.7571C63.3975 41.3308 63.7431 40.9852 64.1695 40.9852H70.6729C71.0992 40.9852 71.4448 41.3308 71.4448 41.7571L71.4446 48.8515ZM82.9302 48.8515C82.9302 49.2778 82.5846 49.6235 82.1582 49.6235H75.6556C75.2292 49.6235 74.8836 49.2778 74.8836 48.8515V41.7571C74.8836 41.3308 75.2292 40.9852 75.6556 40.9852H82.1585C82.5848 40.9852 82.9304 41.3308 82.9304 41.7571L82.9302 48.8515ZM87.1475 47.8356H86.7041C86.2777 47.8356 85.9321 47.49 85.9321 47.0637C85.9321 46.6374 86.2777 46.2917 86.7041 46.2917H87.1475C87.5738 46.2917 87.9195 46.6374 87.9195 47.0637C87.9195 47.49 87.5741 47.8356 87.1475 47.8356ZM87.1475 44.3142H86.7041C86.2777 44.3142 85.9321 43.9686 85.9321 43.5422C85.9321 43.1159 86.2777 42.7703 86.7041 42.7703H87.1475C87.5738 42.7703 87.9195 43.1159 87.9195 43.5422C87.9195 43.9686 87.5741 44.3142 87.1475 44.3142ZM91.2485 47.8356H90.8046C90.3782 47.8356 90.0326 47.49 90.0326 47.0637C90.0326 46.6374 90.3782 46.2917 90.8046 46.2917H91.2485C91.6748 46.2917 92.0204 46.6374 92.0204 47.0637C92.0202 47.49 91.6748 47.8356 91.2485 47.8356ZM91.2485 44.3142H90.8046C90.3782 44.3142 90.0326 43.9686 90.0326 43.5422C90.0326 43.1159 90.3782 42.7703 90.8046 42.7703H91.2485C91.6748 42.7703 92.0204 43.1159 92.0204 43.5422C92.0202 43.9686 91.6748 44.3142 91.2485 44.3142Z" fill="#1A1A1A" fill-opacity="0.7"/>
<path fill-rule="evenodd" clip-rule="evenodd" d="M37.1683 57.3496C36.7417 57.3496 36.3964 57.695 36.3964 58.1216V73.7386H29.2773C29.3434 73.9847 29.3786 74.2433 29.3786 74.5101V74.5111C29.3786 74.7779 29.3434 75.0364 29.2776 75.2825H37.1681C37.5947 75.2825 37.94 74.9372 37.94 74.5106V58.1216C37.9403 57.695 37.5949 57.3496 37.1683 57.3496Z" fill="#1A1A1A" fill-opacity="0.7"/>
<path fill-rule="evenodd" clip-rule="evenodd" d="M60.2656 84.9001V58.1216C60.2656 57.695 59.92 57.3496 59.4936 57.3496C59.067 57.3496 58.7217 57.695 58.7217 58.1216V84.9001C58.9678 84.834 59.2268 84.7989 59.4936 84.7989C59.7605 84.7989 60.0197 84.834 60.2656 84.9001Z" fill="#1A1A1A" fill-opacity="0.7"/>
<path fill-rule="evenodd" clip-rule="evenodd" d="M74.2549 83.6964H71.7919V58.1216C71.7919 57.695 71.4466 57.3496 71.02 57.3496C70.5937 57.3496 70.248 57.695 70.248 58.1216V84.4681C70.248 84.8947 70.5934 85.2401 71.02 85.2401H74.2554C74.1893 84.9938 74.1541 84.735 74.1541 84.4677C74.1539 84.2011 74.1893 83.9425 74.2549 83.6964Z" fill="#1A1A1A" fill-opacity="0.7"/>
<path fill-rule="evenodd" clip-rule="evenodd" d="M90.8497 73.7386H83.7304V58.1216C83.7304 57.695 83.3851 57.3496 82.9585 57.3496C82.5321 57.3496 82.1865 57.695 82.1865 58.1216V74.5106C82.1865 74.9372 82.5319 75.2825 82.9585 75.2825H90.8487C90.7831 75.0364 90.748 74.7779 90.748 74.5111C90.7477 74.244 90.7831 73.9852 90.8497 73.7386Z" fill="#1A1A1A" fill-opacity="0.7"/>
<path fill-rule="evenodd" clip-rule="evenodd" d="M49.1065 57.3496C48.6799 57.3496 48.3345 57.695 48.3345 58.1216V83.6964H45.8716C45.9372 83.9425 45.9723 84.2011 45.9723 84.4679V84.4684C45.9723 84.7352 45.9372 84.9942 45.8711 85.2403H49.1065C49.533 85.2403 49.8784 84.895 49.8784 84.4684V58.1216C49.8787 57.695 49.533 57.3496 49.1065 57.3496Z" fill="#1A1A1A" fill-opacity="0.7"/>
</g>
<defs>
<clipPath id="clip0_1_3800">
<rect width="120" height="120" fill="white"/>
</clipPath>
</defs>
</svg>
