<svg width="42" height="28" viewBox="0 0 42 28" fill="none" xmlns="http://www.w3.org/2000/svg">
<path fill-rule="evenodd" clip-rule="evenodd" d="M39.6667 4.67048H36.9367C36.4546 3.30479 35.5606 2.1222 34.3779 1.2857C33.1953 0.449207 31.7821 0 30.3333 0C28.8845 0 27.4714 0.449207 26.2887 1.2857C25.1061 2.1222 24.2121 3.30479 23.73 4.67048H2.33333C1.71449 4.67048 1.121 4.91621 0.683417 5.35362C0.245833 5.79102 0 6.38427 0 7.00286C0 7.62144 0.245833 8.21469 0.683417 8.6521C1.121 9.0895 1.71449 9.33524 2.33333 9.33524H23.73C24.2121 10.7009 25.1061 11.8835 26.2887 12.72C27.4714 13.5565 28.8845 14.0057 30.3333 14.0057C31.7821 14.0057 33.1953 13.5565 34.3779 12.72C35.5606 11.8835 36.4546 10.7009 36.9367 9.33524H39.6667C40.2855 9.33524 40.879 9.0895 41.3166 8.6521C41.7542 8.21469 42 7.62144 42 7.00286C42 6.38427 41.7542 5.79102 41.3166 5.35362C40.879 4.91621 40.2855 4.67048 39.6667 4.67048ZM30.3333 9.33524C30.9522 9.33524 31.5457 9.0895 31.9832 8.6521C32.4208 8.21469 32.6667 7.62144 32.6667 7.00286C32.6667 6.38427 32.4208 5.79102 31.9832 5.35362C31.5457 4.91621 30.9522 4.67048 30.3333 4.67048C29.7145 4.67048 29.121 4.91621 28.6834 5.35362C28.2458 5.79102 28 6.38427 28 7.00286C28 7.62144 28.2458 8.21469 28.6834 8.6521C29.121 9.0895 29.7145 9.33524 30.3333 9.33524ZM0 20.9971C0 20.3786 0.245833 19.7853 0.683417 19.3479C1.121 18.9105 1.71449 18.6648 2.33333 18.6648H5.06333C5.5454 17.2991 6.43939 16.1165 7.62207 15.28C8.80474 14.4435 10.2179 13.9943 11.6667 13.9943C13.1155 13.9943 14.5286 14.4435 15.7113 15.28C16.8939 16.1165 17.7879 17.2991 18.27 18.6648H39.6667C40.2855 18.6648 40.879 18.9105 41.3166 19.3479C41.7542 19.7853 42 20.3786 42 20.9971C42 21.6157 41.7542 22.209 41.3166 22.6464C40.879 23.0838 40.2855 23.3295 39.6667 23.3295H18.27C17.7879 24.6952 16.8939 25.8778 15.7113 26.7143C14.5286 27.5508 13.1155 28 11.6667 28C10.2179 28 8.80474 27.5508 7.62207 26.7143C6.43939 25.8778 5.5454 24.6952 5.06333 23.3295H2.33333C1.71449 23.3295 1.121 23.0838 0.683417 22.6464C0.245833 22.209 0 21.6157 0 20.9971ZM11.6667 23.3295C12.2855 23.3295 12.879 23.0838 13.3166 22.6464C13.7542 22.209 14 21.6157 14 20.9971C14 20.3786 13.7542 19.7853 13.3166 19.3479C12.879 18.9105 12.2855 18.6648 11.6667 18.6648C11.0478 18.6648 10.4543 18.9105 10.0168 19.3479C9.57917 19.7853 9.33333 20.3786 9.33333 20.9971C9.33333 21.6157 9.57917 22.209 10.0168 22.6464C10.4543 23.0838 11.0478 23.3295 11.6667 23.3295Z" fill="#DC7B91"/>
</svg>
