<svg width="120" height="120" viewBox="0 0 120 120" fill="none" xmlns="http://www.w3.org/2000/svg">
<g clip-path="url(#clip0_1_3941)">
<path d="M101.094 101.223C123.762 78.5554 123.762 41.8039 101.094 19.1363C78.4265 -3.53138 41.6749 -3.53139 19.0073 19.1363C-3.66037 41.8039 -3.66037 78.5555 19.0073 101.223C41.6749 123.891 78.4265 123.891 101.094 101.223Z" fill="#CFCB88"/>
<path fill-rule="evenodd" clip-rule="evenodd" d="M15.0721 23.9799L14.9177 23.686C15.0497 23.5231 15.1799 23.3587 15.3136 23.1973L15.0721 23.9799Z" fill="#D8D277"/>
<path fill-rule="evenodd" clip-rule="evenodd" d="M2.0127 60.3613L3.30123 62.624L2.31684 66.1728C2.12074 64.2618 2.01855 62.3228 2.0127 60.3613Z" fill="#E4E0A2"/>
<path fill-rule="evenodd" clip-rule="evenodd" d="M3.30123 62.6236L2.01269 60.3609C2.01245 60.3002 2.0105 60.24 2.0105 60.1792C2.0105 59.2665 2.03416 58.3595 2.07586 57.457L3.30123 62.6236Z" fill="#E3DD99"/>
<path fill-rule="evenodd" clip-rule="evenodd" d="M21.0261 103.148L34.639 100.623L33.0686 111.583C28.6959 109.282 24.6508 106.443 21.0261 103.148Z" fill="#EDEABE"/>
<path fill-rule="evenodd" clip-rule="evenodd" d="M15.5908 97.4908L25.5801 58.3301L34.6394 100.624L21.0264 103.149C19.0896 101.388 17.275 99.4962 15.5908 97.4908Z" fill="#EBE7B7"/>
<path fill-rule="evenodd" clip-rule="evenodd" d="M25.5797 58.3293L3.69897 46.2405C4.03873 44.8622 4.42776 43.5032 4.86385 42.1657L26.8482 37.291L25.5797 58.3293Z" fill="#E4E0A1"/>
<path fill-rule="evenodd" clip-rule="evenodd" d="M14.9179 23.6855L15.0723 23.9794L14.6287 24.0446C14.7245 23.9243 14.8213 23.8048 14.9179 23.6855Z" fill="#D9D37A"/>
<path fill-rule="evenodd" clip-rule="evenodd" d="M14.6291 24.0456L15.0728 23.9805L11.8318 27.8644C12.7128 26.5522 13.6467 25.279 14.6291 24.0456Z" fill="#DDD889"/>
<path fill-rule="evenodd" clip-rule="evenodd" d="M11.8316 27.8644L15.0726 23.9805L26.8489 37.2912L4.86426 42.1658C6.53328 37.05 8.89036 32.2453 11.8316 27.8644Z" fill="#E0DB93"/>
<path fill-rule="evenodd" clip-rule="evenodd" d="M3.30129 62.6239L2.07593 57.4573C2.25373 53.6083 2.80764 49.8578 3.69934 46.2402L25.5801 58.329L3.30129 62.6239Z" fill="#E4E0A2"/>
<path fill-rule="evenodd" clip-rule="evenodd" d="M3.8269 74.6428L25.5801 58.3301L15.5908 97.4908C10.0952 90.9469 6.01447 83.1747 3.8269 74.6428Z" fill="#EAE5B4"/>
<path fill-rule="evenodd" clip-rule="evenodd" d="M2.31616 66.1718L3.30055 62.623L25.5793 58.3281L3.82616 74.6408C3.12128 71.8913 2.61275 69.063 2.31616 66.1718Z" fill="#E8E4AC"/>
<path fill-rule="evenodd" clip-rule="evenodd" d="M49.1274 81.7296L25.5798 58.3288L41.1559 53.8203L49.1274 81.7296Z" fill="#EBE7B6"/>
<path fill-rule="evenodd" clip-rule="evenodd" d="M41.156 53.8204L26.8486 37.2906L36.8133 20.1152L41.156 53.8204Z" fill="#E4DF9E"/>
<path fill-rule="evenodd" clip-rule="evenodd" d="M25.5798 58.3293L26.8486 37.291L41.1559 53.8208L25.5798 58.3293Z" fill="#E7E3AB"/>
<path fill-rule="evenodd" clip-rule="evenodd" d="M82.0971 46.3083L70.5046 25.4841L90.5149 10.75C91.3502 11.2656 92.1712 11.8022 92.9778 12.3585L82.0971 46.3083Z" fill="#E0DB91"/>
<path fill-rule="evenodd" clip-rule="evenodd" d="M15.072 23.9797L15.3132 23.1971C18.231 19.6702 21.5581 16.4951 25.2213 13.7422L36.813 20.1151L15.072 23.9797Z" fill="#DBD580"/>
<path fill-rule="evenodd" clip-rule="evenodd" d="M26.8481 37.2906L15.072 23.9799L36.8128 20.1152L26.8481 37.2906Z" fill="#DFDA8E"/>
<path fill-rule="evenodd" clip-rule="evenodd" d="M36.8131 20.1154L25.2214 13.7425C28.7473 11.0927 32.5861 8.83784 36.67 7.03711L36.8131 20.1154Z" fill="#D9D37A"/>
<path fill-rule="evenodd" clip-rule="evenodd" d="M34.6391 100.624L25.5798 58.3301L49.1274 81.7308L34.6391 100.624Z" fill="#ECE8BB"/>
<path fill-rule="evenodd" clip-rule="evenodd" d="M76.4825 76.1474L61.2664 65.8427L82.0968 46.3066L76.4825 76.1474Z" fill="#EAE6B5"/>
<path fill-rule="evenodd" clip-rule="evenodd" d="M33.0681 111.583L34.6386 100.623L45.1991 116.309C40.9447 115.184 36.8813 113.59 33.0681 111.583Z" fill="#EDEBC1"/>
<path fill-rule="evenodd" clip-rule="evenodd" d="M61.2664 65.8444L70.5044 25.4844L82.0968 46.3083L61.2664 65.8444Z" fill="#E5E2A6"/>
<path fill-rule="evenodd" clip-rule="evenodd" d="M36.8136 20.116L36.6707 7.03776C38.6968 6.14459 40.7826 5.3619 42.9221 4.70117L61.9904 8.73678L36.8136 20.116Z" fill="#DAD37C"/>
<path fill-rule="evenodd" clip-rule="evenodd" d="M49.1272 81.7296L41.1558 53.8203L61.266 65.843L49.1272 81.7296Z" fill="#EBE7B7"/>
<path fill-rule="evenodd" clip-rule="evenodd" d="M63.8018 117.152L34.6394 100.624L49.1277 81.7305L63.8018 117.152Z" fill="#EDEBC3"/>
<path fill-rule="evenodd" clip-rule="evenodd" d="M45.1999 116.309L34.6394 100.623L63.8018 117.152L61.7433 118.207C61.1853 118.223 60.6257 118.233 60.0638 118.233C54.9255 118.233 49.9443 117.562 45.1999 116.309Z" fill="#EFECC5"/>
<path fill-rule="evenodd" clip-rule="evenodd" d="M61.266 65.8424L41.1558 53.8197L70.5041 25.4824L61.266 65.8424Z" fill="#E7E3AB"/>
<path fill-rule="evenodd" clip-rule="evenodd" d="M41.1559 53.8204L36.8132 20.1152L70.5042 25.483L41.1559 53.8204Z" fill="#E3DD99"/>
<path fill-rule="evenodd" clip-rule="evenodd" d="M70.5042 25.4834L36.8132 20.1156L61.9901 8.73633L70.5042 25.4834Z" fill="#DDD786"/>
<path fill-rule="evenodd" clip-rule="evenodd" d="M61.7429 118.207L63.8015 117.152L64.2578 118.081C63.4241 118.141 62.5858 118.184 61.7429 118.207Z" fill="#F1EFCE"/>
<path fill-rule="evenodd" clip-rule="evenodd" d="M63.8018 117.152L49.1277 81.7305L74.8521 110.712L63.8018 117.152Z" fill="#EFECC8"/>
<path fill-rule="evenodd" clip-rule="evenodd" d="M74.8521 110.712L49.1277 81.7304L76.4826 76.1484L74.8521 110.712Z" fill="#EDEBC3"/>
<path fill-rule="evenodd" clip-rule="evenodd" d="M64.2579 118.08L63.8015 117.151L74.8518 110.711L74.1791 116.501C70.9693 117.302 67.6542 117.838 64.2579 118.08Z" fill="#F2EFD1"/>
<path fill-rule="evenodd" clip-rule="evenodd" d="M49.1277 81.7303L61.2665 65.8438L76.4826 76.1484L49.1277 81.7303Z" fill="#ECE8BB"/>
<path fill-rule="evenodd" clip-rule="evenodd" d="M70.5041 25.483L61.99 8.73596L85.7473 8.10742C87.3812 8.91498 88.9719 9.79645 90.5146 10.7489L70.5041 25.483Z" fill="#DBD581"/>
<path fill-rule="evenodd" clip-rule="evenodd" d="M74.8513 110.712L76.4818 76.1484L93.5077 87.3126L74.8513 110.712Z" fill="#EFECC5"/>
<path fill-rule="evenodd" clip-rule="evenodd" d="M61.9899 8.73662L42.9216 4.70102C43.6863 4.46516 44.4585 4.24614 45.2363 4.04102L83.4177 7.02053C84.2033 7.36638 84.9802 7.72882 85.7472 8.10784L61.9899 8.73662Z" fill="#D8D277"/>
<path fill-rule="evenodd" clip-rule="evenodd" d="M101.478 100.855L93.5076 87.3114L105.282 74.4316L106.975 94.376C105.3 96.6685 103.463 98.8338 101.478 100.855Z" fill="#EEECC5"/>
<path fill-rule="evenodd" clip-rule="evenodd" d="M93.508 87.3114L76.4822 76.1472L105.282 74.4316L93.508 87.3114Z" fill="#ECE9BD"/>
<path fill-rule="evenodd" clip-rule="evenodd" d="M105.282 74.4333L82.0967 46.3081L106.874 25.8457C107.814 27.1242 108.702 28.4418 109.536 29.7969L105.282 74.4333Z" fill="#E5E0A4"/>
<path fill-rule="evenodd" clip-rule="evenodd" d="M82.0967 46.3072L92.9774 12.3574C98.3286 16.0474 103.029 20.6121 106.874 25.8447L82.0967 46.3072Z" fill="#DFDA8E"/>
<path fill-rule="evenodd" clip-rule="evenodd" d="M87.215 111.501L74.8513 110.712L93.5077 87.3125L101.478 100.856C97.3155 105.093 92.5086 108.694 87.215 111.501Z" fill="#F1EFCE"/>
<path fill-rule="evenodd" clip-rule="evenodd" d="M76.4822 76.1474L82.0966 46.3066L105.282 74.4318L76.4822 76.1474Z" fill="#EAE5B4"/>
<path fill-rule="evenodd" clip-rule="evenodd" d="M74.1794 116.501L74.8521 110.711L87.2158 111.5C83.1346 113.664 78.7655 115.355 74.1794 116.501Z" fill="#F3F2D6"/>
<path fill-rule="evenodd" clip-rule="evenodd" d="M68.9051 2.79598L49.2009 3.14598C52.7202 2.47964 56.3502 2.12695 60.0631 2.12695C63.0692 2.12695 66.0219 2.35525 68.9051 2.79598Z" fill="#D5CE6E"/>
<path fill-rule="evenodd" clip-rule="evenodd" d="M83.4175 7.02151L45.2361 4.04175C46.5402 3.69834 47.8627 3.40053 49.2007 3.14688L68.9049 2.79688C73.9897 3.57517 78.8566 5.01492 83.4175 7.02151Z" fill="#D8D277"/>
<path fill-rule="evenodd" clip-rule="evenodd" d="M105.282 74.4332L109.536 29.7969C114.857 38.4413 117.973 48.5852 118.107 59.4483L105.282 74.4332Z" fill="#E4DF9F"/>
<path fill-rule="evenodd" clip-rule="evenodd" d="M105.282 74.4321L118.107 59.4473C118.11 59.6914 118.117 59.9348 118.117 60.1797C118.117 64.11 117.724 67.9482 116.979 71.6595L105.282 74.4321Z" fill="#E5E1A5"/>
<path fill-rule="evenodd" clip-rule="evenodd" d="M106.975 94.376L105.282 74.4316L113.847 82.0592C112.054 86.4599 109.739 90.5914 106.975 94.376Z" fill="#EDEBC1"/>
<path fill-rule="evenodd" clip-rule="evenodd" d="M113.847 82.0606L105.282 74.4331L116.979 71.6602C116.256 75.2584 115.201 78.736 113.847 82.0606Z" fill="#EAE6B5"/>
<path d="M60.0634 0.316406C76.5946 0.316406 91.5607 7.01714 102.394 17.8508C113.228 28.6842 119.929 43.6506 119.929 60.1818C119.929 76.713 113.228 91.6791 102.394 102.513C91.5607 113.346 76.5946 120.047 60.0634 120.047C43.5321 120.047 28.566 113.346 17.7324 102.513C6.89898 91.6789 0.198242 76.7125 0.198242 60.1815C0.198242 43.6506 6.89898 28.6842 17.7324 17.8506C28.566 7.01689 43.5321 0.316406 60.0634 0.316406ZM99.829 20.4159C89.6521 10.2391 75.5929 3.9447 60.0634 3.9447C44.5339 3.9447 30.4746 10.2391 20.2978 20.4159C10.1209 30.5927 3.82653 44.652 3.82653 60.1815C3.82653 75.711 10.1212 89.7703 20.2978 99.9472C30.4746 110.124 44.5339 116.418 60.0634 116.418C75.5929 116.418 89.6521 110.124 99.829 99.9472C110.006 89.7703 116.3 75.711 116.3 60.1815C116.3 44.652 110.006 30.5925 99.829 20.4159Z" fill="#1A1A1A" fill-opacity="0.7"/>
<path fill-rule="evenodd" clip-rule="evenodd" d="M67.7268 79.9941L66.9175 81.5076C66.5121 82.2646 65.727 82.7351 64.8685 82.7351H55.2582C54.3995 82.7351 53.6143 82.2649 53.209 81.5078L52.3997 79.9941H24.9414V80.3661C24.9414 83.7978 27.7334 86.5895 31.1656 86.5895H88.9614C92.3934 86.5895 95.1855 83.7976 95.1855 80.3661V79.9941H67.7268Z" fill="#1A1A1A" fill-opacity="0.7"/>
<path fill-rule="evenodd" clip-rule="evenodd" d="M53.5429 78.859L54.57 80.78C54.7059 81.0339 54.9695 81.1917 55.2581 81.1917H64.8683C65.1563 81.1917 65.42 81.0339 65.5561 80.7795L66.5834 78.8586C66.7178 78.6076 66.9793 78.4507 67.2642 78.4507H92.1159V35.2627C92.1159 34.4393 91.4459 33.7695 90.6222 33.7695H29.5039C28.68 33.7695 28.0098 34.4393 28.0098 35.2627V78.451H52.862C53.1468 78.451 53.4085 78.6078 53.5429 78.859ZM33.6844 73.2208V39.3476C33.6844 38.9212 34.03 38.5756 34.4563 38.5756H85.6702C86.0966 38.5756 86.4422 38.9212 86.4422 39.3476V73.221C86.4422 73.6473 86.0966 73.9929 85.6702 73.9929H34.4563C34.03 73.9927 33.6844 73.6471 33.6844 73.2208Z" fill="#1A1A1A" fill-opacity="0.7"/>
</g>
<defs>
<clipPath id="clip0_1_3941">
<rect width="120" height="120" fill="white"/>
</clipPath>
</defs>
</svg>
