<svg width="64" height="56" viewBox="0 0 64 56" fill="none" xmlns="http://www.w3.org/2000/svg">
<g filter="url(#filter0_b_1_1300)">
<mask id="path-1-outside-1_1_1300" maskUnits="userSpaceOnUse" x="0" y="0.642578" width="62" height="56" fill="black">
<rect fill="white" y="0.642578" width="62" height="56"/>
<path d="M31.06 1.64258C13.63 1.64258 1 14.2666 1 28.2755C1 32.7498 2.47 37.3573 5.05 41.5653C5.53 42.2578 5.59 43.1367 5.26 43.9623L3.25 49.9281C2.8 51.3662 4.18 52.4315 5.71 52.0054L11.77 50.4074C13.42 49.9281 14.71 50.5406 16.243 51.3662C20.623 53.6567 26.08 54.8285 31 54.8285C45.88 54.8285 61 44.6281 61 28.1956C61 14.0269 48.1 1.64258 31.06 1.64258Z"/>
</mask>
<path d="M31.06 1.64258C13.63 1.64258 1 14.2666 1 28.2755C1 32.7498 2.47 37.3573 5.05 41.5653C5.53 42.2578 5.59 43.1367 5.26 43.9623L3.25 49.9281C2.8 51.3662 4.18 52.4315 5.71 52.0054L11.77 50.4074C13.42 49.9281 14.71 50.5406 16.243 51.3662C20.623 53.6567 26.08 54.8285 31 54.8285C45.88 54.8285 61 44.6281 61 28.1956C61 14.0269 48.1 1.64258 31.06 1.64258Z" fill="#6965A9" fill-opacity="0.5"/>
<path d="M31.06 2.64258C31.6123 2.64258 32.06 2.19486 32.06 1.64258C32.06 1.09029 31.6123 0.642578 31.06 0.642578V2.64258ZM5.05 41.5653L4.19748 42.088C4.20726 42.104 4.21749 42.1196 4.22815 42.135L5.05 41.5653ZM5.26 43.9623L4.33143 43.5911C4.32459 43.6082 4.31822 43.6255 4.31234 43.643L5.26 43.9623ZM3.25 49.9281L2.30234 49.6088C2.30003 49.6156 2.29779 49.6225 2.29563 49.6294L3.25 49.9281ZM5.71 52.0054L5.455 51.0384L5.4417 51.0421L5.71 52.0054ZM11.77 50.4074L12.025 51.3744C12.033 51.3723 12.041 51.3701 12.049 51.3677L11.77 50.4074ZM16.243 51.3662L15.7688 52.2467L15.7796 52.2524L16.243 51.3662ZM31.06 0.642578C30.5077 0.642578 30.06 1.09029 30.06 1.64258C30.06 2.19486 30.5077 2.64258 31.06 2.64258V0.642578ZM31.06 0.642578C13.1583 0.642578 0 13.637 0 28.2755H2C2 14.8961 14.1017 2.64258 31.06 2.64258V0.642578ZM0 28.2755C0 32.9664 1.53929 37.7525 4.19748 42.088L5.90252 41.0426C3.40071 36.9622 2 32.5333 2 28.2755H0ZM4.22815 42.135C4.49122 42.5145 4.5546 43.0328 4.33143 43.5911L6.18857 44.3334C6.6254 43.2406 6.56878 42.001 5.87185 40.9956L4.22815 42.135ZM4.31234 43.643L2.30234 49.6088L4.19766 50.2473L6.20766 44.2816L4.31234 43.643ZM2.29563 49.6294C1.94643 50.7454 2.31436 51.7933 3.10416 52.4397C3.86349 53.0612 4.93571 53.2591 5.9783 52.9688L5.4417 51.0421C4.95429 51.1778 4.57151 51.0562 4.37084 50.892C4.20064 50.7527 4.10357 50.5488 4.20437 50.2267L2.29563 49.6294ZM5.96498 52.9724L12.025 51.3744L11.515 49.4405L5.45502 51.0385L5.96498 52.9724ZM12.049 51.3677C13.2695 51.0131 14.2241 51.4147 15.7688 52.2467L16.7172 50.4858C15.1959 49.6665 13.5705 48.843 11.491 49.4472L12.049 51.3677ZM15.7796 52.2524C20.3209 54.6272 25.9406 55.8285 31 55.8285V53.8285C26.2194 53.8285 20.9251 52.6861 16.7064 50.4801L15.7796 52.2524ZM31 55.8285C46.233 55.8285 62 45.3605 62 28.1956H60C60 43.8957 45.527 53.8285 31 53.8285V55.8285ZM62 28.1956C62 13.3869 48.5603 0.642578 31.06 0.642578V2.64258C47.6397 2.64258 60 14.6669 60 28.1956H62Z" fill="url(#paint0_linear_1_1300)" mask="url(#path-1-outside-1_1_1300)"/>
</g>
<g filter="url(#filter1_bd_1_1300)">
<mask id="path-3-inside-2_1_1300" fill="white">
<path fill-rule="evenodd" clip-rule="evenodd" d="M30.9415 31.7109C28.8115 31.6843 27.1015 30.1662 27.1015 28.2753C27.1015 26.411 28.8415 24.8663 30.9415 24.8929C33.0715 24.8929 34.7815 26.411 34.7815 28.3019C34.7815 30.1662 33.0715 31.7109 30.9415 31.7109ZM17.1105 31.7112C15.0105 31.7112 13.2705 30.1665 13.2705 28.3022C13.2705 26.4112 14.9805 24.8931 17.1105 24.8931C19.2405 24.8931 20.9505 26.4112 20.9505 28.3022C20.9505 30.1665 19.2405 31.6845 17.1105 31.7112ZM40.9308 28.302C40.9308 30.1663 42.6408 31.711 44.7708 31.711C46.9008 31.711 48.6108 30.1663 48.6108 28.302C48.6108 26.4111 46.9008 24.893 44.7708 24.893C42.6408 24.893 40.9308 26.4111 40.9308 28.302Z"/>
</mask>
<path fill-rule="evenodd" clip-rule="evenodd" d="M30.9415 31.7109C28.8115 31.6843 27.1015 30.1662 27.1015 28.2753C27.1015 26.411 28.8415 24.8663 30.9415 24.8929C33.0715 24.8929 34.7815 26.411 34.7815 28.3019C34.7815 30.1662 33.0715 31.7109 30.9415 31.7109ZM17.1105 31.7112C15.0105 31.7112 13.2705 30.1665 13.2705 28.3022C13.2705 26.4112 14.9805 24.8931 17.1105 24.8931C19.2405 24.8931 20.9505 26.4112 20.9505 28.3022C20.9505 30.1665 19.2405 31.6845 17.1105 31.7112ZM40.9308 28.302C40.9308 30.1663 42.6408 31.711 44.7708 31.711C46.9008 31.711 48.6108 30.1663 48.6108 28.302C48.6108 26.4111 46.9008 24.893 44.7708 24.893C42.6408 24.893 40.9308 26.4111 40.9308 28.302Z" fill="url(#paint1_linear_1_1300)"/>
<path d="M30.9415 31.7109L30.9365 32.1109H30.9415V31.7109ZM30.9415 24.8929L30.9364 25.2929H30.9415V24.8929ZM17.1105 31.7112V32.1112L17.1155 32.1111L17.1105 31.7112ZM26.7015 28.2753C26.7015 30.4309 28.6362 32.0821 30.9365 32.1109L30.9465 31.311C28.9868 31.2865 27.5015 29.9016 27.5015 28.2753H26.7015ZM30.9466 24.4929C28.6671 24.464 26.7015 26.147 26.7015 28.2753H27.5015C27.5015 26.675 29.0159 25.2685 30.9364 25.2929L30.9466 24.4929ZM35.1815 28.3019C35.1815 26.1466 33.2463 24.4929 30.9415 24.4929V25.2929C32.8967 25.2929 34.3815 26.6753 34.3815 28.3019H35.1815ZM30.9415 32.1109C33.2484 32.1109 35.1815 30.4287 35.1815 28.3019H34.3815C34.3815 29.9038 32.8945 31.3109 30.9415 31.3109V32.1109ZM12.8705 28.3022C12.8705 30.4308 14.8357 32.1112 17.1105 32.1112V31.3112C15.1853 31.3112 13.6705 29.9021 13.6705 28.3022H12.8705ZM17.1105 24.4931C14.8057 24.4931 12.8705 26.1469 12.8705 28.3022H13.6705C13.6705 26.6756 15.1553 25.2931 17.1105 25.2931V24.4931ZM21.3505 28.3022C21.3505 26.1469 19.4153 24.4931 17.1105 24.4931V25.2931C19.0657 25.2931 20.5505 26.6756 20.5505 28.3022H21.3505ZM17.1155 32.1111C19.4137 32.0824 21.3505 30.433 21.3505 28.3022H20.5505C20.5505 29.9 19.0674 31.2867 17.1055 31.3112L17.1155 32.1111ZM44.7708 31.311C42.8178 31.311 41.3308 29.9039 41.3308 28.302H40.5308C40.5308 30.4288 42.4639 32.111 44.7708 32.111V31.311ZM48.2108 28.302C48.2108 29.9039 46.7239 31.311 44.7708 31.311V32.111C47.0778 32.111 49.0108 30.4288 49.0108 28.302H48.2108ZM44.7708 25.293C46.726 25.293 48.2108 26.6754 48.2108 28.302H49.0108C49.0108 26.1467 47.0756 24.493 44.7708 24.493V25.293ZM41.3308 28.302C41.3308 26.6754 42.8156 25.293 44.7708 25.293V24.493C42.466 24.493 40.5308 26.1467 40.5308 28.302H41.3308Z" fill="url(#paint2_linear_1_1300)" mask="url(#path-3-inside-2_1_1300)"/>
</g>
<defs>
<filter id="filter0_b_1_1300" x="-24" y="-23.3574" width="110" height="103.186" filterUnits="userSpaceOnUse" color-interpolation-filters="sRGB">
<feFlood flood-opacity="0" result="BackgroundImageFix"/>
<feGaussianBlur in="BackgroundImageFix" stdDeviation="12"/>
<feComposite in2="SourceAlpha" operator="in" result="effect1_backgroundBlur_1_1300"/>
<feBlend mode="normal" in="SourceGraphic" in2="effect1_backgroundBlur_1_1300" result="shape"/>
</filter>
<filter id="filter1_bd_1_1300" x="-1.72949" y="9.89258" width="65.3403" height="36.8184" filterUnits="userSpaceOnUse" color-interpolation-filters="sRGB">
<feFlood flood-opacity="0" result="BackgroundImageFix"/>
<feGaussianBlur in="BackgroundImageFix" stdDeviation="7.5"/>
<feComposite in2="SourceAlpha" operator="in" result="effect1_backgroundBlur_1_1300"/>
<feColorMatrix in="SourceAlpha" type="matrix" values="0 0 0 0 0 0 0 0 0 0 0 0 0 0 0 0 0 0 127 0" result="hardAlpha"/>
<feOffset dx="5" dy="5"/>
<feGaussianBlur stdDeviation="5"/>
<feColorMatrix type="matrix" values="0 0 0 0 0.411765 0 0 0 0 0.396078 0 0 0 0 0.662745 0 0 0 0.5 0"/>
<feBlend mode="normal" in2="effect1_backgroundBlur_1_1300" result="effect2_dropShadow_1_1300"/>
<feBlend mode="normal" in="SourceGraphic" in2="effect2_dropShadow_1_1300" result="shape"/>
</filter>
<linearGradient id="paint0_linear_1_1300" x1="10.551" y1="7.83881" x2="43.4025" y2="53.7389" gradientUnits="userSpaceOnUse">
<stop stop-color="white" stop-opacity="0.25"/>
<stop offset="1" stop-color="white" stop-opacity="0"/>
</linearGradient>
<linearGradient id="paint1_linear_1_1300" x1="46.1052" y1="26.1238" x2="7.79179" y2="32.5985" gradientUnits="userSpaceOnUse">
<stop stop-color="white"/>
<stop offset="1" stop-color="white" stop-opacity="0.2"/>
</linearGradient>
<linearGradient id="paint2_linear_1_1300" x1="18.8961" y1="25.6869" x2="20.2495" y2="34.3747" gradientUnits="userSpaceOnUse">
<stop stop-color="white" stop-opacity="0.25"/>
<stop offset="1" stop-color="white" stop-opacity="0"/>
</linearGradient>
</defs>
</svg>
