<svg width="34" height="29" viewBox="0 0 34 29" fill="none" xmlns="http://www.w3.org/2000/svg">
<path d="M29.6819 4.0454C28.9435 3.3115 28.0669 2.72932 27.102 2.33211C26.1372 1.93491 25.103 1.73047 24.0586 1.73047C23.0142 1.73047 21.98 1.93491 21.0152 2.33211C20.0503 2.72932 19.1737 3.3115 18.4353 4.0454L16.903 5.56779L15.3707 4.0454C13.8793 2.56367 11.8566 1.73124 9.74743 1.73124C7.6383 1.73124 5.61554 2.56367 4.12416 4.0454C2.63277 5.52714 1.79492 7.5368 1.79492 9.63229C1.79492 11.7278 2.63277 13.7374 4.12416 15.2192L16.903 27.9154L29.6819 15.2192C30.4206 14.4856 31.0065 13.6147 31.4063 12.656C31.8061 11.6974 32.0119 10.6699 32.0119 9.63229C32.0119 8.59464 31.8061 7.56716 31.4063 6.60854C31.0065 5.64993 30.4206 4.77896 29.6819 4.0454Z" fill="#B57DAC" stroke="#B57DAC" stroke-width="2" stroke-linecap="round" stroke-linejoin="round"/>
</svg>
