<svg width="120" height="120" viewBox="0 0 120 120" fill="none" xmlns="http://www.w3.org/2000/svg">
<g clip-path="url(#clip0_1_4003)">
<path d="M101.094 101.223C123.762 78.5554 123.762 41.8039 101.094 19.1363C78.4265 -3.53138 41.6749 -3.53139 19.0073 19.1363C-3.66037 41.8039 -3.66037 78.5555 19.0073 101.223C41.6749 123.891 78.4265 123.891 101.094 101.223Z" fill="#E08E8E"/>
<path fill-rule="evenodd" clip-rule="evenodd" d="M15.0741 23.9814L14.9187 23.686C15.0511 23.5224 15.1821 23.3575 15.3163 23.1953L15.0741 23.9814Z" fill="#DE8887"/>
<path fill-rule="evenodd" clip-rule="evenodd" d="M2.0127 60.3613L3.30172 62.625L2.31684 66.175C2.12074 64.263 2.01879 62.3235 2.0127 60.3613Z" fill="#E8ACAC"/>
<path fill-rule="evenodd" clip-rule="evenodd" d="M3.30172 62.6243L2.01269 60.3607C2.01245 60.3002 2.0105 60.2404 2.0105 60.1797C2.0105 59.2663 2.0344 58.3582 2.07586 57.4551L3.30172 62.6243Z" fill="#E5A5A5"/>
<path fill-rule="evenodd" clip-rule="evenodd" d="M21.0264 103.148L34.6381 100.623L33.0683 111.583C28.6959 109.281 24.6508 106.443 21.0264 103.148Z" fill="#EFC6C6"/>
<path fill-rule="evenodd" clip-rule="evenodd" d="M15.5925 97.4925L25.5803 58.3301L34.6381 100.624L21.0264 103.149C19.0903 101.389 17.2762 99.4972 15.5925 97.4925Z" fill="#ECC0BF"/>
<path fill-rule="evenodd" clip-rule="evenodd" d="M25.5807 58.3293L3.69995 46.24C4.03971 44.862 4.42849 43.5035 4.86459 42.1659L26.8502 37.291L25.5807 58.3293Z" fill="#E8ABAB"/>
<path fill-rule="evenodd" clip-rule="evenodd" d="M14.9191 23.6855L15.0745 23.9809L14.6287 24.0463C14.7248 23.9255 14.8218 23.8055 14.9191 23.6855Z" fill="#DE8989"/>
<path fill-rule="evenodd" clip-rule="evenodd" d="M14.6279 24.0458L15.0737 23.9805L11.824 27.8749C12.7069 26.559 13.6432 25.2824 14.6279 24.0458Z" fill="#E19797"/>
<path fill-rule="evenodd" clip-rule="evenodd" d="M11.8245 27.8749L15.0743 23.9805L26.8496 37.2912L4.86401 42.1661C6.53182 37.0541 8.8867 32.2532 11.8245 27.8749Z" fill="#E4A0A0"/>
<path fill-rule="evenodd" clip-rule="evenodd" d="M3.30178 62.6244L2.07593 57.4554C2.25373 53.6068 2.80788 49.8573 3.69934 46.2402L25.5801 58.3295L3.30178 62.6244Z" fill="#E8ACAC"/>
<path fill-rule="evenodd" clip-rule="evenodd" d="M3.8269 74.643L25.5801 58.3301L15.5923 97.4925C10.0962 90.9484 6.01495 83.1754 3.8269 74.643Z" fill="#EBBCBC"/>
<path fill-rule="evenodd" clip-rule="evenodd" d="M2.31714 66.175L3.30202 62.625L25.5806 58.3301L3.82738 74.643C3.12226 71.8937 2.61372 69.0657 2.31714 66.175Z" fill="#EAB6B6"/>
<path fill-rule="evenodd" clip-rule="evenodd" d="M49.1279 81.7288L25.5798 58.3288L41.1579 53.8203L49.1279 81.7288Z" fill="#ECBEBE"/>
<path fill-rule="evenodd" clip-rule="evenodd" d="M41.1579 53.8223L26.8494 37.2926L36.8118 20.1172L41.1579 53.8223Z" fill="#E7A9A9"/>
<path fill-rule="evenodd" clip-rule="evenodd" d="M25.5798 58.3293L26.8493 37.291L41.1579 53.8208L25.5798 58.3293Z" fill="#EAB4B4"/>
<path fill-rule="evenodd" clip-rule="evenodd" d="M82.0971 46.3078L70.5046 25.4839L90.5156 10.75C91.3512 11.2659 92.172 11.8024 92.9788 12.3588L82.0971 46.3078Z" fill="#E49E9E"/>
<path fill-rule="evenodd" clip-rule="evenodd" d="M15.074 23.9797L15.3162 23.1934C18.2335 19.668 21.5593 16.4941 25.221 13.7422L36.8118 20.1151L15.074 23.9797Z" fill="#E09090"/>
<path fill-rule="evenodd" clip-rule="evenodd" d="M26.8493 37.2926L15.074 23.9818L36.8118 20.1172L26.8493 37.2926Z" fill="#E39B9A"/>
<path fill-rule="evenodd" clip-rule="evenodd" d="M36.8122 20.1152L25.2214 13.7422C28.747 11.0927 32.5856 8.83784 36.6692 7.03711L36.8122 20.1152Z" fill="#DE8989"/>
<path fill-rule="evenodd" clip-rule="evenodd" d="M34.6376 100.624L25.5798 58.3301L49.1279 81.7301L34.6376 100.624Z" fill="#EDC1C1"/>
<path fill-rule="evenodd" clip-rule="evenodd" d="M76.4817 76.1491L61.2656 65.8447L82.0968 46.3086L76.4817 76.1491Z" fill="#EBBDBD"/>
<path fill-rule="evenodd" clip-rule="evenodd" d="M33.0684 111.583L34.6381 100.623L45.2018 116.309C40.9462 115.184 36.8823 113.589 33.0684 111.583Z" fill="#F0C7C7"/>
<path fill-rule="evenodd" clip-rule="evenodd" d="M61.2656 65.8444L70.5044 25.4844L82.0968 46.3083L61.2656 65.8444Z" fill="#EAB1B0"/>
<path fill-rule="evenodd" clip-rule="evenodd" d="M36.8126 20.1158L36.6697 7.03776C38.6958 6.14459 40.7811 5.3619 42.9204 4.70117L61.9911 8.73629L36.8126 20.1158Z" fill="#DF8C8C"/>
<path fill-rule="evenodd" clip-rule="evenodd" d="M49.128 81.7288L41.158 53.8203L61.2653 65.843L49.128 81.7288Z" fill="#ECC0BF"/>
<path fill-rule="evenodd" clip-rule="evenodd" d="M63.8028 117.153L34.6384 100.625L49.1287 81.7305L63.8028 117.153Z" fill="#F0C9C8"/>
<path fill-rule="evenodd" clip-rule="evenodd" d="M45.2011 116.309L34.6375 100.623L63.8018 117.151L61.7435 118.206C61.185 118.222 60.6253 118.232 60.0631 118.232C54.9255 118.233 49.945 117.562 45.2011 116.309Z" fill="#F0CCCC"/>
<path fill-rule="evenodd" clip-rule="evenodd" d="M61.2653 65.8444L41.158 53.8217L70.5041 25.4844L61.2653 65.8444Z" fill="#EAB4B4"/>
<path fill-rule="evenodd" clip-rule="evenodd" d="M41.1584 53.8204L36.8123 20.1152L70.5044 25.483L41.1584 53.8204Z" fill="#E5A5A5"/>
<path fill-rule="evenodd" clip-rule="evenodd" d="M70.5044 25.4834L36.8123 20.1156L61.9908 8.73633L70.5044 25.4834Z" fill="#E19595"/>
<path fill-rule="evenodd" clip-rule="evenodd" d="M61.7439 118.207L63.8022 117.152L64.2585 118.081C63.4251 118.141 62.5868 118.183 61.7439 118.207Z" fill="#F2D3D3"/>
<path fill-rule="evenodd" clip-rule="evenodd" d="M63.8028 117.153L49.1287 81.7305L74.8523 110.712L63.8028 117.153Z" fill="#F1CFCE"/>
<path fill-rule="evenodd" clip-rule="evenodd" d="M74.8523 110.712L49.1287 81.7299L76.4821 76.1484L74.8523 110.712Z" fill="#F0C9C8"/>
<path fill-rule="evenodd" clip-rule="evenodd" d="M64.2588 118.08L63.8025 117.151L74.8522 110.711L74.1798 116.5C70.9701 117.302 67.6552 117.838 64.2588 118.08Z" fill="#F3D6D5"/>
<path fill-rule="evenodd" clip-rule="evenodd" d="M49.1287 81.7296L61.266 65.8438L76.4821 76.1481L49.1287 81.7296Z" fill="#EDC1C1"/>
<path fill-rule="evenodd" clip-rule="evenodd" d="M70.5044 25.483L61.9907 8.73596L85.7476 8.10742C87.3817 8.91523 88.9722 9.79669 90.5151 10.7491L70.5044 25.483Z" fill="#E09090"/>
<path fill-rule="evenodd" clip-rule="evenodd" d="M74.8523 110.712L76.4821 76.1484L93.5091 87.3118L74.8523 110.712Z" fill="#F0CCCC"/>
<path fill-rule="evenodd" clip-rule="evenodd" d="M61.9904 8.73785L42.9197 4.70272C43.6841 4.46687 44.456 4.24809 45.2333 4.04297L83.4182 7.02224C84.2038 7.36785 84.9804 7.73029 85.7475 8.10931L61.9904 8.73785Z" fill="#DE8887"/>
<path fill-rule="evenodd" clip-rule="evenodd" d="M101.479 100.855L93.5095 87.3114L105.283 74.4316L106.976 94.3763C105.301 96.6687 103.464 98.8341 101.479 100.855Z" fill="#F0CACA"/>
<path fill-rule="evenodd" clip-rule="evenodd" d="M93.5093 87.3112L76.4822 76.1477L105.283 74.4316L93.5093 87.3112Z" fill="#EEC4C4"/>
<path fill-rule="evenodd" clip-rule="evenodd" d="M105.283 74.4316L82.0964 46.3074L106.874 25.8457C107.814 27.1245 108.703 28.4425 109.537 29.7981L105.283 74.4316Z" fill="#E9AEAE"/>
<path fill-rule="evenodd" clip-rule="evenodd" d="M82.0964 46.3084L92.9781 12.3594C98.3291 16.0494 103.029 20.614 106.874 25.8467L82.0964 46.3084Z" fill="#E39B9A"/>
<path fill-rule="evenodd" clip-rule="evenodd" d="M87.216 111.501L74.8523 110.712L93.5091 87.3125L101.479 100.856C97.3162 105.093 92.5096 108.694 87.216 111.501Z" fill="#F2D3D3"/>
<path fill-rule="evenodd" clip-rule="evenodd" d="M76.4822 76.1491L82.0973 46.3086L105.283 74.433L76.4822 76.1491Z" fill="#EBBCBC"/>
<path fill-rule="evenodd" clip-rule="evenodd" d="M74.1794 116.5L74.8519 110.711L87.2155 111.499C83.1346 113.663 78.7655 115.355 74.1794 116.5Z" fill="#F4DADA"/>
<path fill-rule="evenodd" clip-rule="evenodd" d="M68.909 2.79671L49.196 3.14695C52.7168 2.48012 56.3485 2.12695 60.0631 2.12695C63.0709 2.1272 66.0248 2.35598 68.909 2.79671Z" fill="#DC7E7E"/>
<path fill-rule="evenodd" clip-rule="evenodd" d="M83.419 7.02102L45.2341 4.04175C46.5375 3.69834 47.8593 3.40078 49.1966 3.14712L68.9095 2.79688C73.9932 3.57517 78.859 5.01444 83.419 7.02102Z" fill="#DE8787"/>
<path fill-rule="evenodd" clip-rule="evenodd" d="M105.283 74.4322L109.538 29.7988C114.857 38.443 117.973 48.5864 118.107 59.4488L105.283 74.4322Z" fill="#E8ABAB"/>
<path fill-rule="evenodd" clip-rule="evenodd" d="M105.283 74.4326L118.107 59.4492C118.11 59.6931 118.116 59.9363 118.116 60.1809C118.116 64.1112 117.723 67.9495 116.979 71.6607L105.283 74.4326Z" fill="#EAB0B0"/>
<path fill-rule="evenodd" clip-rule="evenodd" d="M106.975 94.3763L105.283 74.4316L113.847 82.059C112.054 86.4597 109.739 90.5914 106.975 94.3763Z" fill="#F0C7C7"/>
<path fill-rule="evenodd" clip-rule="evenodd" d="M113.847 82.0597L105.283 74.4324L116.979 71.6602C116.256 75.258 115.201 78.7353 113.847 82.0597Z" fill="#EBBDBD"/>
<path d="M60.0636 0.316406C76.5948 0.316406 91.5609 7.01714 102.395 17.8508C113.228 28.6842 119.929 43.6506 119.929 60.1818C119.929 76.713 113.228 91.6791 102.395 102.512C91.5609 113.346 76.5948 120.047 60.0636 120.047C43.5324 120.047 28.5663 113.346 17.7326 102.512C6.89922 91.6788 0.198486 76.7125 0.198486 60.1815C0.198486 43.6505 6.89922 28.6842 17.7326 17.8506C28.5663 7.01689 43.5324 0.316406 60.0636 0.316406ZM99.8292 20.4159C89.6524 10.2391 75.5931 3.9447 60.0636 3.9447C44.5341 3.9447 30.4748 10.2391 20.298 20.4159C10.1212 30.5927 3.82678 44.652 3.82678 60.1815C3.82678 75.711 10.1214 89.7703 20.298 99.9471C30.4748 110.124 44.5341 116.418 60.0636 116.418C75.5931 116.418 89.6524 110.124 99.8292 99.9471C110.006 89.7703 116.3 75.711 116.3 60.1815C116.3 44.652 110.006 30.5925 99.8292 20.4159Z" fill="#1A1A1A" fill-opacity="0.7"/>
<path fill-rule="evenodd" clip-rule="evenodd" d="M80.9629 90.3587C80.9629 91.0104 81.4934 91.5407 82.1453 91.5407H85.1212C85.7731 91.5407 86.3036 91.0104 86.3036 90.3587V88.9453H80.9629V90.3587Z" fill="#1A1A1A" fill-opacity="0.7"/>
<path fill-rule="evenodd" clip-rule="evenodd" d="M79.1835 87.4003H82.8606V78.7451L78.4401 73.7424C78.1579 73.4229 78.1879 72.9351 78.5074 72.6529C78.8269 72.3707 79.3147 72.4007 79.5969 72.7203L83.6435 77.2995L87.8579 72.7093C88.1464 72.3951 88.6345 72.3747 88.9486 72.6627C89.2625 72.951 89.2835 73.4393 88.9952 73.7534L84.4045 78.7534V87.4003H88.0823V83.6537C88.0823 81.319 89.1223 79.131 90.9354 77.65C93.6967 75.3949 95.245 72.0573 95.1835 68.4937C95.0945 61.9583 89.3671 56.7007 82.8462 57.172C76.8091 57.5773 72.0801 62.6403 72.0801 68.6978C72.0801 72.1717 73.6228 75.4293 76.3125 77.6349C78.0767 79.0822 79.1213 81.1993 79.1808 83.4461C79.1815 83.4634 79.1835 87.4003 79.1835 87.4003Z" fill="#1A1A1A" fill-opacity="0.7"/>
<path fill-rule="evenodd" clip-rule="evenodd" d="M80.5238 53.5901C80.6082 53.3232 80.8307 53.123 81.1051 53.0667C83.4275 52.5913 85.1131 50.5225 85.1131 48.1474C85.1131 45.8632 83.5721 43.8659 81.3655 43.2903C80.9712 43.1874 80.7246 42.7957 80.8029 42.3954C80.8763 42.0193 80.9136 41.631 80.9136 41.2413C80.9136 37.5035 77.5026 34.4625 73.3097 34.4625C71.4729 34.4625 69.7138 35.0493 68.3321 36.1188C68.1455 36.5993 67.639 37.7508 66.708 38.8462C65.3226 40.4754 63.5736 41.3179 61.6026 41.3179C61.2568 41.3179 60.9046 41.292 60.5458 41.2398C60.1238 41.1786 59.8316 40.7869 59.8929 40.3649C59.9541 39.943 60.3463 39.6508 60.7677 39.712C62.6446 39.9847 64.2473 39.3569 65.5316 37.8462C66.2116 37.0464 66.6212 36.2096 66.8141 35.7547C66.8053 35.7415 66.4373 35.2164 66.4429 35.2206C65.1153 33.0708 63.006 32.912 62.9848 32.9106C62.8153 32.8996 62.6541 32.8332 62.5263 32.7215L61.3626 31.7049C58.8707 29.5262 55.1773 29.5796 52.7709 31.8293C52.3921 32.3369 51.678 32.3649 51.3609 31.8093C50.0992 29.9379 47.9987 28.8203 45.7421 28.8203C42.2251 28.8203 39.2568 31.5623 38.9846 35.0627C38.9582 35.6159 38.2907 35.9632 37.8226 35.6676C36.7407 35.0291 35.5004 34.7064 34.2334 34.7335C30.5712 34.8125 27.5977 37.8584 27.6051 41.523C27.6087 43.4123 28.4097 45.2286 29.8024 46.5062C30.289 46.9237 30.0087 47.7884 29.3699 47.8415C26.8453 48.1359 24.9414 50.2793 24.9414 52.8269C24.9414 55.1837 26.5587 57.1959 28.8253 57.7167C29.1787 57.2679 29.708 56.6959 30.4202 56.1881C31.6534 55.3091 33.6673 54.4659 36.4129 55.2286C36.7246 54.8193 37.2438 54.2452 37.9982 53.743C39.2063 52.9384 41.277 52.1547 44.2807 52.9908C44.6914 53.1052 44.9316 53.5308 44.8175 53.9415C44.7031 54.3523 44.2775 54.5925 43.8668 54.4784C39.2885 53.2042 37.4838 56.3698 37.4092 56.5052C37.2299 56.8398 36.836 56.9906 36.4775 56.8659C32.3846 55.4437 30.2177 58.3374 29.7412 59.0813C29.8519 62.5835 32.7346 65.3984 36.2621 65.3984C38.2399 65.3984 40.0885 64.5159 41.3338 62.9776C41.4907 62.784 41.7314 62.6781 41.9804 62.6927C42.2295 62.7079 42.4555 62.842 42.588 63.0532C42.6075 63.0842 44.6753 66.2918 48.3634 66.9774C50.9782 67.4637 53.8085 66.5925 56.7753 64.3888C56.9495 64.2596 57.1702 64.2093 57.3829 64.2508C57.5958 64.2923 57.7817 64.4213 57.8946 64.6067C57.898 64.612 58.3604 65.3518 59.2582 66.1227C60.4343 67.1325 61.7712 67.7215 63.2316 67.8735C64.7031 68.0269 65.9807 69.4615 67.1373 72.2593C67.8934 74.0879 68.5882 76.4669 69.2031 79.3306C69.6238 81.2898 71.386 82.712 73.3936 82.712H77.5673C77.3336 81.2071 76.5448 79.823 75.3336 78.8293C72.2851 76.3293 70.5365 72.6367 70.5365 68.6984C70.5365 65.3554 71.796 62.1728 74.0829 59.7367C76.1126 57.5747 78.778 56.1823 81.677 55.7484C81.4082 55.2284 81.0777 54.7552 80.6982 54.3528C80.506 54.1488 80.4395 53.8571 80.5238 53.5901ZM50.3916 46.7857C50.2841 46.791 50.1765 46.7937 50.0697 46.7937C48.8041 46.7937 47.5917 46.4213 46.5451 45.7081C45.5346 45.0196 44.7316 44.0308 44.2636 42.9049C43.7551 42.5715 42.1438 41.6364 40.4182 41.902C39.2529 42.0815 38.2238 42.7874 37.3599 44.0001C37.2095 44.2115 36.9716 44.3242 36.7307 44.3242C36.5756 44.3242 36.4192 44.2776 36.2834 44.1808C35.936 43.9335 35.8551 43.4515 36.1024 43.1042C37.2185 41.5374 38.5931 40.6193 40.188 40.3752C41.5695 40.1637 42.8558 40.512 43.8009 40.9157C43.7685 40.4118 43.7956 39.9023 43.8851 39.3986L44.0207 38.6367C44.0953 38.2169 44.496 37.9371 44.9158 38.012C45.3356 38.0867 45.6151 38.4876 45.5404 38.9071L45.4048 39.6691C45.2573 40.4996 45.3307 41.3501 45.617 42.1293C45.6175 42.1308 45.618 42.132 45.6185 42.1332C45.619 42.1345 45.6195 42.1357 45.6199 42.1369C46.3429 44.0984 48.229 45.3467 50.3148 45.2435C51.3241 45.1993 51.3992 46.731 50.3916 46.7857ZM54.0258 46.9264C54.2995 46.5996 54.7863 46.5564 55.1131 46.8301C57.1053 48.4981 58.7877 48.0188 60.1707 47.3296C60.5524 47.1393 61.0155 47.2947 61.2058 47.6764C61.3958 48.0581 61.2407 48.5213 60.859 48.7115C58.4363 49.9371 56.2429 49.7752 54.1219 48.0137C53.7953 47.7401 53.7521 47.2532 54.0258 46.9264ZM76.4302 52.8591C76.3226 52.8642 76.2153 52.8671 76.1085 52.8671C74.8726 52.8671 73.6899 52.5115 72.6741 51.843L72.0031 53.4618C71.5409 54.5774 70.6197 55.4386 69.4753 55.8247C68.3312 56.2108 67.0765 56.0837 66.0334 55.4767C65.629 55.2415 65.1712 55.1174 64.7099 55.1174C63.6312 55.1174 62.6704 55.7615 62.2619 56.7581C62.0987 57.1554 61.8843 57.5288 61.6243 57.8688C61.3697 58.2003 61.0736 58.4974 60.7434 58.7527C59.907 59.3988 58.908 59.7371 57.8687 59.7371C57.6031 59.7371 57.3351 59.7152 57.0663 59.6706C55.7358 59.4496 54.5465 58.6781 53.8034 57.554C53.5619 57.1884 53.3734 56.7886 53.2431 56.3657C53.1175 55.9584 53.346 55.5264 53.7536 55.4008C54.1609 55.2754 54.5929 55.5037 54.7185 55.9113C54.8055 56.1937 54.9309 56.4603 55.0914 56.703C55.5985 57.4703 56.4107 57.9969 57.3192 58.1476C58.2124 58.2959 59.0934 58.0771 59.7997 57.5315C60.0243 57.3576 60.2263 57.1549 60.3995 56.9298C60.5763 56.6988 60.7226 56.4435 60.8341 56.1723C61.4812 54.594 63.0029 53.5737 64.7107 53.5737C65.4443 53.5737 66.1704 53.7703 66.8104 54.1423C67.4692 54.5257 68.2607 54.6057 68.9826 54.362C69.7046 54.1184 70.286 53.5747 70.5777 52.8708L71.4429 50.7832C70.147 49.3449 69.5816 47.3981 69.9246 45.472L70.0602 44.7103C70.1348 44.2906 70.5355 44.0108 70.9553 44.0857C71.3751 44.1603 71.6548 44.5613 71.5799 44.9808L71.4443 45.7428C71.1616 47.3313 71.6975 48.9396 72.8777 50.0445C72.8795 50.0462 72.8814 50.0476 72.8834 50.0491C72.8843 50.0501 72.8851 50.051 72.8858 50.0518C73.8299 50.932 75.0621 51.3813 76.3541 51.3169C76.7802 51.2964 77.1424 51.6237 77.1634 52.0496C77.1841 52.4757 76.856 52.8381 76.4302 52.8591Z" fill="#1A1A1A" fill-opacity="0.7"/>
</g>
<defs>
<clipPath id="clip0_1_4003">
<rect width="120" height="120" fill="white"/>
</clipPath>
</defs>
</svg>
