<svg width="71" height="65" viewBox="0 0 71 65" fill="none" xmlns="http://www.w3.org/2000/svg">
<g filter="url(#filter0_b_1_1284)">
<mask id="path-1-outside-1_1_1284" maskUnits="userSpaceOnUse" x="0" y="0.642578" width="62" height="56" fill="black">
<rect fill="white" y="0.642578" width="62" height="56"/>
<path d="M44.02 1.64258H18.01C7.84 1.64258 1 7.9717 1 17.3856V39.1121C1 48.4994 7.84 54.8285 18.01 54.8285H44.02C54.19 54.8285 61 48.4994 61 39.1121V17.3856C61 7.9717 54.19 1.64258 44.02 1.64258Z"/>
</mask>
<path d="M44.02 1.64258H18.01C7.84 1.64258 1 7.9717 1 17.3856V39.1121C1 48.4994 7.84 54.8285 18.01 54.8285H44.02C54.19 54.8285 61 48.4994 61 39.1121V17.3856C61 7.9717 54.19 1.64258 44.02 1.64258Z" fill="#0667AE" fill-opacity="0.5"/>
<path d="M44.02 2.64258C44.5723 2.64258 45.02 2.19486 45.02 1.64258C45.02 1.09029 44.5723 0.642578 44.02 0.642578V2.64258ZM44.02 0.642578C43.4677 0.642578 43.02 1.09029 43.02 1.64258C43.02 2.19486 43.4677 2.64258 44.02 2.64258V0.642578ZM44.02 0.642578H18.01V2.64258H44.02V0.642578ZM18.01 0.642578C12.7178 0.642578 8.20847 2.29178 5.01203 5.24995C1.80881 8.21439 0 12.4247 0 17.3856H2C2 12.9326 3.61119 9.27141 6.37047 6.71781C9.13653 4.15794 13.1322 2.64258 18.01 2.64258V0.642578ZM0 17.3856V39.1121H2V17.3856H0ZM0 39.1121C0 44.0605 1.80938 48.2641 5.01247 51.2249C8.20875 54.1793 12.7178 55.8285 18.01 55.8285V53.8285C13.1322 53.8285 9.13625 52.3131 6.37003 49.7562C3.61062 47.2056 2 43.551 2 39.1121H0ZM18.01 55.8285H44.02V53.8285H18.01V55.8285ZM44.02 55.8285C49.3123 55.8285 53.8144 54.1792 57.0035 51.224C60.1991 48.2627 62 44.0591 62 39.1121H60C60 43.5524 58.3959 47.207 55.644 49.757C52.8856 52.3132 48.8977 53.8285 44.02 53.8285V55.8285ZM62 39.1121V17.3856H60V39.1121H62ZM62 17.3856C62 12.4261 60.1997 8.21581 57.0039 5.2508C53.8147 2.29188 49.3123 0.642578 44.02 0.642578V2.64258C48.8977 2.64258 52.8853 4.15784 55.6436 6.71696C58.3953 9.26999 60 12.9312 60 17.3856H62Z" fill="url(#paint0_linear_1_1284)" mask="url(#path-1-outside-1_1_1284)"/>
</g>
<g filter="url(#filter1_bd_1_1284)">
<mask id="path-3-inside-2_1_1284" fill="white">
<path fill-rule="evenodd" clip-rule="evenodd" d="M13.0501 18.9976C13.0501 22.6778 16.4244 25.673 20.5772 25.673C24.727 25.673 28.1044 22.6778 28.1044 18.9976C28.1044 15.3175 24.727 12.3223 20.5772 12.3223C16.4244 12.3223 13.0501 15.3175 13.0501 18.9976ZM54.0873 43.4961C55.1657 41.2256 55.6897 38.47 54.681 36.1773C54.3448 35.4168 53.842 34.7086 53.1362 34.0859C51.2855 32.4573 49.5559 30.9362 47.4992 29.812C44.2702 28.0264 41.7773 30.5339 41.1049 31.3358C40.5684 31.9766 40.0942 32.6721 39.6136 33.377C39.5134 33.5239 39.413 33.6713 39.3117 33.8186L39.2877 33.8537C37.8576 35.9535 36.2153 38.3648 33.3838 39.7706C29.2462 41.8015 26.105 39.9304 23.8454 38.5692C22.9972 38.0622 22.1733 37.5827 21.3525 37.263C19.3291 36.4887 17.5086 37.3705 14.8067 40.4127C13.3891 42.0026 11.9836 43.5788 10.56 45.1495C9.70883 46.0891 9.91177 47.5386 11.0598 48.1668C12.8923 49.1671 15.1278 49.7045 17.654 49.7045H43.0404C44.4732 49.7045 45.9089 49.5309 47.278 49.1341C50.3616 48.2412 52.8091 46.1966 54.0873 43.4961Z"/>
</mask>
<path fill-rule="evenodd" clip-rule="evenodd" d="M13.0501 18.9976C13.0501 22.6778 16.4244 25.673 20.5772 25.673C24.727 25.673 28.1044 22.6778 28.1044 18.9976C28.1044 15.3175 24.727 12.3223 20.5772 12.3223C16.4244 12.3223 13.0501 15.3175 13.0501 18.9976ZM54.0873 43.4961C55.1657 41.2256 55.6897 38.47 54.681 36.1773C54.3448 35.4168 53.842 34.7086 53.1362 34.0859C51.2855 32.4573 49.5559 30.9362 47.4992 29.812C44.2702 28.0264 41.7773 30.5339 41.1049 31.3358C40.5684 31.9766 40.0942 32.6721 39.6136 33.377C39.5134 33.5239 39.413 33.6713 39.3117 33.8186L39.2877 33.8537C37.8576 35.9535 36.2153 38.3648 33.3838 39.7706C29.2462 41.8015 26.105 39.9304 23.8454 38.5692C22.9972 38.0622 22.1733 37.5827 21.3525 37.263C19.3291 36.4887 17.5086 37.3705 14.8067 40.4127C13.3891 42.0026 11.9836 43.5788 10.56 45.1495C9.70883 46.0891 9.91177 47.5386 11.0598 48.1668C12.8923 49.1671 15.1278 49.7045 17.654 49.7045H43.0404C44.4732 49.7045 45.9089 49.5309 47.278 49.1341C50.3616 48.2412 52.8091 46.1966 54.0873 43.4961Z" fill="url(#paint1_linear_1_1284)"/>
<path d="M54.681 36.1773L54.8641 36.0968L54.864 36.0965L54.681 36.1773ZM54.0873 43.4961L53.9067 43.4103L53.9066 43.4106L54.0873 43.4961ZM53.1362 34.0859L53.2685 33.9359L53.2683 33.9357L53.1362 34.0859ZM47.4992 29.812L47.4024 29.987L47.4032 29.9875L47.4992 29.812ZM41.1049 31.3358L40.9516 31.2073L40.9515 31.2074L41.1049 31.3358ZM39.6136 33.377L39.7789 33.4897L39.6136 33.377ZM39.3117 33.8186L39.1469 33.7052L39.1464 33.706L39.3117 33.8186ZM39.2877 33.8537L39.1224 33.7411L39.2877 33.8537ZM33.3838 39.7706L33.472 39.9502L33.4728 39.9498L33.3838 39.7706ZM23.8454 38.5692L23.9486 38.3979L23.948 38.3975L23.8454 38.5692ZM21.3525 37.263L21.425 37.0767L21.4239 37.0763L21.3525 37.263ZM14.8067 40.4127L14.956 40.5458L14.9562 40.5455L14.8067 40.4127ZM10.56 45.1495L10.4118 45.0152L10.4118 45.0152L10.56 45.1495ZM11.0598 48.1668L10.9638 48.3423L10.964 48.3424L11.0598 48.1668ZM47.278 49.1341L47.2224 48.9419L47.2224 48.942L47.278 49.1341ZM20.5772 25.473C16.5117 25.473 13.2501 22.5455 13.2501 18.9976H12.8501C12.8501 22.8101 16.3372 25.873 20.5772 25.873V25.473ZM27.9044 18.9976C27.9044 22.5455 24.6398 25.473 20.5772 25.473V25.873C24.8142 25.873 28.3044 22.8102 28.3044 18.9976H27.9044ZM20.5772 12.5223C24.6398 12.5223 27.9044 15.4498 27.9044 18.9976H28.3044C28.3044 15.1851 24.8142 12.1223 20.5772 12.1223V12.5223ZM13.2501 18.9976C13.2501 15.4498 16.5117 12.5223 20.5772 12.5223V12.1223C16.3372 12.1223 12.8501 15.1851 12.8501 18.9976H13.2501ZM54.498 36.2579C55.4731 38.4743 54.9734 41.1642 53.9067 43.4103L54.268 43.5819C55.3579 41.287 55.9063 38.4656 54.8641 36.0968L54.498 36.2579ZM53.0039 34.2358C53.6879 34.8394 54.1735 35.524 54.4981 36.2582L54.864 36.0965C54.5161 35.3097 53.9961 34.5779 53.2685 33.9359L53.0039 34.2358ZM47.4032 29.9875C49.4372 31.0993 51.1504 32.6049 53.0041 34.236L53.2683 33.9357C51.4205 32.3097 49.6746 30.7732 47.5951 29.6365L47.4032 29.9875ZM41.2581 31.4643C41.5853 31.0742 42.3538 30.2721 43.4259 29.7857C44.489 29.3035 45.852 29.1296 47.4024 29.987L47.596 29.6369C45.9174 28.7087 44.4194 28.8958 43.2607 29.4214C42.1111 29.9429 41.2969 30.7956 40.9516 31.2073L41.2581 31.4643ZM39.7789 33.4897C40.2605 32.7833 40.7292 32.0961 41.2582 31.4642L40.9515 31.2074C40.4077 31.857 39.928 32.5609 39.4484 33.2644L39.7789 33.4897ZM39.4764 33.9319C39.5781 33.7842 39.6787 33.6365 39.7789 33.4897L39.4484 33.2644C39.3482 33.4113 39.248 33.5583 39.1469 33.7052L39.4764 33.9319ZM39.4531 33.9663L39.477 33.9312L39.1464 33.706L39.1224 33.7411L39.4531 33.9663ZM33.4728 39.9498C36.3575 38.5176 38.0259 36.0617 39.4531 33.9663L39.1224 33.7411C37.6893 35.8454 36.0732 38.2121 33.2949 39.5915L33.4728 39.9498ZM23.7422 38.7405C26.0007 40.1011 29.2299 42.0322 33.472 39.9502L33.2957 39.5911C29.2624 41.5707 26.2094 39.7598 23.9486 38.3979L23.7422 38.7405ZM21.2799 37.4494C22.0829 37.7621 22.8932 38.233 23.7427 38.7408L23.948 38.3975C23.1012 37.8913 22.2638 37.4033 21.425 37.0767L21.2799 37.4494ZM14.9562 40.5455C16.3023 39.0299 17.4116 38.0732 18.4208 37.5868C19.4173 37.1067 20.321 37.0825 21.281 37.4498L21.4239 37.0763C20.3605 36.6693 19.3423 36.6988 18.2472 37.2265C17.1649 37.748 16.013 38.7533 14.6572 40.2798L14.9562 40.5455ZM10.7082 45.2838C12.1325 43.7124 13.5385 42.1356 14.956 40.5458L14.6574 40.2796C13.2397 41.8696 11.8348 43.4452 10.4118 45.0152L10.7082 45.2838ZM11.1558 47.9914C10.1254 47.4275 9.94068 46.1311 10.7082 45.2838L10.4118 45.0152C9.47697 46.0472 9.69819 47.6497 10.9638 48.3423L11.1558 47.9914ZM17.654 49.5045C15.1558 49.5045 12.9544 48.9731 11.1556 47.9913L10.964 48.3424C12.8303 49.3611 15.0997 49.9045 17.654 49.9045V49.5045ZM43.0404 49.5045H17.654V49.9045H43.0404V49.5045ZM47.2224 48.942C45.874 49.3327 44.4573 49.5045 43.0404 49.5045V49.9045C44.489 49.9045 45.9439 49.729 47.3337 49.3261L47.2224 48.942ZM53.9066 43.4106C52.6544 46.056 50.2545 48.064 47.2224 48.9419L47.3337 49.3262C50.4687 48.4184 52.9638 46.3372 54.2681 43.5817L53.9066 43.4106Z" fill="url(#paint2_linear_1_1284)" fill-opacity="0.5" mask="url(#path-3-inside-2_1_1284)"/>
</g>
<defs>
<filter id="filter0_b_1_1284" x="-24" y="-23.3574" width="110" height="103.186" filterUnits="userSpaceOnUse" color-interpolation-filters="sRGB">
<feFlood flood-opacity="0" result="BackgroundImageFix"/>
<feGaussianBlur in="BackgroundImageFix" stdDeviation="12"/>
<feComposite in2="SourceAlpha" operator="in" result="effect1_backgroundBlur_1_1284"/>
<feBlend mode="normal" in="SourceGraphic" in2="effect1_backgroundBlur_1_1284" result="shape"/>
</filter>
<filter id="filter1_bd_1_1284" x="-4.96289" y="-2.67773" width="75.1836" height="67.3818" filterUnits="userSpaceOnUse" color-interpolation-filters="sRGB">
<feFlood flood-opacity="0" result="BackgroundImageFix"/>
<feGaussianBlur in="BackgroundImageFix" stdDeviation="7.5"/>
<feComposite in2="SourceAlpha" operator="in" result="effect1_backgroundBlur_1_1284"/>
<feColorMatrix in="SourceAlpha" type="matrix" values="0 0 0 0 0 0 0 0 0 0 0 0 0 0 0 0 0 0 127 0" result="hardAlpha"/>
<feOffset dx="5" dy="5"/>
<feGaussianBlur stdDeviation="5"/>
<feColorMatrix type="matrix" values="0 0 0 0 0.0235294 0 0 0 0 0.403922 0 0 0 0 0.682353 0 0 0 0.5 0"/>
<feBlend mode="normal" in2="effect1_backgroundBlur_1_1284" result="effect2_dropShadow_1_1284"/>
<feBlend mode="normal" in="SourceGraphic" in2="effect2_dropShadow_1_1284" result="shape"/>
</filter>
<linearGradient id="paint0_linear_1_1284" x1="10.551" y1="7.83881" x2="43.4025" y2="53.7389" gradientUnits="userSpaceOnUse">
<stop stop-color="white" stop-opacity="0.25"/>
<stop offset="1" stop-color="white" stop-opacity="0.06"/>
</linearGradient>
<linearGradient id="paint1_linear_1_1284" x1="52.0173" y1="19.0727" x2="1.71159" y2="21.0552" gradientUnits="userSpaceOnUse">
<stop stop-color="white"/>
<stop offset="1" stop-color="white" stop-opacity="0.2"/>
</linearGradient>
<linearGradient id="paint2_linear_1_1284" x1="14.9044" y1="24.8622" x2="53.271" y2="25.1182" gradientUnits="userSpaceOnUse">
<stop stop-color="white"/>
<stop offset="1" stop-color="white" stop-opacity="0"/>
</linearGradient>
</defs>
</svg>
