<svg width="13" height="18" viewBox="0 0 13 18" fill="none" xmlns="http://www.w3.org/2000/svg">
<path d="M6.70963 13.905C6.79431 13.9653 6.89568 13.9977 6.99963 13.9977C7.10358 13.9977 7.20495 13.9653 7.28963 13.905C7.51963 13.745 12.8546 9.905 12.8546 5.855C12.8546 4.30216 12.2378 2.81292 11.1397 1.71489C10.0417 0.616865 8.55247 0 6.99963 0C5.44678 0 3.95754 0.616865 2.85952 1.71489C1.76149 2.81292 1.14463 4.30216 1.14463 5.855C1.14463 9.885 6.49963 13.745 6.70963 13.905ZM6.99963 1C8.28685 1.00132 9.52097 1.51326 10.4312 2.42346C11.3414 3.33366 11.8533 4.56778 11.8546 5.855C11.8546 8.88 8.08463 12.03 6.99963 12.855C5.90963 12.01 2.14463 8.855 2.14463 5.855C2.14595 4.56778 2.65788 3.33366 3.56809 2.42346C4.47829 1.51326 5.71241 1.00132 6.99963 1ZM9.99963 5.5C9.99963 4.90666 9.82368 4.32664 9.49404 3.83329C9.16439 3.33994 8.69586 2.95542 8.14768 2.72836C7.5995 2.5013 6.9963 2.44189 6.41436 2.55764C5.83241 2.6734 5.29786 2.95912 4.87831 3.37868C4.45875 3.79824 4.17303 4.33279 4.05727 4.91473C3.94152 5.49667 4.00093 6.09987 4.22799 6.64805C4.45505 7.19623 4.83957 7.66476 5.33292 7.99441C5.82626 8.32405 6.40628 8.5 6.99963 8.5C7.79528 8.5 8.55834 8.18393 9.12095 7.62132C9.68356 7.05871 9.99963 6.29565 9.99963 5.5ZM4.99963 5.5C4.99963 5.10444 5.11693 4.71776 5.33669 4.38886C5.55645 4.05996 5.86881 3.80362 6.23426 3.65224C6.59971 3.50087 7.00185 3.46126 7.38981 3.53843C7.77777 3.6156 8.13414 3.80608 8.41384 4.08579C8.69355 4.36549 8.88403 4.72186 8.9612 5.10982C9.03837 5.49778 8.99876 5.89991 8.84739 6.26537C8.69601 6.63082 8.43967 6.94318 8.11077 7.16294C7.78187 7.3827 7.39519 7.5 6.99963 7.5C6.46919 7.5 5.96049 7.28929 5.58541 6.91421C5.21034 6.53914 4.99963 6.03043 4.99963 5.5ZM12.9696 17.67C12.9347 17.7666 12.8708 17.8502 12.7867 17.9092C12.7026 17.9683 12.6024 18 12.4996 18C12.4416 17.9999 12.3841 17.9898 12.3296 17.97L6.99963 16.03L1.66963 17.97C1.61513 17.9898 1.5576 17.9999 1.49963 18C1.38209 17.9999 1.26835 17.9583 1.1784 17.8827C1.08844 17.807 1.02801 17.7021 1.00772 17.5863C0.987429 17.4705 1.00858 17.3513 1.06744 17.2496C1.12631 17.1478 1.21914 17.0701 1.32963 17.03L5.53463 15.5L1.32963 13.97C1.26614 13.949 1.20751 13.9156 1.15718 13.8716C1.10686 13.8276 1.06587 13.7739 1.03665 13.7138C1.00742 13.6537 0.990545 13.5883 0.987023 13.5215C0.9835 13.4548 0.993402 13.388 1.01614 13.3251C1.03888 13.2623 1.07399 13.2046 1.11941 13.1555C1.16482 13.1065 1.21961 13.067 1.28054 13.0395C1.34146 13.012 1.40729 12.997 1.47412 12.9953C1.54095 12.9937 1.60743 13.0055 1.66963 13.03L6.99963 14.97L12.3296 13.03C12.4532 12.9892 12.5879 12.9982 12.7049 13.0551C12.822 13.112 12.9122 13.2123 12.9565 13.3347C13.0008 13.4571 12.9956 13.592 12.942 13.7106C12.8884 13.8292 12.7907 13.9223 12.6696 13.97L8.46463 15.5L12.6696 17.03C12.7942 17.0751 12.8958 17.1679 12.9521 17.2879C13.0084 17.4079 13.0147 17.5453 12.9696 17.67Z" fill="#1A1A1A" fill-opacity="0.3"/>
</svg>
