<svg width="109" height="97" viewBox="0 0 109 97" fill="none" xmlns="http://www.w3.org/2000/svg">
<g filter="url(#filter0_b_1_3585)">
<mask id="path-1-outside-1_1_3585" maskUnits="userSpaceOnUse" x="0" y="0" width="109" height="97" fill="black">
<rect fill="white" width="109" height="97"/>
<path d="M54.607 1C23.5235 1 1 23.5488 1 48.5714C1 56.5633 3.6215 64.7932 8.2225 72.3095C9.0785 73.5463 9.1855 75.1162 8.597 76.5909L5.0125 87.2469C4.21 89.8157 6.671 91.7186 9.3995 90.9574L20.2065 88.1032C23.149 87.2469 25.4495 88.341 28.1833 89.8157C35.9944 93.9069 45.726 96 54.5 96C81.036 96 108 77.7802 108 48.4286C108 23.1207 84.995 1 54.607 1Z"/>
</mask>
<path d="M54.607 1C23.5235 1 1 23.5488 1 48.5714C1 56.5633 3.6215 64.7932 8.2225 72.3095C9.0785 73.5463 9.1855 75.1162 8.597 76.5909L5.0125 87.2469C4.21 89.8157 6.671 91.7186 9.3995 90.9574L20.2065 88.1032C23.149 87.2469 25.4495 88.341 28.1833 89.8157C35.9944 93.9069 45.726 96 54.5 96C81.036 96 108 77.7802 108 48.4286C108 23.1207 84.995 1 54.607 1Z" fill="#6965A9" fill-opacity="0.5"/>
<path d="M54.607 2C55.1593 2 55.607 1.55228 55.607 1C55.607 0.447715 55.1593 0 54.607 0V2ZM8.2225 72.3095L7.36961 72.8316C7.37937 72.8475 7.38958 72.8632 7.40022 72.8785L8.2225 72.3095ZM8.597 76.5909L7.66822 76.2203C7.6614 76.2373 7.65505 76.2546 7.64919 76.2721L8.597 76.5909ZM5.0125 87.2469L4.06469 86.928C4.06238 86.9349 4.06015 86.9418 4.05799 86.9487L5.0125 87.2469ZM9.3995 90.9574L9.14412 89.9905L9.1308 89.9942L9.3995 90.9574ZM20.2065 88.1032L20.4619 89.07C20.4699 89.0679 20.4779 89.0657 20.4859 89.0633L20.2065 88.1032ZM28.1833 89.8157L27.7086 90.6959L27.7194 90.7016L28.1833 89.8157ZM54.607 0C54.0547 0 53.607 0.447715 53.607 1C53.607 1.55228 54.0547 2 54.607 2V0ZM54.607 0C23.0502 0 0 22.9207 0 48.5714H2C2 24.1769 23.9968 2 54.607 2V0ZM0 48.5714C0 56.7795 2.69056 65.1878 7.36961 72.8316L9.07539 71.7874C4.55244 64.3986 2 56.3472 2 48.5714H0ZM7.40022 72.8785C8.03977 73.8027 8.15023 75.0124 7.66822 76.2203L9.52578 76.9615C10.2208 75.22 10.1172 73.29 9.04478 71.7404L7.40022 72.8785ZM7.64919 76.2721L4.06469 86.928L5.96031 87.5657L9.54481 76.9097L7.64919 76.2721ZM4.05799 86.9487C3.533 88.6292 4.08232 90.1688 5.24793 91.1243C6.3833 92.055 8.02584 92.3788 9.6682 91.9207L9.1308 89.9942C8.04466 90.2972 7.09245 90.0502 6.51582 89.5775C5.96943 89.1296 5.6895 88.4334 5.96701 87.5451L4.05799 86.9487ZM9.65486 91.9243L20.4619 89.07L19.9511 87.1363L9.14414 89.9906L9.65486 91.9243ZM20.4859 89.0633C22.9983 88.3322 24.9628 89.2147 27.7086 90.6958L28.6581 88.9356C25.9362 87.4673 23.2997 86.1615 19.9271 87.143L20.4859 89.0633ZM27.7194 90.7016C35.6918 94.8773 45.5864 97 54.5 97V95C45.8656 95 36.2969 92.9364 28.6473 88.9299L27.7194 90.7016ZM54.5 97C81.3906 97 109 78.5113 109 48.4286H107C107 77.0491 80.6814 95 54.5 95V97ZM109 48.4286C109 22.4821 85.4568 0 54.607 0V2C84.5332 2 107 23.7593 107 48.4286H109Z" fill="url(#paint0_linear_1_3585)" mask="url(#path-1-outside-1_1_3585)"/>
</g>
<g filter="url(#filter1_bd_1_3585)">
<mask id="path-3-inside-2_1_3585" fill="white">
<path fill-rule="evenodd" clip-rule="evenodd" d="M54.3949 54.7082C50.5964 54.6606 47.5469 51.949 47.5469 48.5715C47.5469 45.2415 50.6499 42.4823 54.3949 42.5299C58.1934 42.5299 61.2429 45.2415 61.2429 48.619C61.2429 51.949 58.1934 54.7082 54.3949 54.7082ZM29.7298 54.7085C25.9848 54.7085 22.8818 51.9494 22.8818 48.6194C22.8818 45.2418 25.9313 42.5303 29.7298 42.5303C33.5283 42.5303 36.5778 45.2418 36.5778 48.6194C36.5778 51.9494 33.5283 54.661 29.7298 54.7085ZM72.2101 48.6194C72.2101 51.9494 75.2596 54.7085 79.0581 54.7085C82.8566 54.7085 85.9061 51.9494 85.9061 48.6194C85.9061 45.2418 82.8566 42.5303 79.0581 42.5303C75.2596 42.5303 72.2101 45.2418 72.2101 48.6194Z"/>
</mask>
<path fill-rule="evenodd" clip-rule="evenodd" d="M54.3949 54.7082C50.5964 54.6606 47.5469 51.949 47.5469 48.5715C47.5469 45.2415 50.6499 42.4823 54.3949 42.5299C58.1934 42.5299 61.2429 45.2415 61.2429 48.619C61.2429 51.949 58.1934 54.7082 54.3949 54.7082ZM29.7298 54.7085C25.9848 54.7085 22.8818 51.9494 22.8818 48.6194C22.8818 45.2418 25.9313 42.5303 29.7298 42.5303C33.5283 42.5303 36.5778 45.2418 36.5778 48.6194C36.5778 51.9494 33.5283 54.661 29.7298 54.7085ZM72.2101 48.6194C72.2101 51.9494 75.2596 54.7085 79.0581 54.7085C82.8566 54.7085 85.9061 51.9494 85.9061 48.6194C85.9061 45.2418 82.8566 42.5303 79.0581 42.5303C75.2596 42.5303 72.2101 45.2418 72.2101 48.6194Z" fill="url(#paint1_linear_1_3585)"/>
<path d="M54.3949 54.7082L54.3899 55.1082H54.3949V54.7082ZM54.3949 42.5299L54.3898 42.9299H54.3949V42.5299ZM29.7298 54.7085V55.1086L29.7348 55.1085L29.7298 54.7085ZM47.1469 48.5715C47.1469 52.2131 50.4205 55.0584 54.3899 55.1081L54.3999 54.3082C50.7723 54.2628 47.9469 51.685 47.9469 48.5715H47.1469ZM54.4 42.1299C50.4749 42.0801 47.1469 44.978 47.1469 48.5715H47.9469C47.9469 45.5049 50.8249 42.8846 54.3898 42.9299L54.4 42.1299ZM61.6429 48.619C61.6429 44.9777 58.3688 42.1299 54.3949 42.1299V42.9299C58.0179 42.9299 60.8429 45.5053 60.8429 48.619H61.6429ZM54.3949 55.1082C58.371 55.1082 61.6429 52.2109 61.6429 48.619H60.8429C60.8429 51.6871 58.0158 54.3082 54.3949 54.3082V55.1082ZM22.4818 48.6194C22.4818 52.2132 25.8094 55.1085 29.7298 55.1085V54.3085C26.1603 54.3085 23.2818 51.6856 23.2818 48.6194H22.4818ZM29.7298 42.1303C25.7559 42.1303 22.4818 44.9781 22.4818 48.6194H23.2818C23.2818 45.5056 26.1068 42.9303 29.7298 42.9303V42.1303ZM36.9778 48.6194C36.9778 44.9781 33.7038 42.1303 29.7298 42.1303V42.9303C33.3529 42.9303 36.1778 45.5056 36.1778 48.6194H36.9778ZM29.7348 55.1085C33.7021 55.0588 36.9778 52.2153 36.9778 48.6194H36.1778C36.1778 51.6835 33.3545 54.2631 29.7248 54.3086L29.7348 55.1085ZM79.0581 54.3085C75.4372 54.3085 72.6101 51.6875 72.6101 48.6194H71.8101C71.8101 52.2113 75.082 55.1085 79.0581 55.1085V54.3085ZM85.5061 48.6194C85.5061 51.6875 82.679 54.3085 79.0581 54.3085V55.1085C83.0342 55.1085 86.3061 52.2113 86.3061 48.6194H85.5061ZM79.0581 42.9303C82.6812 42.9303 85.5061 45.5056 85.5061 48.6194H86.3061C86.3061 44.9781 83.0321 42.1303 79.0581 42.1303V42.9303ZM72.6101 48.6194C72.6101 45.5056 75.4351 42.9303 79.0581 42.9303V42.1303C75.0841 42.1303 71.8101 44.9781 71.8101 48.6194H72.6101Z" fill="url(#paint2_linear_1_3585)" mask="url(#path-3-inside-2_1_3585)"/>
</g>
<defs>
<filter id="filter0_b_1_3585" x="-24" y="-24" width="157" height="145" filterUnits="userSpaceOnUse" color-interpolation-filters="sRGB">
<feFlood flood-opacity="0" result="BackgroundImageFix"/>
<feGaussianBlur in="BackgroundImageFix" stdDeviation="12"/>
<feComposite in2="SourceAlpha" operator="in" result="effect1_backgroundBlur_1_3585"/>
<feBlend mode="normal" in="SourceGraphic" in2="effect1_backgroundBlur_1_3585" result="shape"/>
</filter>
<filter id="filter1_bd_1_3585" x="7.88184" y="27.5293" width="93.0242" height="42.1797" filterUnits="userSpaceOnUse" color-interpolation-filters="sRGB">
<feFlood flood-opacity="0" result="BackgroundImageFix"/>
<feGaussianBlur in="BackgroundImageFix" stdDeviation="7.5"/>
<feComposite in2="SourceAlpha" operator="in" result="effect1_backgroundBlur_1_3585"/>
<feColorMatrix in="SourceAlpha" type="matrix" values="0 0 0 0 0 0 0 0 0 0 0 0 0 0 0 0 0 0 127 0" result="hardAlpha"/>
<feOffset dx="5" dy="5"/>
<feGaussianBlur stdDeviation="5"/>
<feColorMatrix type="matrix" values="0 0 0 0 0.411765 0 0 0 0 0.396078 0 0 0 0 0.662745 0 0 0 0.5 0"/>
<feBlend mode="normal" in2="effect1_backgroundBlur_1_3585" result="effect2_dropShadow_1_3585"/>
<feBlend mode="normal" in="SourceGraphic" in2="effect2_dropShadow_1_3585" result="shape"/>
</filter>
<linearGradient id="paint0_linear_1_3585" x1="18.0327" y1="12.0676" x2="76.7417" y2="93.9649" gradientUnits="userSpaceOnUse">
<stop stop-color="white" stop-opacity="0.25"/>
<stop offset="1" stop-color="white" stop-opacity="0"/>
</linearGradient>
<linearGradient id="paint1_linear_1_3585" x1="81.4378" y1="44.7286" x2="13.1052" y2="56.2576" gradientUnits="userSpaceOnUse">
<stop stop-color="white"/>
<stop offset="1" stop-color="white" stop-opacity="0.2"/>
</linearGradient>
<linearGradient id="paint2_linear_1_3585" x1="32.9143" y1="43.9482" x2="35.3354" y2="59.4654" gradientUnits="userSpaceOnUse">
<stop stop-color="white" stop-opacity="0.25"/>
<stop offset="1" stop-color="white" stop-opacity="0"/>
</linearGradient>
</defs>
</svg>
