<svg width="28" height="25" viewBox="0 0 28 25" fill="none" xmlns="http://www.w3.org/2000/svg">
<path d="M15.7011 6.72235L15.7366 18.6077L20.0586 14.8032L22.3982 16.9108L14.0866 24.2272L5.73162 16.9605L8.05864 14.8389L12.4033 18.6177L12.3678 6.73229L15.7011 6.72235ZM24.0171 0.864208C24.9337 0.861476 25.7193 1.14472 26.3738 1.71396C27.0282 2.28319 27.3567 2.96885 27.3591 3.77093L27.3721 8.14591L24.0388 8.15584L24.0257 3.78086L4.02583 3.84048L4.03888 8.21546L0.705557 8.2254L0.692516 3.85041C0.690125 3.04834 1.01446 2.36073 1.66554 1.78761C2.31661 1.21449 3.10048 0.926558 4.01714 0.923826L24.0171 0.864208Z" fill="#1A1A1A" fill-opacity="0.3"/>
</svg>
