<svg width="61" height="65" viewBox="0 0 61 65" fill="none" xmlns="http://www.w3.org/2000/svg">
<g filter="url(#filter0_b_1_1290)">
<mask id="path-1-outside-1_1_1290" maskUnits="userSpaceOnUse" x="0" y="0.642578" width="61" height="65" fill="black">
<rect fill="white" y="0.642578" width="61" height="65"/>
<path fill-rule="evenodd" clip-rule="evenodd" d="M10.9804 18.1405C10.9804 27.2991 19.6642 34.6385 30.5004 34.6385C41.3326 34.6385 50.0204 27.2991 50.0204 18.1405C50.0204 8.98201 41.3326 1.64258 30.5004 1.64258C19.6642 1.64258 10.9804 8.98201 10.9804 18.1405ZM60 53.3199C60 44.8418 46.4106 42.7207 30.5 42.7207C14.503 42.7207 1 44.9149 1 53.3995C1 61.8776 14.5894 63.9987 30.5 63.9987C46.497 63.9987 60 61.8045 60 53.3199Z"/>
</mask>
<path fill-rule="evenodd" clip-rule="evenodd" d="M10.9804 18.1405C10.9804 27.2991 19.6642 34.6385 30.5004 34.6385C41.3326 34.6385 50.0204 27.2991 50.0204 18.1405C50.0204 8.98201 41.3326 1.64258 30.5004 1.64258C19.6642 1.64258 10.9804 8.98201 10.9804 18.1405ZM60 53.3199C60 44.8418 46.4106 42.7207 30.5 42.7207C14.503 42.7207 1 44.9149 1 53.3995C1 61.8776 14.5894 63.9987 30.5 63.9987C46.497 63.9987 60 61.8045 60 53.3199Z" fill="#6965A9" fill-opacity="0.5"/>
<path d="M30.5004 35.6385C19.2762 35.6385 9.98037 28.0024 9.98037 18.1405H11.9804C11.9804 26.5957 20.0523 33.6385 30.5004 33.6385V35.6385ZM51.0204 18.1405C51.0204 28.0025 41.7205 35.6385 30.5004 35.6385V33.6385C40.9448 33.6385 49.0204 26.5956 49.0204 18.1405H51.0204ZM30.5004 0.642578C41.7205 0.642578 51.0204 8.27856 51.0204 18.1405H49.0204C49.0204 9.68547 40.9448 2.64258 30.5004 2.64258V0.642578ZM9.98037 18.1405C9.98037 8.27867 19.2762 0.642578 30.5004 0.642578V2.64258C20.0523 2.64258 11.9804 9.68535 11.9804 18.1405H9.98037ZM30.5 41.7207C38.4732 41.7207 45.9686 42.2491 51.4996 43.8819C54.2658 44.6985 56.6231 45.8144 58.3026 47.3488C60.0122 48.9108 61 50.8931 61 53.3199H59C59 51.5076 58.2891 50.0455 56.9536 48.8253C55.5878 47.5776 53.5533 46.5735 50.9333 45.8001C45.692 44.2528 38.4374 43.7207 30.5 43.7207V41.7207ZM0 53.3995C0 50.9739 0.979996 48.9869 2.68162 47.4166C4.35368 45.8736 6.70268 44.7471 9.46434 43.9203C14.9858 42.2675 22.4823 41.7207 30.5 41.7207V43.7207C22.5207 43.7207 15.2671 44.271 10.0379 45.8363C7.42419 46.6188 5.39762 47.6317 4.03797 48.8864C2.70788 50.1138 2 51.5828 2 53.3995H0ZM30.5 64.9987C22.5268 64.9987 15.0314 64.4703 9.5004 62.8375C6.73419 62.0209 4.37693 60.905 2.69744 59.3706C0.987774 57.8086 0 55.8263 0 53.3995H2C2 55.2118 2.7109 56.6739 4.04645 57.894C5.41218 59.1418 7.44669 60.1459 10.0667 60.9193C15.308 62.4666 22.5626 62.9987 30.5 62.9987V64.9987ZM61 53.3199C61 55.7455 60.02 57.7325 58.3184 59.3028C56.6463 60.8458 54.2973 61.9723 51.5357 62.799C46.0142 64.4519 38.5177 64.9987 30.5 64.9987V62.9987C38.4793 62.9987 45.7329 62.4484 50.9621 60.883C53.5758 60.1006 55.6024 59.0877 56.962 57.833C58.2921 56.6056 59 55.1366 59 53.3199H61Z" fill="url(#paint0_linear_1_1290)" mask="url(#path-1-outside-1_1_1290)"/>
</g>
<defs>
<filter id="filter0_b_1_1290" x="-15" y="-14.3574" width="91" height="94.3564" filterUnits="userSpaceOnUse" color-interpolation-filters="sRGB">
<feFlood flood-opacity="0" result="BackgroundImageFix"/>
<feGaussianBlur in="BackgroundImageFix" stdDeviation="7.5"/>
<feComposite in2="SourceAlpha" operator="in" result="effect1_backgroundBlur_1_1290"/>
<feBlend mode="normal" in="SourceGraphic" in2="effect1_backgroundBlur_1_1290" result="shape"/>
</filter>
<linearGradient id="paint0_linear_1_1290" x1="50.6082" y1="8.90714" x2="10.4244" y2="55.997" gradientUnits="userSpaceOnUse">
<stop stop-color="white" stop-opacity="0.25"/>
<stop offset="1" stop-color="white" stop-opacity="0"/>
</linearGradient>
</defs>
</svg>
