<svg width="136" height="113" viewBox="0 0 136 113" fill="none" xmlns="http://www.w3.org/2000/svg">
<path d="M66.0166 70.4695C65.474 71.601 65.5171 72.9321 66.1285 74.0278L74.8165 89.083C75.5517 90.3594 75.4799 91.9519 74.634 93.158C73.8213 94.3853 72.383 95.0268 70.9387 94.817L53.8658 92.5381C53.2702 92.4533 52.6643 92.5134 52.0916 92.7059L51.2138 93.0295C50.9259 93.1876 50.6633 93.3957 50.4455 93.6467L38.8367 106.539C38.2572 107.161 37.4999 107.584 36.6668 107.747C34.617 108.087 32.6718 106.711 32.2835 104.646L29.3578 87.4669C29.1251 86.2204 28.3087 85.1669 27.1687 84.6408L11.3405 77.4871C10.0164 76.8879 9.15682 75.572 9.13511 74.1067C9.10164 72.6496 9.8682 71.2945 11.1292 70.5885L26.3761 62.2928C27.5544 61.7137 28.3582 60.5639 28.5075 59.2472L30.3002 41.9245C30.3506 41.5349 30.459 41.1535 30.6293 40.8013L30.8381 40.4645C30.929 40.2381 31.0531 40.0327 31.2061 39.8465L31.512 39.5853L31.98 39.153L33.3436 38.6504C34.6075 38.3292 35.9453 38.671 36.9023 39.5651L49.367 51.5582C50.2713 52.4383 51.5466 52.8106 52.7744 52.5621L69.7237 48.99C71.1549 48.6851 72.6342 49.216 73.5567 50.3603C74.4544 51.5175 74.6078 53.0937 73.9514 54.4081L66.0166 70.4695Z" fill="url(#paint0_linear_1_4645)"/>
<g opacity="0.5" filter="url(#filter0_f_1_4645)">
<path d="M51.0879 61.7578C43.675 61.7578 37.6587 67.8436 37.6587 75.339C37.6587 82.8372 43.675 88.9202 51.0879 88.9202C58.5143 88.9202 64.5171 82.8372 64.5171 75.339C64.5171 67.8436 58.5143 61.7578 51.0879 61.7578Z" fill="#0667AE"/>
</g>
<g filter="url(#filter1_b_1_4645)">
<path d="M105.547 67.9394C104.179 68.7379 103.286 70.1684 103.157 71.7609L101.682 93.8492C101.556 95.7209 100.358 97.3433 98.6191 98.0017C96.9001 98.7062 94.9359 98.3441 93.5654 97.0827L77.2228 82.3829C76.6564 81.8646 75.9772 81.4911 75.2394 81.2808L74.0886 80.9883C73.6745 80.947 73.2518 80.9766 72.846 81.0835L51.5577 86.2705C50.5104 86.5066 49.4156 86.4065 48.4254 85.9768C46.031 84.8569 44.9555 82.0086 46.0022 79.558L55.0314 59.3895C55.665 57.9114 55.5491 56.2155 54.7214 54.8409L43.1221 35.9134C42.1523 34.3292 42.1759 32.3263 43.1855 30.7703C44.1771 29.2143 45.9378 28.3423 47.7609 28.5088L69.635 30.7757C71.2818 31.0161 72.937 30.3866 74.0217 29.11L88.1124 12.1909C88.4399 11.8175 88.8226 11.4947 89.2497 11.2472L89.7066 11.0437C89.9617 10.8711 90.2369 10.7447 90.529 10.6591L91.0346 10.605L91.8311 10.4878L93.6189 10.9421C95.1739 11.5154 96.3394 12.8388 96.7155 14.4685L101.369 36.0595C101.699 37.6364 102.778 38.9469 104.243 39.5705L124.579 48.0301C126.298 48.741 127.479 50.3651 127.643 52.2329C127.771 54.0964 126.822 55.864 125.206 56.7728L105.547 67.9394Z" fill="#0667AE" fill-opacity="0.35"/>
<path d="M102.181 93.885L102.181 93.8854C102.041 95.9484 100.722 97.7386 98.8037 98.4677C96.9069 99.2423 94.7416 98.8417 93.2307 97.4526C93.23 97.452 93.2293 97.4513 93.2287 97.4507L76.8903 82.7548L76.8871 82.752C76.3817 82.2894 75.7743 81.9542 75.1116 81.7642L74.0056 81.4831C73.6594 81.4526 73.3092 81.4797 72.975 81.5677L72.9661 81.5701L72.9661 81.57L51.6778 86.757L51.6695 86.7591L51.6694 86.759C50.52 87.0181 49.3172 86.9084 48.2288 86.4361L48.2159 86.4305L48.216 86.4303C45.5723 85.1939 44.3918 82.0542 45.5431 79.3591L45.5464 79.3512L45.5465 79.3513L54.5724 59.19C54.5729 59.1888 54.5734 59.1876 54.5739 59.1864C55.1425 57.857 55.0374 56.3337 54.2952 55.0999C54.2949 55.0993 54.2945 55.0987 54.2942 55.0982L42.6969 36.174L42.6968 36.1738C41.6262 34.4249 41.6522 32.2148 42.7654 30.4977C43.8557 28.7881 45.7935 27.8266 47.8039 28.0102L47.8099 28.0108L47.8099 28.0108L69.6841 30.2777C69.691 30.2784 69.6978 30.2793 69.7047 30.2803C71.1791 30.4955 72.6642 29.9327 73.6394 28.7861C73.6399 28.7855 73.6404 28.7849 73.6409 28.7843L87.7284 11.869L87.7366 11.8592L87.7367 11.8593C88.0968 11.4488 88.5207 11.0903 88.9983 10.8135C89.0135 10.8047 89.0292 10.7967 89.0452 10.7895L89.4637 10.6031C89.7529 10.4131 90.0624 10.2736 90.3869 10.1785C90.4152 10.1702 90.4443 10.1645 90.4736 10.1613L90.9695 10.1082L91.7564 9.99249C91.8215 9.98291 91.8878 9.98634 91.9517 10.0026L93.7395 10.4569C93.7563 10.4612 93.773 10.4663 93.7893 10.4724C95.5039 11.1044 96.7879 12.5634 97.202 14.3578L97.2037 14.3649L97.2036 14.3649L101.857 35.9559L101.857 35.9587C102.154 37.3743 103.122 38.5496 104.435 39.109C104.435 39.1093 104.436 39.1095 104.437 39.1098L124.767 47.5674L102.181 93.885ZM102.181 93.885L103.655 71.8038C103.655 71.8026 103.655 71.8014 103.655 71.8002C103.772 70.371 104.574 69.0892 105.797 68.3738L105.794 68.3753L105.547 67.9394L105.8 68.3724L125.452 57.2097L102.181 93.885ZM128.141 52.2008L128.141 52.2008C128.283 54.2554 127.236 56.2053 125.453 57.2088L125.453 57.2086L128.141 52.2008ZM128.141 52.2008L128.14 52.1915M128.141 52.2008L128.14 52.1915M128.14 52.1915C127.961 50.1396 126.663 48.3515 124.768 47.5678L128.14 52.1915Z" stroke="url(#paint1_linear_1_4645)" stroke-linecap="round" stroke-linejoin="round"/>
</g>
<defs>
<filter id="filter0_f_1_4645" x="17.6587" y="41.7578" width="66.8584" height="67.1621" filterUnits="userSpaceOnUse" color-interpolation-filters="sRGB">
<feFlood flood-opacity="0" result="BackgroundImageFix"/>
<feBlend mode="normal" in="SourceGraphic" in2="BackgroundImageFix" result="shape"/>
<feGaussianBlur stdDeviation="10" result="effect1_foregroundBlur_1_4645"/>
</filter>
<filter id="filter1_b_1_4645" x="17.4126" y="-14.5137" width="135.241" height="137.872" filterUnits="userSpaceOnUse" color-interpolation-filters="sRGB">
<feFlood flood-opacity="0" result="BackgroundImageFix"/>
<feGaussianBlur in="BackgroundImageFix" stdDeviation="12"/>
<feComposite in2="SourceAlpha" operator="in" result="effect1_backgroundBlur_1_4645"/>
<feBlend mode="normal" in="SourceGraphic" in2="effect1_backgroundBlur_1_4645" result="shape"/>
</filter>
<linearGradient id="paint0_linear_1_4645" x1="13.5954" y1="65.1961" x2="85.4823" y2="131.796" gradientUnits="userSpaceOnUse">
<stop stop-color="#0667AE" stop-opacity="0.5"/>
<stop offset="1" stop-color="#0667AE"/>
</linearGradient>
<linearGradient id="paint1_linear_1_4645" x1="61.7195" y1="12.9426" x2="96.5656" y2="92.6314" gradientUnits="userSpaceOnUse">
<stop stop-color="white" stop-opacity="0.25"/>
<stop offset="1" stop-color="white" stop-opacity="0"/>
</linearGradient>
</defs>
</svg>
