<svg width="112" height="117" viewBox="0 0 112 117" fill="none" xmlns="http://www.w3.org/2000/svg">
<path fill-rule="evenodd" clip-rule="evenodd" d="M31.1951 22.169C30.0737 23.4618 27.5361 27.8998 26.3052 30.1571L26.3477 30.176L11.7358 57.2021C5.15044 69.3824 8.62785 80.6934 20.5277 86.5274L49.9206 100.938C61.933 106.827 73.4629 103.069 80.0045 90.9692L95.997 61.3896L91.9913 59.4257L97.5125 61.8859C98.6438 59.5794 100.808 54.9323 101.179 53.3525C103.504 44.3985 99.7646 36.2843 91.1373 31.4793L55.8718 15.7656C46.3782 12.4484 37.3116 14.8136 31.1951 22.169Z" fill="url(#paint0_linear_1_4638)"/>
<g opacity="0.5" filter="url(#filter0_f_1_4638)">
<path d="M71.1999 34.1037L50.9018 25.8998C43.5392 22.924 37.3618 25.8818 34.1222 33.9186L23.1501 61.1386C19.8574 69.3072 22.2961 75.6248 29.6587 78.6005L49.9567 86.8044C57.438 89.8282 63.4518 86.9269 66.7445 78.7582L77.7166 51.5383C80.9562 43.5014 78.6812 37.1274 71.1999 34.1037Z" fill="#0667AE"/>
</g>
<g filter="url(#filter1_b_1_4638)">
<mask id="path-3-outside-1_1_4638" maskUnits="userSpaceOnUse" x="30.0322" y="32.8682" width="82" height="84" fill="black">
<rect fill="white" x="30.0322" y="32.8682" width="82" height="84"/>
<path fill-rule="evenodd" clip-rule="evenodd" d="M31.7308 49.9443C31.3212 51.6005 31.1033 56.7458 31.0467 59.3383H110.407C110.351 56.7414 110.133 51.5564 109.728 49.9443C107.636 40.7138 100.446 34.7559 90.3808 33.8682H51.0774C40.9248 34.7117 33.8223 40.6299 31.7308 49.9443ZM31.0322 59.3391V92.9621C31.0322 106.918 39.8341 115.619 53.6469 115.619H87.7651C101.709 115.619 110.423 107.095 110.423 93.2315V59.3391H31.0322ZM49.1577 78.5688C49.2448 80.596 50.9006 82.1903 52.905 82.0976C54.8658 82.0137 56.4345 80.3354 56.3473 78.2994C56.3037 76.3163 54.6915 74.7661 52.7307 74.7661C50.7263 74.8589 49.1577 76.5372 49.1577 78.5688ZM67.0667 78.5688C67.1538 80.596 68.8096 82.1903 70.814 82.0976C72.7748 82.0137 74.3434 80.3354 74.2563 78.2994C74.2127 76.3163 72.6005 74.7661 70.6397 74.7661C68.6353 74.8589 67.0667 76.5372 67.0667 78.5688ZM84.9765 94.5963C84.9765 96.6279 86.5887 98.3062 88.5931 98.3504C90.6411 98.3504 92.2969 96.6721 92.2969 94.5963C92.2969 92.525 90.6411 90.8467 88.5931 90.8467H88.5495C86.5452 90.8909 84.9329 92.5647 84.9765 94.5963ZM70.814 98.1297C68.8096 98.2224 67.1538 96.628 67.0667 94.5964C67.0667 92.5648 68.6353 90.891 70.6397 90.7982C72.6005 90.7982 74.2127 92.3484 74.2563 94.3359C74.3434 96.3675 72.7748 98.0457 70.814 98.1297ZM52.8617 98.1297C50.8573 98.2224 49.2015 96.628 49.1144 94.5964C49.1144 92.5648 50.683 90.891 52.6874 90.7982C54.6482 90.7982 56.2604 92.3484 56.304 94.3359C56.3912 96.3675 54.8225 98.0457 52.8617 98.1297ZM88.5936 74.8147C86.5892 74.8589 85.0205 76.493 85.0205 78.5246V78.5688C85.0641 80.596 86.7199 82.1418 88.7243 82.0976C90.6851 82.0578 92.2538 80.3796 92.2102 78.3479C92.123 76.4003 90.5544 74.8147 88.5936 74.8147Z"/>
</mask>
<path fill-rule="evenodd" clip-rule="evenodd" d="M31.7308 49.9443C31.3212 51.6005 31.1033 56.7458 31.0467 59.3383H110.407C110.351 56.7414 110.133 51.5564 109.728 49.9443C107.636 40.7138 100.446 34.7559 90.3808 33.8682H51.0774C40.9248 34.7117 33.8223 40.6299 31.7308 49.9443ZM31.0322 59.3391V92.9621C31.0322 106.918 39.8341 115.619 53.6469 115.619H87.7651C101.709 115.619 110.423 107.095 110.423 93.2315V59.3391H31.0322ZM49.1577 78.5688C49.2448 80.596 50.9006 82.1903 52.905 82.0976C54.8658 82.0137 56.4345 80.3354 56.3473 78.2994C56.3037 76.3163 54.6915 74.7661 52.7307 74.7661C50.7263 74.8589 49.1577 76.5372 49.1577 78.5688ZM67.0667 78.5688C67.1538 80.596 68.8096 82.1903 70.814 82.0976C72.7748 82.0137 74.3434 80.3354 74.2563 78.2994C74.2127 76.3163 72.6005 74.7661 70.6397 74.7661C68.6353 74.8589 67.0667 76.5372 67.0667 78.5688ZM84.9765 94.5963C84.9765 96.6279 86.5887 98.3062 88.5931 98.3504C90.6411 98.3504 92.2969 96.6721 92.2969 94.5963C92.2969 92.525 90.6411 90.8467 88.5931 90.8467H88.5495C86.5452 90.8909 84.9329 92.5647 84.9765 94.5963ZM70.814 98.1297C68.8096 98.2224 67.1538 96.628 67.0667 94.5964C67.0667 92.5648 68.6353 90.891 70.6397 90.7982C72.6005 90.7982 74.2127 92.3484 74.2563 94.3359C74.3434 96.3675 72.7748 98.0457 70.814 98.1297ZM52.8617 98.1297C50.8573 98.2224 49.2015 96.628 49.1144 94.5964C49.1144 92.5648 50.683 90.891 52.6874 90.7982C54.6482 90.7982 56.2604 92.3484 56.304 94.3359C56.3912 96.3675 54.8225 98.0457 52.8617 98.1297ZM88.5936 74.8147C86.5892 74.8589 85.0205 76.493 85.0205 78.5246V78.5688C85.0641 80.596 86.7199 82.1418 88.7243 82.0976C90.6851 82.0578 92.2538 80.3796 92.2102 78.3479C92.123 76.4003 90.5544 74.8147 88.5936 74.8147Z" fill="#0667AE" fill-opacity="0.35"/>
<path d="M31.0467 59.3383L30.0469 59.3165C30.041 59.5854 30.1437 59.8454 30.3319 60.0376C30.52 60.2299 30.7777 60.3383 31.0467 60.3383V59.3383ZM31.7308 49.9443L32.7015 50.1844C32.7032 50.1774 32.7049 50.1704 32.7065 50.1634L31.7308 49.9443ZM110.407 59.3383V60.3383C110.676 60.3383 110.934 60.2299 111.122 60.0377C111.31 59.8454 111.413 59.5854 111.407 59.3165L110.407 59.3383ZM109.728 49.9443L108.752 50.1653C108.754 50.1729 108.756 50.1806 108.758 50.1881L109.728 49.9443ZM90.3808 33.8682L90.4687 32.872C90.4395 32.8695 90.4102 32.8682 90.3808 32.8682V33.8682ZM51.0774 33.8682V32.8682C51.0498 32.8682 51.0222 32.8693 50.9946 32.8716L51.0774 33.8682ZM31.0322 59.3391V58.3391C30.4799 58.3391 30.0322 58.7868 30.0322 59.3391H31.0322ZM110.423 59.3391H111.423C111.423 58.7868 110.976 58.3391 110.423 58.3391V59.3391ZM52.905 82.0976L52.8622 81.0985L52.8588 81.0987L52.905 82.0976ZM49.1577 78.5688H48.1577C48.1577 78.5831 48.158 78.5974 48.1586 78.6117L49.1577 78.5688ZM56.3473 78.2994L55.3475 78.3213C55.3477 78.3283 55.3479 78.3352 55.3482 78.3421L56.3473 78.2994ZM52.7307 74.7661V73.7661C52.7153 73.7661 52.6999 73.7665 52.6845 73.7672L52.7307 74.7661ZM70.814 82.0976L70.7712 81.0985L70.7678 81.0987L70.814 82.0976ZM67.0667 78.5688H66.0667C66.0667 78.5831 66.067 78.5974 66.0676 78.6117L67.0667 78.5688ZM74.2563 78.2994L73.2565 78.3213C73.2567 78.3283 73.2569 78.3352 73.2572 78.3421L74.2563 78.2994ZM70.6397 74.7661V73.7661C70.6243 73.7661 70.6089 73.7665 70.5935 73.7672L70.6397 74.7661ZM88.5931 98.3504L88.5711 99.3502C88.5784 99.3503 88.5858 99.3504 88.5931 99.3504V98.3504ZM84.9765 94.5963H85.9765C85.9765 94.5892 85.9764 94.5821 85.9763 94.5749L84.9765 94.5963ZM88.5495 90.8467V89.8467C88.5422 89.8467 88.5349 89.8468 88.5275 89.847L88.5495 90.8467ZM67.0667 94.5964H66.0667C66.0667 94.6107 66.067 94.625 66.0676 94.6393L67.0667 94.5964ZM70.814 98.1297L70.7712 97.1306L70.7678 97.1307L70.814 98.1297ZM70.6397 90.7982V89.7982C70.6243 89.7982 70.6089 89.7986 70.5935 89.7993L70.6397 90.7982ZM74.2563 94.3359L73.2565 94.3578C73.2567 94.3648 73.2569 94.3717 73.2572 94.3787L74.2563 94.3359ZM49.1144 94.5964H48.1144C48.1144 94.6107 48.1147 94.625 48.1153 94.6393L49.1144 94.5964ZM52.8617 98.1297L52.8189 97.1306L52.8155 97.1307L52.8617 98.1297ZM52.6874 90.7982V89.7982C52.672 89.7982 52.6566 89.7986 52.6412 89.7993L52.6874 90.7982ZM56.304 94.3359L55.3043 94.3578C55.3044 94.3648 55.3046 94.3717 55.3049 94.3787L56.304 94.3359ZM88.5936 74.8147V73.8147C88.5862 73.8147 88.5789 73.8148 88.5715 73.815L88.5936 74.8147ZM85.0205 78.5688H84.0205C84.0205 78.5759 84.0206 78.5831 84.0208 78.5903L85.0205 78.5688ZM88.7243 82.0976L88.704 81.0978L88.7023 81.0978L88.7243 82.0976ZM92.2102 78.3479L93.21 78.3265C93.2098 78.3188 93.2095 78.311 93.2092 78.3032L92.2102 78.3479ZM32.0464 59.3601C32.0745 58.0744 32.1427 56.1536 32.2544 54.3521C32.3685 52.5133 32.5225 50.9082 32.7015 50.1844L30.76 49.7043C30.5294 50.6367 30.3697 52.4323 30.2583 54.2283C30.1445 56.0616 30.0754 58.0097 30.0469 59.3165L32.0464 59.3601ZM110.407 58.3383H31.0467V60.3383H110.407V58.3383ZM108.758 50.1881C108.933 50.8868 109.086 52.4871 109.2 54.3334C109.311 56.14 109.379 58.072 109.407 59.3601L111.407 59.3165C111.378 58.0077 111.309 56.0487 111.196 54.2105C111.085 52.4121 110.927 50.6139 110.697 49.7005L108.758 50.1881ZM90.293 34.8643C99.9675 35.7175 106.766 41.398 108.752 50.1653L110.703 49.7234C108.506 40.0295 100.925 33.7942 90.4687 32.872L90.293 34.8643ZM51.0774 34.8682H90.3808V32.8682H51.0774V34.8682ZM32.7065 50.1634C34.6941 41.3115 41.4051 35.6753 51.1602 34.8647L50.9946 32.8716C40.4445 33.7482 32.9504 39.9483 30.7551 49.7252L32.7065 50.1634ZM32.0322 92.9621V59.3391H30.0322V92.9621H32.0322ZM53.6469 114.619C46.9531 114.619 41.5718 112.515 37.8662 108.816C34.161 105.118 32.0322 99.7268 32.0322 92.9621H30.0322C30.0322 100.154 32.3044 106.091 36.4533 110.232C40.6019 114.373 46.5279 116.619 53.6469 116.619V114.619ZM87.7651 114.619H53.6469V116.619H87.7651V114.619ZM109.423 93.2315C109.423 99.9503 107.316 105.271 103.621 108.912C99.9242 112.554 94.5322 114.619 87.7651 114.619V116.619C94.9415 116.619 100.879 114.422 105.025 110.336C109.173 106.249 111.423 100.376 111.423 93.2315H109.423ZM109.423 59.3391V93.2315H111.423V59.3391H109.423ZM31.0322 60.3391H110.423V58.3391H31.0322V60.3391ZM52.8588 81.0987C51.441 81.1642 50.2216 80.0342 50.1567 78.5258L48.1586 78.6117C48.268 81.1577 50.3602 83.2164 52.9512 83.0965L52.8588 81.0987ZM55.3482 78.3421C55.4119 79.8294 54.2683 81.0383 52.8622 81.0985L52.9477 83.0967C55.4633 82.989 57.457 80.8414 57.3464 78.2566L55.3482 78.3421ZM52.7307 75.7661C54.1536 75.7661 55.316 76.8877 55.3475 78.3213L57.3471 78.2774C57.2914 75.745 55.2294 73.7661 52.7307 73.7661V75.7661ZM50.1577 78.5688C50.1577 77.0552 51.3224 75.8324 52.7769 75.7651L52.6845 73.7672C50.1302 73.8854 48.1577 76.0192 48.1577 78.5688H50.1577ZM70.7678 81.0987C69.35 81.1643 68.1306 80.0342 68.0657 78.5258L66.0676 78.6117C66.177 81.1577 68.2692 83.2164 70.8602 83.0965L70.7678 81.0987ZM73.2572 78.3421C73.3209 79.8294 72.1773 81.0383 70.7712 81.0985L70.8567 83.0967C73.3723 82.989 75.366 80.8414 75.2554 78.2566L73.2572 78.3421ZM70.6397 75.7661C72.0626 75.7661 73.225 76.8877 73.2565 78.3213L75.2561 78.2774C75.2004 75.745 73.1384 73.7661 70.6397 73.7661V75.7661ZM68.0667 78.5688C68.0667 77.0552 69.2314 75.8324 70.6859 75.7651L70.5935 73.7672C68.0392 73.8854 66.0667 76.0192 66.0667 78.5688H68.0667ZM88.6152 97.3506C87.1693 97.3188 85.9765 96.0994 85.9765 94.5963H83.9765C83.9765 97.1565 86.0081 99.2937 88.5711 99.3502L88.6152 97.3506ZM91.2969 94.5963C91.2969 96.1326 90.0761 97.3504 88.5931 97.3504V99.3504C91.206 99.3504 93.2969 97.2116 93.2969 94.5963H91.2969ZM88.5931 91.8467C90.0769 91.8467 91.2969 93.0653 91.2969 94.5963H93.2969C93.2969 91.9847 91.2053 89.8467 88.5931 89.8467V91.8467ZM88.5495 91.8467H88.5931V89.8467H88.5495V91.8467ZM85.9763 94.5749C85.9445 93.0939 87.1205 91.8784 88.5716 91.8465L88.5275 89.847C85.9699 89.9033 83.9214 92.0356 83.9767 94.6178L85.9763 94.5749ZM66.0676 94.6393C66.1769 97.189 68.2684 99.2485 70.8602 99.1286L70.7678 97.1307C69.3508 97.1963 68.1307 96.0671 68.0657 94.5536L66.0676 94.6393ZM70.5935 89.7993C68.0407 89.9174 66.0667 92.0453 66.0667 94.5964H68.0667C68.0667 93.0843 69.2299 91.8645 70.6859 91.7971L70.5935 89.7993ZM75.2561 94.3139C75.2005 91.7779 73.1392 89.7982 70.6397 89.7982V91.7982C72.0618 91.7982 73.225 92.919 73.2565 94.3578L75.2561 94.3139ZM70.8567 99.1288C73.3715 99.0211 75.3661 96.8743 75.2554 94.293L73.2572 94.3787C73.3208 95.8607 72.1781 97.0704 70.7712 97.1306L70.8567 99.1288ZM48.1153 94.6393C48.2247 97.189 50.3161 99.2485 52.9079 99.1286L52.8155 97.1307C51.3985 97.1963 50.1784 96.0671 50.1135 94.5536L48.1153 94.6393ZM52.6412 89.7993C50.0884 89.9174 48.1144 92.0453 48.1144 94.5964H50.1144C50.1144 93.0843 51.2777 91.8645 52.7336 91.7971L52.6412 89.7993ZM57.3038 94.3139C57.2482 91.7779 55.1869 89.7982 52.6874 89.7982V91.7982C54.1095 91.7982 55.2727 92.919 55.3043 94.3578L57.3038 94.3139ZM52.9045 99.1288C55.4192 99.0211 57.4138 96.8743 57.3031 94.293L55.3049 94.3787C55.3685 95.8607 54.2258 97.0704 52.8189 97.1306L52.9045 99.1288ZM86.0205 78.5246C86.0205 77.0212 87.1702 75.8463 88.6156 75.8145L88.5715 73.815C86.0082 73.8715 84.0205 75.9648 84.0205 78.5246H86.0205ZM86.0205 78.5688V78.5246H84.0205V78.5688H86.0205ZM88.7023 81.0978C87.2398 81.1301 86.0518 80.0117 86.0203 78.5473L84.0208 78.5903C84.0764 81.1802 86.2001 83.1534 88.7463 83.0973L88.7023 81.0978ZM91.2104 78.3694C91.2427 79.8764 90.0846 81.0698 88.704 81.0978L88.7446 83.0974C91.2856 83.0459 93.2648 80.8827 93.21 78.3265L91.2104 78.3694ZM88.5936 75.8147C89.9904 75.8147 91.1466 76.9498 91.2112 78.3927L93.2092 78.3032C93.0994 75.8507 91.1184 73.8147 88.5936 73.8147V75.8147Z" fill="url(#paint1_linear_1_4638)" mask="url(#path-3-outside-1_1_4638)"/>
</g>
<g filter="url(#filter2_bd_1_4638)">
<mask id="path-5-inside-2_1_4638" fill="white">
<path fill-rule="evenodd" clip-rule="evenodd" d="M90.3778 44.1592C90.3778 46.1069 88.8963 47.56 87.0226 47.56C85.1054 47.56 83.6675 46.1069 83.6675 44.1592V30.6932C83.6675 28.7455 85.1054 27.2881 87.0226 27.2881C88.8963 27.2881 90.3778 28.7455 90.3778 30.6932V44.1592ZM57.7841 44.1592C57.7841 46.1069 56.3461 47.56 54.4289 47.56C52.5117 47.56 51.0737 46.1069 51.0737 44.1592V30.6932C51.0737 28.7456 52.5117 27.2881 54.4289 27.2881C56.3461 27.2881 57.7841 28.7456 57.7841 30.6932V44.1592Z"/>
</mask>
<path fill-rule="evenodd" clip-rule="evenodd" d="M90.3778 44.1592C90.3778 46.1069 88.8963 47.56 87.0226 47.56C85.1054 47.56 83.6675 46.1069 83.6675 44.1592V30.6932C83.6675 28.7455 85.1054 27.2881 87.0226 27.2881C88.8963 27.2881 90.3778 28.7455 90.3778 30.6932V44.1592ZM57.7841 44.1592C57.7841 46.1069 56.3461 47.56 54.4289 47.56C52.5117 47.56 51.0737 46.1069 51.0737 44.1592V30.6932C51.0737 28.7456 52.5117 27.2881 54.4289 27.2881C56.3461 27.2881 57.7841 28.7456 57.7841 30.6932V44.1592Z" fill="url(#paint2_linear_1_4638)"/>
<path d="M87.0226 47.96C89.1185 47.96 90.7778 46.3265 90.7778 44.1592H89.9778C89.9778 45.8873 88.674 47.16 87.0226 47.16V47.96ZM83.2675 44.1592C83.2675 46.3231 84.8797 47.96 87.0226 47.96V47.16C85.331 47.16 84.0675 45.8908 84.0675 44.1592H83.2675ZM83.2675 30.6932V44.1592H84.0675V30.6932H83.2675ZM87.0226 26.8881C84.8791 26.8881 83.2675 28.5301 83.2675 30.6932H84.0675C84.0675 28.961 85.3317 27.6881 87.0226 27.6881V26.8881ZM90.7778 30.6932C90.7778 28.5266 89.1192 26.8881 87.0226 26.8881V27.6881C88.6734 27.6881 89.9778 28.9644 89.9778 30.6932H90.7778ZM90.7778 44.1592V30.6932H89.9778V44.1592H90.7778ZM54.4289 47.96C56.5718 47.96 58.1841 46.3231 58.1841 44.1592H57.3841C57.3841 45.8908 56.1205 47.16 54.4289 47.16V47.96ZM50.6737 44.1592C50.6737 46.3231 52.286 47.96 54.4289 47.96V47.16C52.7373 47.16 51.4737 45.8908 51.4737 44.1592H50.6737ZM50.6737 30.6932V44.1592H51.4737V30.6932H50.6737ZM54.4289 26.8881C52.2853 26.8881 50.6737 28.5301 50.6737 30.6932H51.4737C51.4737 28.961 52.738 27.6881 54.4289 27.6881V26.8881ZM58.1841 30.6932C58.1841 28.5301 56.5725 26.8881 54.4289 26.8881V27.6881C56.1198 27.6881 57.3841 28.961 57.3841 30.6932H58.1841ZM58.1841 44.1592V30.6932H57.3841V44.1592H58.1841Z" fill="url(#paint3_linear_1_4638)" mask="url(#path-5-inside-2_1_4638)"/>
</g>
<g filter="url(#filter3_bd_1_4638)">
<mask id="path-7-inside-3_1_4638" fill="white">
<path fill-rule="evenodd" clip-rule="evenodd" d="M49.1978 78.6093C49.2849 80.6365 50.9407 82.2308 52.9451 82.1381C54.9059 82.0542 56.4745 80.3759 56.3874 78.3399C56.3438 76.3568 54.7316 74.8066 52.7708 74.8066C50.7664 74.8994 49.1978 76.5777 49.1978 78.6093ZM67.1054 78.6093C67.1925 80.6365 68.8483 82.2308 70.8527 82.1381C72.8135 82.0542 74.3821 80.3759 74.295 78.3399C74.2514 76.3568 72.6392 74.8066 70.6784 74.8066C68.674 74.8994 67.1054 76.5777 67.1054 78.6093ZM85.0134 94.6367C85.0134 96.6683 86.6256 98.3465 88.63 98.3907C90.6779 98.3907 92.3337 96.7124 92.3337 94.6367C92.3337 92.5653 90.6779 90.887 88.63 90.887H88.5864C86.582 90.9312 84.9698 92.6051 85.0134 94.6367ZM70.8524 98.1702C68.8481 98.263 67.1923 96.6686 67.1051 94.637C67.1051 92.6054 68.6738 90.9315 70.6781 90.8388C72.639 90.8388 74.2512 92.389 74.2948 94.3764C74.3819 96.408 72.8132 98.0863 70.8524 98.1702ZM52.9002 98.1702C50.8958 98.263 49.24 96.6686 49.1528 94.637C49.1528 92.6054 50.7215 90.9315 52.7259 90.8388C54.6867 90.8388 56.2989 92.389 56.3425 94.3764C56.4296 96.408 54.861 98.0863 52.9002 98.1702ZM88.6304 74.8553C86.626 74.8995 85.0574 76.5336 85.0574 78.5652V78.6094C85.101 80.6366 86.7568 82.1823 88.7611 82.1382C90.722 82.0984 92.2906 80.4202 92.247 78.3885C92.1599 76.4409 90.5912 74.8553 88.6304 74.8553Z"/>
</mask>
<path fill-rule="evenodd" clip-rule="evenodd" d="M49.1978 78.6093C49.2849 80.6365 50.9407 82.2308 52.9451 82.1381C54.9059 82.0542 56.4745 80.3759 56.3874 78.3399C56.3438 76.3568 54.7316 74.8066 52.7708 74.8066C50.7664 74.8994 49.1978 76.5777 49.1978 78.6093ZM67.1054 78.6093C67.1925 80.6365 68.8483 82.2308 70.8527 82.1381C72.8135 82.0542 74.3821 80.3759 74.295 78.3399C74.2514 76.3568 72.6392 74.8066 70.6784 74.8066C68.674 74.8994 67.1054 76.5777 67.1054 78.6093ZM85.0134 94.6367C85.0134 96.6683 86.6256 98.3465 88.63 98.3907C90.6779 98.3907 92.3337 96.7124 92.3337 94.6367C92.3337 92.5653 90.6779 90.887 88.63 90.887H88.5864C86.582 90.9312 84.9698 92.6051 85.0134 94.6367ZM70.8524 98.1702C68.8481 98.263 67.1923 96.6686 67.1051 94.637C67.1051 92.6054 68.6738 90.9315 70.6781 90.8388C72.639 90.8388 74.2512 92.389 74.2948 94.3764C74.3819 96.408 72.8132 98.0863 70.8524 98.1702ZM52.9002 98.1702C50.8958 98.263 49.24 96.6686 49.1528 94.637C49.1528 92.6054 50.7215 90.9315 52.7259 90.8388C54.6867 90.8388 56.2989 92.389 56.3425 94.3764C56.4296 96.408 54.861 98.0863 52.9002 98.1702ZM88.6304 74.8553C86.626 74.8995 85.0574 76.5336 85.0574 78.5652V78.6094C85.101 80.6366 86.7568 82.1823 88.7611 82.1382C90.722 82.0984 92.2906 80.4202 92.247 78.3885C92.1599 76.4409 90.5912 74.8553 88.6304 74.8553Z" fill="url(#paint4_linear_1_4638)"/>
<path d="M52.9451 82.1381L52.928 81.7385L52.9266 81.7385L52.9451 82.1381ZM49.1978 78.6093H48.7978V78.6179L48.7981 78.6265L49.1978 78.6093ZM56.3874 78.3399L55.9874 78.3487L55.9878 78.357L56.3874 78.3399ZM52.7708 74.8066V74.4066H52.7615L52.7523 74.4071L52.7708 74.8066ZM70.8527 82.1381L70.8356 81.7385L70.8342 81.7385L70.8527 82.1381ZM67.1054 78.6093H66.7054V78.6179L66.7057 78.6265L67.1054 78.6093ZM74.295 78.3399L73.895 78.3487L73.8954 78.357L74.295 78.3399ZM70.6784 74.8066V74.4066H70.6691L70.6599 74.4071L70.6784 74.8066ZM88.63 98.3907L88.6212 98.7907H88.63V98.3907ZM85.0134 94.6367H85.4135L85.4133 94.6281L85.0134 94.6367ZM88.5864 90.887V90.4869L88.5776 90.4871L88.5864 90.887ZM67.1051 94.637H66.7051V94.6456L66.7055 94.6542L67.1051 94.637ZM70.8524 98.1702L70.8353 97.7706L70.8339 97.7707L70.8524 98.1702ZM70.6781 90.8388V90.4388H70.6689L70.6597 90.4392L70.6781 90.8388ZM74.2948 94.3764L73.8948 94.3852L73.8951 94.3936L74.2948 94.3764ZM49.1528 94.637H48.7528V94.6456L48.7532 94.6542L49.1528 94.637ZM52.9002 98.1702L52.8831 97.7706L52.8817 97.7707L52.9002 98.1702ZM52.7259 90.8388V90.4388H52.7166L52.7074 90.4392L52.7259 90.8388ZM56.3425 94.3764L55.9425 94.3852L55.9428 94.3936L56.3425 94.3764ZM88.6304 74.8553V74.4552L88.6216 74.4554L88.6304 74.8553ZM85.0574 78.6094H84.6573L84.6575 78.618L85.0574 78.6094ZM88.7611 82.1382L88.753 81.7383L88.7523 81.7383L88.7611 82.1382ZM92.247 78.3885L92.647 78.38L92.6466 78.3707L92.247 78.3885ZM52.9266 81.7385C51.1569 81.8204 49.6756 80.4118 49.5974 78.5921L48.7981 78.6265C48.8942 80.8612 50.7245 82.6413 52.9636 82.5377L52.9266 81.7385ZM55.9878 78.357C56.0655 80.1735 54.6669 81.664 52.928 81.7385L52.9622 82.5377C55.1449 82.4443 56.8836 80.5783 56.787 78.3228L55.9878 78.357ZM52.7708 75.2066C54.5164 75.2066 55.9487 76.5854 55.9875 78.3487L56.7873 78.3311C56.7389 76.1283 54.9468 74.4066 52.7708 74.4066V75.2066ZM49.5978 78.6093C49.5978 76.7849 51.0048 75.2888 52.7893 75.2062L52.7523 74.4071C50.528 74.51 48.7978 76.3705 48.7978 78.6093H49.5978ZM70.8342 81.7385C69.0645 81.8204 67.5832 80.4118 67.505 78.5921L66.7057 78.6265C66.8018 80.8612 68.6321 82.6413 70.8712 82.5377L70.8342 81.7385ZM73.8954 78.357C73.9731 80.1735 72.5745 81.664 70.8356 81.7385L70.8698 82.5377C73.0525 82.4443 74.7912 80.5783 74.6946 78.3228L73.8954 78.357ZM70.6784 75.2066C72.424 75.2066 73.8563 76.5854 73.8951 78.3487L74.6949 78.3311C74.6465 76.1283 72.8544 74.4066 70.6784 74.4066V75.2066ZM67.5054 78.6093C67.5054 76.7849 68.9124 75.2888 70.6969 75.2062L70.6599 74.4071C68.4356 74.51 66.7054 76.3705 66.7054 78.6093H67.5054ZM88.6388 97.9908C86.8578 97.9516 85.4134 96.4568 85.4134 94.6367H84.6134C84.6134 96.8797 86.3933 98.7415 88.6212 98.7906L88.6388 97.9908ZM91.9337 94.6367C91.9337 96.4966 90.4519 97.9907 88.63 97.9907V98.7907C90.9039 98.7907 92.7337 96.9282 92.7337 94.6367H91.9337ZM88.63 91.287C90.4523 91.287 91.9337 92.7814 91.9337 94.6367H92.7337C92.7337 92.3492 90.9036 90.487 88.63 90.487V91.287ZM88.5864 91.287H88.63V90.487H88.5864V91.287ZM85.4133 94.6281C85.3744 92.8167 86.8121 91.3262 88.5952 91.2869L88.5776 90.4871C86.3519 90.5362 84.5652 92.3934 84.6135 94.6452L85.4133 94.6281ZM66.7055 94.6542C66.8015 96.893 68.6316 98.6734 70.8709 98.5698L70.8339 97.7707C69.0645 97.8525 67.583 96.4442 67.5047 94.6199L66.7055 94.6542ZM70.6597 90.4392C68.4359 90.5421 66.7051 92.3976 66.7051 94.637H67.5051C67.5051 92.8132 68.9116 91.321 70.6966 91.2384L70.6597 90.4392ZM74.6947 94.3677C74.6463 92.1608 72.8544 90.4388 70.6781 90.4388V91.2388C72.4235 91.2388 73.8561 92.6172 73.8948 94.3852L74.6947 94.3677ZM70.8695 98.5699C73.0519 98.4765 74.791 96.6108 74.6944 94.3593L73.8951 94.3936C73.9728 96.2053 72.5746 97.6962 70.8353 97.7706L70.8695 98.5699ZM48.7532 94.6542C48.8492 96.893 50.6793 98.6734 52.9186 98.5698L52.8817 97.7707C51.1122 97.8525 49.6307 96.4442 49.5525 94.6199L48.7532 94.6542ZM52.7074 90.4392C50.4836 90.5421 48.7528 92.3976 48.7528 94.637H49.5528C49.5528 92.8132 50.9593 91.321 52.7444 91.2384L52.7074 90.4392ZM56.7424 94.3677C56.694 92.1608 54.9022 90.4388 52.7259 90.4388V91.2388C54.4712 91.2388 55.9038 92.6172 55.9426 94.3852L56.7424 94.3677ZM52.9173 98.5699C55.0997 98.4765 56.8387 96.6108 56.7421 94.3593L55.9428 94.3936C56.0206 96.2053 54.6223 97.6962 52.8831 97.7706L52.9173 98.5699ZM85.4574 78.5652C85.4574 76.7449 86.8584 75.2945 88.6392 75.2552L88.6216 74.4554C86.3937 74.5045 84.6574 76.3223 84.6574 78.5652H85.4574ZM85.4574 78.6094V78.5652H84.6574V78.6094H85.4574ZM88.7523 81.7383C86.9647 81.7777 85.496 80.4029 85.4573 78.6008L84.6575 78.618C84.7059 80.8703 86.5488 82.587 88.77 82.5381L88.7523 81.7383ZM91.8471 78.3971C91.8862 80.2189 90.4818 81.7032 88.753 81.7383L88.7692 82.5381C90.9622 82.4936 92.695 80.6214 92.6469 78.38L91.8471 78.3971ZM88.6304 75.2553C90.3656 75.2553 91.7693 76.6607 91.8474 78.4064L92.6466 78.3707C92.5504 76.2211 90.8168 74.4553 88.6304 74.4553V75.2553Z" fill="url(#paint5_linear_1_4638)" mask="url(#path-7-inside-3_1_4638)"/>
</g>
<g opacity="0.5" filter="url(#filter4_b_1_4638)">
<path d="M35.0811 59.6712C35.0811 61.5474 36.5322 63.0309 38.4773 63.0309L101.35 63.0309C103.295 63.0309 104.751 61.5474 104.751 59.6712C104.751 57.7514 103.295 56.3115 101.35 56.3115L38.4773 56.3115C36.5322 56.3115 35.0811 57.7514 35.0811 59.6712Z" fill="url(#paint6_linear_1_4638)" fill-opacity="0.5"/>
</g>
<defs>
<filter id="filter0_f_1_4638" x="2.71143" y="5.7666" width="95.4404" height="101.206" filterUnits="userSpaceOnUse" color-interpolation-filters="sRGB">
<feFlood flood-opacity="0" result="BackgroundImageFix"/>
<feBlend mode="normal" in="SourceGraphic" in2="BackgroundImageFix" result="shape"/>
<feGaussianBlur stdDeviation="9.5" result="effect1_foregroundBlur_1_4638"/>
</filter>
<filter id="filter1_b_1_4638" x="6.03223" y="8.86816" width="129.391" height="131.751" filterUnits="userSpaceOnUse" color-interpolation-filters="sRGB">
<feFlood flood-opacity="0" result="BackgroundImageFix"/>
<feGaussianBlur in="BackgroundImageFix" stdDeviation="12"/>
<feComposite in2="SourceAlpha" operator="in" result="effect1_backgroundBlur_1_4638"/>
<feBlend mode="normal" in="SourceGraphic" in2="effect1_backgroundBlur_1_4638" result="shape"/>
</filter>
<filter id="filter2_bd_1_4638" x="36.0737" y="12.2881" width="69.3042" height="50.2715" filterUnits="userSpaceOnUse" color-interpolation-filters="sRGB">
<feFlood flood-opacity="0" result="BackgroundImageFix"/>
<feGaussianBlur in="BackgroundImageFix" stdDeviation="7.5"/>
<feComposite in2="SourceAlpha" operator="in" result="effect1_backgroundBlur_1_4638"/>
<feColorMatrix in="SourceAlpha" type="matrix" values="0 0 0 0 0 0 0 0 0 0 0 0 0 0 0 0 0 0 127 0" result="hardAlpha"/>
<feOffset dx="5" dy="5"/>
<feGaussianBlur stdDeviation="5"/>
<feColorMatrix type="matrix" values="0 0 0 0 1 0 0 0 0 0.537255 0 0 0 0 0.160784 0 0 0 0.2 0"/>
<feBlend mode="normal" in2="effect1_backgroundBlur_1_4638" result="effect2_dropShadow_1_4638"/>
<feBlend mode="normal" in="SourceGraphic" in2="effect2_dropShadow_1_4638" result="shape"/>
</filter>
<filter id="filter3_bd_1_4638" x="34.1528" y="59.8066" width="73.1807" height="53.584" filterUnits="userSpaceOnUse" color-interpolation-filters="sRGB">
<feFlood flood-opacity="0" result="BackgroundImageFix"/>
<feGaussianBlur in="BackgroundImageFix" stdDeviation="7.5"/>
<feComposite in2="SourceAlpha" operator="in" result="effect1_backgroundBlur_1_4638"/>
<feColorMatrix in="SourceAlpha" type="matrix" values="0 0 0 0 0 0 0 0 0 0 0 0 0 0 0 0 0 0 127 0" result="hardAlpha"/>
<feOffset dx="5" dy="5"/>
<feGaussianBlur stdDeviation="5"/>
<feColorMatrix type="matrix" values="0 0 0 0 0.862745 0 0 0 0 0.482353 0 0 0 0 0.568627 0 0 0 0.5 0"/>
<feBlend mode="normal" in2="effect1_backgroundBlur_1_4638" result="effect2_dropShadow_1_4638"/>
<feBlend mode="normal" in="SourceGraphic" in2="effect2_dropShadow_1_4638" result="shape"/>
</filter>
<filter id="filter4_b_1_4638" x="20.0811" y="41.3115" width="99.6699" height="36.7197" filterUnits="userSpaceOnUse" color-interpolation-filters="sRGB">
<feFlood flood-opacity="0" result="BackgroundImageFix"/>
<feGaussianBlur in="BackgroundImageFix" stdDeviation="7.5"/>
<feComposite in2="SourceAlpha" operator="in" result="effect1_backgroundBlur_1_4638"/>
<feBlend mode="normal" in="SourceGraphic" in2="effect1_backgroundBlur_1_4638" result="shape"/>
</filter>
<linearGradient id="paint0_linear_1_4638" x1="69.6379" y1="19.6396" x2="37.6333" y2="95.8336" gradientUnits="userSpaceOnUse">
<stop stop-color="#0667AE" stop-opacity="0.5"/>
<stop offset="1" stop-color="#0667AE"/>
</linearGradient>
<linearGradient id="paint1_linear_1_4638" x1="43.67" y1="43.3922" x2="96.1195" y2="106.477" gradientUnits="userSpaceOnUse">
<stop stop-color="white" stop-opacity="0.25"/>
<stop offset="1" stop-color="white" stop-opacity="0"/>
</linearGradient>
<linearGradient id="paint2_linear_1_4638" x1="88.0081" y1="44.4141" x2="89.1916" y2="29.1882" gradientUnits="userSpaceOnUse">
<stop stop-color="white"/>
<stop offset="1" stop-color="white" stop-opacity="0.2"/>
</linearGradient>
<linearGradient id="paint3_linear_1_4638" x1="86.928" y1="30.3533" x2="102.914" y2="36.3413" gradientUnits="userSpaceOnUse">
<stop stop-color="white" stop-opacity="0.25"/>
<stop offset="1" stop-color="white" stop-opacity="0"/>
</linearGradient>
<linearGradient id="paint4_linear_1_4638" x1="89.2722" y1="79.0655" x2="16.4655" y2="74.2749" gradientUnits="userSpaceOnUse">
<stop stop-color="white"/>
<stop offset="1" stop-color="white" stop-opacity="0.2"/>
</linearGradient>
<linearGradient id="paint5_linear_1_4638" x1="56.0265" y1="77.5542" x2="67.3899" y2="103.322" gradientUnits="userSpaceOnUse">
<stop stop-color="white" stop-opacity="0.25"/>
<stop offset="1" stop-color="white" stop-opacity="0"/>
</linearGradient>
<linearGradient id="paint6_linear_1_4638" x1="53.8852" y1="59.5764" x2="51.3812" y2="51.7439" gradientUnits="userSpaceOnUse">
<stop stop-color="white"/>
<stop offset="1" stop-color="white" stop-opacity="0.2"/>
</linearGradient>
</defs>
</svg>
