<svg width="120" height="120" viewBox="0 0 120 120" fill="none" xmlns="http://www.w3.org/2000/svg">
<g clip-path="url(#clip0_1_3726)">
<path d="M101.094 101.223C123.761 78.5554 123.761 41.8039 101.094 19.1363C78.426 -3.53138 41.6745 -3.53139 19.0068 19.1363C-3.66086 41.8039 -3.66086 78.5555 19.0068 101.223C41.6745 123.891 78.426 123.891 101.094 101.223Z" fill="#B392C5"/>
<path fill-rule="evenodd" clip-rule="evenodd" d="M15.0743 23.9817L14.9185 23.6853C15.0514 23.5212 15.1826 23.3558 15.317 23.1934L15.0743 23.9817Z" fill="#A882BD"/>
<path fill-rule="evenodd" clip-rule="evenodd" d="M2.01221 60.3594L3.30245 62.6255L2.31684 66.1786C2.1205 64.265 2.01806 62.3235 2.01221 60.3594Z" fill="#C4ABD2"/>
<path fill-rule="evenodd" clip-rule="evenodd" d="M3.30269 62.6251L2.01245 60.359C2.01221 60.2992 2.01025 60.24 2.01025 60.1802C2.01025 59.2653 2.03416 58.3558 2.07586 57.4512L3.30269 62.6251Z" fill="#BEA3CD"/>
<path fill-rule="evenodd" clip-rule="evenodd" d="M21.0259 103.149L34.6395 100.623L33.069 111.585C28.6961 109.283 24.6508 106.444 21.0259 103.149Z" fill="#D6C5DF"/>
<path fill-rule="evenodd" clip-rule="evenodd" d="M15.5928 97.4928L25.5813 58.3301L34.6396 100.622L21.0259 103.148C19.0901 101.388 17.2762 99.4972 15.5928 97.4928Z" fill="#D2BEDC"/>
<path fill-rule="evenodd" clip-rule="evenodd" d="M25.5812 58.3305L3.69922 46.2405C4.03897 44.8627 4.42776 43.5044 4.86361 42.1674L26.85 37.291L25.5812 58.3305Z" fill="#C4A9D1"/>
<path fill-rule="evenodd" clip-rule="evenodd" d="M14.9189 23.6855L15.0748 23.9819L14.6274 24.0475C14.7238 23.9265 14.8213 23.806 14.9189 23.6855Z" fill="#AB86BE"/>
<path fill-rule="evenodd" clip-rule="evenodd" d="M14.6271 24.0461L15.0745 23.9805L11.8193 27.8814C12.7035 26.5636 13.641 25.2846 14.6271 24.0461Z" fill="#B494C5"/>
<path fill-rule="evenodd" clip-rule="evenodd" d="M11.8191 27.8814L15.0743 23.9805L26.8496 37.2895L4.86328 42.1658C6.53011 37.0566 8.88352 32.2578 11.8191 27.8814Z" fill="#BA9CCA"/>
<path fill-rule="evenodd" clip-rule="evenodd" d="M3.30251 62.6251L2.07568 57.4512C2.25373 53.6044 2.80764 49.8561 3.69885 46.2402L25.5808 58.3302L3.30251 62.6251Z" fill="#C4ABD2"/>
<path fill-rule="evenodd" clip-rule="evenodd" d="M3.82666 74.6435L25.5808 58.3301L15.5925 97.4928C10.0959 90.9484 6.01471 83.1759 3.82666 74.6435Z" fill="#CEBADA"/>
<path fill-rule="evenodd" clip-rule="evenodd" d="M2.31689 66.1784L3.3025 62.625L25.5808 58.3301L3.82665 74.6437C3.12202 71.8952 2.61348 69.0684 2.31689 66.1784Z" fill="#CBB4D7"/>
<path fill-rule="evenodd" clip-rule="evenodd" d="M49.1289 81.7298L25.5811 58.3308L41.1576 53.8223L49.1289 81.7298Z" fill="#D1BDDC"/>
<path fill-rule="evenodd" clip-rule="evenodd" d="M41.1574 53.8218L26.8496 37.2908L36.8135 20.1172L41.1574 53.8218Z" fill="#C1A6CF"/>
<path fill-rule="evenodd" clip-rule="evenodd" d="M25.5811 58.3305L26.8498 37.291L41.1576 53.822L25.5811 58.3305Z" fill="#C9B3D6"/>
<path fill-rule="evenodd" clip-rule="evenodd" d="M82.0978 46.3066L70.5049 25.4834L90.5142 10.748C91.3498 11.2639 92.1707 11.8005 92.9776 12.3568L82.0978 46.3066Z" fill="#B99BCA"/>
<path fill-rule="evenodd" clip-rule="evenodd" d="M15.0742 23.9802L15.3171 23.1917C18.234 19.6671 21.5593 16.4937 25.2203 13.7422L36.8135 20.1156L15.0742 23.9802Z" fill="#AE8CC1"/>
<path fill-rule="evenodd" clip-rule="evenodd" d="M26.8496 37.2908L15.0742 23.9816L36.8135 20.1172L26.8496 37.2908Z" fill="#B799C8"/>
<path fill-rule="evenodd" clip-rule="evenodd" d="M36.8139 20.1164L25.2207 13.743C28.7468 11.093 32.5858 8.83784 36.6702 7.03711L36.8139 20.1164Z" fill="#AB86BE"/>
<path fill-rule="evenodd" clip-rule="evenodd" d="M34.6396 100.622L25.5811 58.3301L49.1289 81.7291L34.6396 100.622Z" fill="#D4C1DD"/>
<path fill-rule="evenodd" clip-rule="evenodd" d="M76.4827 76.1466L61.2666 65.843L82.0976 46.3066L76.4827 76.1466Z" fill="#D0BCDB"/>
<path fill-rule="evenodd" clip-rule="evenodd" d="M33.0688 111.585L34.6393 100.623L45.2015 116.311C40.9464 115.186 36.8828 113.591 33.0688 111.585Z" fill="#D8C7E1"/>
<path fill-rule="evenodd" clip-rule="evenodd" d="M61.2666 65.8439L70.5047 25.4844L82.0976 46.3075L61.2666 65.8439Z" fill="#C6AED4"/>
<path fill-rule="evenodd" clip-rule="evenodd" d="M36.8136 20.1158L36.6699 7.03654C38.6948 6.14385 40.7789 5.36166 42.9168 4.70117L61.9904 8.73654L36.8136 20.1158Z" fill="#AB86BE"/>
<path fill-rule="evenodd" clip-rule="evenodd" d="M49.1289 81.7298L41.1577 53.8223L61.267 65.8447L49.1289 81.7298Z" fill="#D2BEDC"/>
<path fill-rule="evenodd" clip-rule="evenodd" d="M63.8023 117.15L34.6396 100.622L49.1289 81.7285L63.8023 117.15Z" fill="#D9C9E2"/>
<path fill-rule="evenodd" clip-rule="evenodd" d="M45.2018 116.311L34.6396 100.623L63.8023 117.151L61.7414 118.208C61.1838 118.224 60.6248 118.234 60.0633 118.234C54.9257 118.234 49.9455 117.563 45.2018 116.311Z" fill="#DBCBE4"/>
<path fill-rule="evenodd" clip-rule="evenodd" d="M61.267 65.8439L41.1577 53.8215L70.505 25.4844L61.267 65.8439Z" fill="#C9B3D6"/>
<path fill-rule="evenodd" clip-rule="evenodd" d="M41.1574 53.8218L36.8135 20.1172L70.5047 25.4847L41.1574 53.8218Z" fill="#BEA3CD"/>
<path fill-rule="evenodd" clip-rule="evenodd" d="M70.5047 25.4851L36.8135 20.1176L61.9905 8.73828L70.5047 25.4851Z" fill="#B392C5"/>
<path fill-rule="evenodd" clip-rule="evenodd" d="M61.7412 118.207L63.8022 117.15L64.2593 118.081C63.4244 118.14 62.5854 118.183 61.7412 118.207Z" fill="#E0D3E7"/>
<path fill-rule="evenodd" clip-rule="evenodd" d="M63.8023 117.15L49.1289 81.7285L74.8531 110.712L63.8023 117.15Z" fill="#DCCDE4"/>
<path fill-rule="evenodd" clip-rule="evenodd" d="M74.8531 110.711L49.1289 81.7279L76.4831 76.1465L74.8531 110.711Z" fill="#D9C9E2"/>
<path fill-rule="evenodd" clip-rule="evenodd" d="M64.2593 118.081L63.8022 117.151L74.853 110.713L74.1803 116.501C70.9705 117.303 67.6557 117.839 64.2593 118.081Z" fill="#E2D5E9"/>
<path fill-rule="evenodd" clip-rule="evenodd" d="M49.1289 81.7289L61.267 65.8438L76.4831 76.1474L49.1289 81.7289Z" fill="#D4C1DD"/>
<path fill-rule="evenodd" clip-rule="evenodd" d="M70.5049 25.4842L61.9907 8.73742L85.7463 8.10742C87.3805 8.91498 88.9712 9.79669 90.5141 10.7489L70.5049 25.4842Z" fill="#AE8CC1"/>
<path fill-rule="evenodd" clip-rule="evenodd" d="M74.853 110.711L76.483 76.1465L93.5099 87.3092L74.853 110.711Z" fill="#DBCBE4"/>
<path fill-rule="evenodd" clip-rule="evenodd" d="M61.9906 8.73809L42.917 4.70248C43.6811 4.46663 44.4528 4.24785 45.2299 4.04297L83.4167 7.02053C84.2026 7.36638 84.9792 7.72882 85.7463 8.10785L61.9906 8.73809Z" fill="#A882BD"/>
<path fill-rule="evenodd" clip-rule="evenodd" d="M101.479 100.855L93.5098 87.3104L105.282 74.4316L106.975 94.3768C105.301 96.669 103.464 98.8341 101.479 100.855Z" fill="#DACAE3"/>
<path fill-rule="evenodd" clip-rule="evenodd" d="M93.5097 87.3104L76.4829 76.1477L105.282 74.4316L93.5097 87.3104Z" fill="#D5C4DF"/>
<path fill-rule="evenodd" clip-rule="evenodd" d="M105.282 74.4311L82.0977 46.3069L106.875 25.8457C107.814 27.1242 108.703 28.4423 109.537 29.7974L105.282 74.4311Z" fill="#C4ABD2"/>
<path fill-rule="evenodd" clip-rule="evenodd" d="M82.0977 46.3072L92.9774 12.3574C98.3289 16.0477 103.029 20.6125 106.875 25.8457L82.0977 46.3072Z" fill="#B799C8"/>
<path fill-rule="evenodd" clip-rule="evenodd" d="M87.215 111.501L74.853 110.712L93.5099 87.3105L101.479 100.855C97.3164 105.092 92.5091 108.694 87.215 111.501Z" fill="#E0D3E7"/>
<path fill-rule="evenodd" clip-rule="evenodd" d="M76.4829 76.1466L82.0978 46.3066L105.282 74.4305L76.4829 76.1466Z" fill="#CEBADA"/>
<path fill-rule="evenodd" clip-rule="evenodd" d="M74.1807 116.501L74.8533 110.713L87.2153 111.501C83.1346 113.664 78.7658 115.356 74.1807 116.501Z" fill="#E5DBEC"/>
<path fill-rule="evenodd" clip-rule="evenodd" d="M68.9141 2.79744L49.188 3.14842C52.7114 2.48061 56.3458 2.12695 60.0634 2.12695C63.0726 2.12695 66.0282 2.35598 68.9141 2.79744Z" fill="#A37BB8"/>
<path fill-rule="evenodd" clip-rule="evenodd" d="M83.4168 7.01956L45.23 4.042C46.5319 3.69883 47.8519 3.40151 49.1878 3.14785L68.9139 2.79688C73.9951 3.57541 78.8588 5.01444 83.4168 7.01956Z" fill="#A882BD"/>
<path fill-rule="evenodd" clip-rule="evenodd" d="M105.282 74.4305L109.537 29.7969C114.857 38.441 117.972 48.5844 118.107 59.4469L105.282 74.4305Z" fill="#C2A8D0"/>
<path fill-rule="evenodd" clip-rule="evenodd" d="M105.282 74.4309L118.107 59.4473C118.11 59.6914 118.116 59.9346 118.116 60.1795C118.116 64.1095 117.723 67.9475 116.979 71.6585L105.282 74.4309Z" fill="#C6ADD4"/>
<path fill-rule="evenodd" clip-rule="evenodd" d="M106.975 94.3768L105.282 74.4316L113.847 82.0592C112.054 86.4602 109.739 90.5919 106.975 94.3768Z" fill="#D8C7E1"/>
<path fill-rule="evenodd" clip-rule="evenodd" d="M113.847 82.0584L105.282 74.4309L116.979 71.6582C116.256 75.2563 115.201 78.7338 113.847 82.0584Z" fill="#D0BCDB"/>
<path d="M60.0629 0.316406C76.5941 0.316406 91.5602 7.01714 102.394 17.8508C113.228 28.6842 119.928 43.6506 119.928 60.1818C119.928 76.713 113.228 91.6791 102.394 102.512C91.5602 113.346 76.5941 120.047 60.0629 120.047C43.5317 120.047 28.5656 113.346 17.7319 102.512C6.89849 91.6788 0.197754 76.7125 0.197754 60.1815C0.197754 43.6505 6.89849 28.6842 17.7319 17.8506C28.5656 7.01689 43.5317 0.316406 60.0629 0.316406ZM99.8285 20.4159C89.6516 10.2391 75.5924 3.9447 60.0629 3.9447C44.5334 3.9447 30.4741 10.2391 20.2973 20.4159C10.1204 30.5927 3.82605 44.652 3.82605 60.1815C3.82605 75.711 10.1207 89.7703 20.2973 99.9471C30.4741 110.124 44.5334 116.418 60.0629 116.418C75.5924 116.418 89.6516 110.124 99.8285 99.9471C110.005 89.7703 116.3 75.711 116.3 60.1815C116.3 44.652 110.005 30.5925 99.8285 20.4159Z" fill="#1A1A1A" fill-opacity="0.7"/>
<path fill-rule="evenodd" clip-rule="evenodd" d="M50.5151 86.4688C47.601 86.4688 45.23 88.8397 45.23 91.7539V94.9292H55.8005V91.7539C55.8005 90.3419 55.2507 89.0146 54.2527 88.0166C53.2544 87.0185 51.9271 86.4688 50.5151 86.4688Z" fill="#1A1A1A" fill-opacity="0.7"/>
<path fill-rule="evenodd" clip-rule="evenodd" d="M31.4184 86.4688C28.504 86.4688 26.1333 88.8397 26.1333 91.7539V94.9292H36.7038V91.7539C36.7038 90.3419 36.154 89.0146 35.156 88.0166C34.1577 87.0185 32.8304 86.4688 31.4184 86.4688Z" fill="#1A1A1A" fill-opacity="0.7"/>
<path fill-rule="evenodd" clip-rule="evenodd" d="M44.1265 58.1035H76.0016V63.1996H44.1265V58.1035Z" fill="#1A1A1A" fill-opacity="0.7"/>
<path fill-rule="evenodd" clip-rule="evenodd" d="M50.5149 71.9707C46.9449 71.9707 44.04 74.8741 44.0381 78.4439C44.0381 78.4451 44.0383 78.4463 44.0383 78.4475C44.0383 78.4488 44.0381 78.45 44.0381 78.4512C44.04 82.0209 46.9447 84.9244 50.5149 84.9244C54.0864 84.9244 56.9917 82.0188 56.9917 78.4475C56.9917 74.8761 54.0864 71.9707 50.5149 71.9707Z" fill="#1A1A1A" fill-opacity="0.7"/>
<path d="M70.7346 84.8533C74.2544 84.2166 76.5917 80.847 75.9549 77.3272C75.3182 73.8074 71.9487 71.4702 68.4289 72.1069C64.909 72.7436 62.5718 76.1132 63.2085 79.633C63.8453 83.1528 67.2148 85.49 70.7346 84.8533Z" fill="#1A1A1A" fill-opacity="0.7"/>
<path fill-rule="evenodd" clip-rule="evenodd" d="M88.7085 86.4688C85.7943 86.4688 83.4233 88.8397 83.4233 91.7539V94.9292H93.9936V91.7539C93.9936 90.3419 93.4438 89.0146 92.4458 88.0166C91.4477 87.0185 90.1204 86.4688 88.7085 86.4688Z" fill="#1A1A1A" fill-opacity="0.7"/>
<path fill-rule="evenodd" clip-rule="evenodd" d="M69.6123 86.4688C66.6979 86.4688 64.3271 88.8397 64.3271 91.7539V94.9292H74.8974V91.7539C74.8974 90.3419 74.3476 89.0146 73.3496 88.0166C72.3515 87.0185 71.0242 86.4688 69.6123 86.4688Z" fill="#1A1A1A" fill-opacity="0.7"/>
<path fill-rule="evenodd" clip-rule="evenodd" d="M60.0635 44.3779C56.1764 44.3779 52.8435 46.9486 51.8169 50.6091H68.3091C67.3379 47.0011 63.8135 44.3196 60.0635 44.3779Z" fill="#1A1A1A" fill-opacity="0.7"/>
<path fill-rule="evenodd" clip-rule="evenodd" d="M85.2548 71.2067V52.1523H34.873V71.2067C36.1374 71.8101 37.2194 72.7306 38.0228 73.8938C38.8028 75.0233 39.2733 76.3175 39.4026 77.6745H42.5318C42.9216 73.6128 46.353 70.4258 50.5152 70.4258C54.6774 70.4258 58.1089 73.6128 58.4987 77.6745H61.6289C62.0187 73.6128 65.4499 70.4258 69.6123 70.4258C73.7745 70.4258 77.206 73.6128 77.5957 77.6745H80.725C80.8545 76.3172 81.3248 75.0231 82.1048 73.8938C82.9084 72.7304 83.9904 71.8099 85.2548 71.2067ZM77.5452 63.9709C77.5452 64.3972 77.1996 64.7428 76.7733 64.7428H43.3543C42.9279 64.7428 42.5823 64.3972 42.5823 63.9709V57.3309C42.5823 56.9045 42.9279 56.5589 43.3543 56.5589H76.773C77.1994 56.5589 77.545 56.9045 77.545 57.3309L77.5452 63.9709Z" fill="#1A1A1A" fill-opacity="0.7"/>
<path fill-rule="evenodd" clip-rule="evenodd" d="M60.0633 42.8343H60.0638C64.8618 42.8343 68.765 38.9309 68.765 34.1329C68.765 29.3348 64.8616 25.4316 60.0638 25.4316C55.266 25.4316 51.3623 29.3351 51.3623 34.1329C51.3625 38.9304 55.2657 42.8338 60.0633 42.8343Z" fill="#1A1A1A" fill-opacity="0.7"/>
<path fill-rule="evenodd" clip-rule="evenodd" d="M74.5813 39.8101L78.6928 43.0767V50.6091H80.2367V42.7043C80.2367 42.4689 80.1291 42.2465 79.9447 42.0999L75.5416 38.6011C75.2077 38.3357 74.7223 38.3918 74.4569 38.7257C74.1921 39.0591 74.2474 39.545 74.5813 39.8101Z" fill="#1A1A1A" fill-opacity="0.7"/>
<path fill-rule="evenodd" clip-rule="evenodd" d="M41.4345 43.0763L45.546 39.8098C45.8799 39.5444 45.9353 39.0585 45.6704 38.7254C45.405 38.3915 44.9192 38.3361 44.5857 38.601L40.1826 42.0998C39.9984 42.2463 39.8906 42.4688 39.8906 42.7042V50.609H41.4345V43.0763Z" fill="#1A1A1A" fill-opacity="0.7"/>
<path d="M90.1954 84.708C93.6758 83.8853 95.8304 80.3968 95.0076 76.9164C94.1849 73.4359 90.6965 71.2814 87.216 72.1041C83.7355 72.9268 81.581 76.4152 82.4037 79.8957C83.2265 83.3762 86.7149 85.5307 90.1954 84.708Z" fill="#1A1A1A" fill-opacity="0.7"/>
<path fill-rule="evenodd" clip-rule="evenodd" d="M31.4182 71.9707C27.848 71.9707 24.9436 74.8741 24.9414 78.4439V78.4475C24.9414 78.4475 24.9414 78.45 24.9414 78.4512C24.9434 82.0209 27.848 84.9244 31.4182 84.9244C34.9895 84.9244 37.8951 82.0188 37.8951 78.4475C37.8951 74.8761 34.9895 71.9707 31.4182 71.9707Z" fill="#1A1A1A" fill-opacity="0.7"/>
</g>
<defs>
<clipPath id="clip0_1_3726">
<rect width="120" height="120" fill="white"/>
</clipPath>
</defs>
</svg>
