<svg width="146" height="50" viewBox="0 0 146 50" fill="none" xmlns="http://www.w3.org/2000/svg">
<mask id="mask0_461_4260" style="mask-type:luminance" maskUnits="userSpaceOnUse" x="0" y="0" width="146" height="50">
<path d="M146 0H0V49.246H146V0Z" fill="white"/>
</mask>
<g mask="url(#mask0_461_4260)">
<path d="M36.2514 7.64787C36.2321 8.24657 36.4059 8.82597 36.7729 9.28947C37.1398 9.75287 37.6805 10.0619 38.2792 10.1199C38.8779 10.1778 39.4573 9.94607 39.8628 9.52117C40.1332 9.21217 41.0022 8.26587 40.4615 7.33887C40.2491 6.91407 39.9014 6.56637 39.4959 6.31537C39.2448 6.16087 38.9745 6.06427 38.6848 6.04497C38.1247 5.94847 37.5454 6.04497 37.0432 6.33467C36.6184 6.66297 36.3287 7.12647 36.2514 7.64787Z" fill="#DC7B91"/>
<path d="M26.1309 1.96977C26.4592 2.10495 26.8261 2.16289 27.193 2.12427C27.502 2.10495 27.7724 1.93114 27.9462 1.68009C28.0814 1.40971 28.0428 1.08141 27.8497 0.849658C27.5986 0.424798 27.1544 0.135108 26.6716 0.0771784C26.4013 0.0578584 26.1309 0.135108 25.8991 0.250988C25.7833 0.308918 25.6867 0.424788 25.6095 0.540668C25.4356 0.772408 25.4163 1.0621 25.5129 1.33247C25.6288 1.60284 25.8605 1.83458 26.1309 1.96977Z" fill="#6965A9"/>
<path d="M29.3377 11.7029C28.6038 10.66 28.4107 9.32755 28.8356 8.11085C28.9515 7.84045 29.0867 7.57015 29.2605 7.33835C30.0136 6.21825 31.2882 5.56165 32.6208 5.60025C33.1615 5.60025 33.6636 5.77404 34.0885 6.08304C34.4748 6.45004 34.7451 6.91354 34.9189 7.41564C35.3052 8.34264 35.6721 9.26954 36.0583 10.1772C36.3094 10.6793 36.4446 11.2394 36.4832 11.7994C36.4832 12.4367 36.2128 13.0354 35.7494 13.4603C35.2859 13.8852 34.6679 14.1169 34.0306 14.0976C33.374 14.0397 32.756 13.8465 32.1766 13.5375C31.5586 13.3058 30.9599 13.0161 30.3999 12.6492C29.975 12.4174 29.6274 12.0891 29.3377 11.7029Z" fill="#0567AE"/>
<path d="M23.9693 6.79761C23.2934 7.01001 22.8299 7.64731 22.8105 8.36191C22.8105 9.05711 23.1389 9.73301 23.7182 10.1579C24.2783 10.5635 24.9542 10.8145 25.6494 10.8338C26.1709 10.9111 26.7116 10.7566 27.1365 10.409C27.6386 9.90681 27.5807 9.11501 27.6772 8.41981C27.909 6.72031 29.0677 5.31051 30.6706 4.73119C31.2693 4.51875 31.9838 4.40288 32.3314 3.90076C32.6598 3.34071 32.6018 2.62616 32.1769 2.12405C31.4045 1.15844 30.014 1.00394 29.0484 1.75711C28.8166 1.93092 28.6235 2.16267 28.4883 2.41373C28.2759 2.79997 28.1214 3.30209 27.6965 3.39865C27.3875 3.4759 27.0785 3.30209 26.7695 3.30209C26.2674 3.37934 25.8619 3.76558 25.746 4.24838C25.6301 4.73119 25.5142 5.21401 25.3598 5.67751C25.0894 6.23751 24.5873 6.66241 23.9693 6.79761Z" fill="#0567AE"/>
<path d="M17.905 2.85825C17.9243 2.97412 17.9629 3.07068 18.0015 3.18656C18.2333 3.49555 18.6582 3.61143 19.0058 3.47624C19.3727 3.34106 19.7396 3.16725 20.0873 2.97412C20.5121 2.80031 21.0336 2.81963 21.2267 3.2445C21.3232 3.43762 21.3232 3.66936 21.2267 3.86248C21.0336 4.2101 20.6666 4.46116 20.2804 4.49979C19.9714 4.55772 19.6431 4.53841 19.3148 4.55772C18.7547 4.53841 18.214 4.80878 17.8857 5.2723C17.7119 5.5426 17.7119 5.8903 17.847 6.1799C18.2719 6.8945 19.3727 6.3731 19.7203 7.0683C19.8169 7.3001 19.7783 7.5511 19.6431 7.7635C19.3727 8.2463 18.8899 8.4008 18.465 8.6519C17.9629 8.9223 17.5574 9.3471 17.3256 9.8686C17.0939 10.4093 17.1904 11.0466 17.5767 11.4908C18.0402 11.8963 18.6775 11.9929 19.2375 11.7612C20.2224 11.4135 20.8791 10.4479 21.3232 9.463C21.7674 8.4781 21.9798 7.4159 22.482 6.4696C22.8489 5.7744 23.351 5.1371 23.7566 4.46116C24.2007 3.80455 24.4711 3.01275 24.4904 2.22095C24.5291 1.40984 24.0656 0.656659 23.3317 0.309039C22.9068 0.173859 22.4433 0.154549 21.9992 0.270419C21.0722 0.424919 20.1645 0.675979 19.2955 1.04291C18.8899 1.17809 18.5037 1.42915 18.214 1.73815C17.9436 2.04714 17.8277 2.4527 17.905 2.85825Z" fill="#6965A9"/>
<path d="M13.1353 8.9222C13.0388 8.6905 12.7684 8.5746 12.5367 8.6711C11.4552 9.1346 10.1999 8.6518 9.7171 7.5703C9.5047 7.0682 9.4853 6.4889 9.6785 5.9674C9.9875 5.2915 10.4703 4.73146 11.0883 4.32591C11.8414 3.74654 12.6525 3.24442 13.483 2.81956C13.9271 2.5685 14.41 2.414 14.9314 2.35606C15.4721 2.29813 16.0129 2.51056 16.3605 2.93543C16.6502 3.43754 16.7467 4.03622 16.6115 4.59628C16.4764 5.1563 16.4957 5.7357 16.6502 6.2957C16.8433 6.7592 17.2682 7.1648 17.2488 7.6669C17.2102 8.169 16.7274 8.5166 16.4764 8.9801C16.0515 9.7526 16.4184 10.7182 16.3219 11.6066C16.206 12.6881 15.4142 13.5571 14.661 14.3489C14.4872 14.5614 14.2748 14.7352 14.043 14.8897C13.8113 15.0442 13.5216 15.0828 13.2512 14.9862C12.865 14.8124 12.6719 14.3875 12.7684 13.982C12.865 13.5764 13.116 13.2095 13.4443 12.9584C13.6568 12.8039 13.8306 12.6108 13.9465 12.3791C14.0044 12.2439 14.0044 12.0894 13.9465 11.9542C13.792 11.6452 13.4057 11.6645 13.116 11.7418C12.8264 11.819 12.4208 11.9542 12.1504 11.6838C12.0152 11.5487 11.938 11.3362 11.9766 11.1431C12.0732 10.7569 12.3049 10.4286 12.6139 10.2161C12.865 10.023 13.0774 9.7719 13.2319 9.5016C13.2512 9.2891 13.2319 9.096 13.1353 8.9222Z" fill="#B47DAB"/>
<path d="M6.64573 8.12981C7.3796 7.78221 8.268 7.70501 8.8859 8.24571C9.4846 8.82511 9.7743 9.63621 9.6777 10.4666C9.5812 11.2777 9.3108 12.0502 8.8859 12.7454C8.4997 13.46 8.0555 14.1359 7.7079 14.8698C6.45261 17.6121 6.93541 20.8179 6.25949 23.7727C6.1243 24.4872 5.83462 25.1439 5.42906 25.7425C5.02351 26.3412 4.3669 26.7468 3.65235 26.8433C2.6288 26.9399 1.66319 26.2253 1.16108 25.337C0.716901 24.41 0.465841 23.4058 0.446531 22.3629C0.311341 21.2621 0.349961 20.142 0.523771 19.0605C0.697581 17.9597 1.25764 16.9555 2.10737 16.2216C2.76399 15.7002 3.61372 15.3719 3.99996 14.638C4.44414 13.8076 4.15446 12.8227 4.17377 11.8764C4.25102 10.2542 5.19732 8.82511 6.64573 8.12981Z" fill="#0567AE"/>
<path d="M8.46102 17.8254C8.32592 16.3963 8.73142 14.9479 9.60052 13.8085C9.90952 13.4222 10.3923 13.0553 10.8751 13.1712C11.3579 13.3063 11.5703 13.8471 11.7055 14.3299C12.0145 15.3341 12.3235 16.377 12.1883 17.4198C12.111 18.0765 11.8214 18.6751 11.3579 19.1386C10.8751 19.6021 10.1991 19.7759 9.56182 19.6214C8.94392 19.4669 8.51902 18.4627 8.46102 17.8254Z" fill="#6965A9"/>
<path d="M6.49297 26.8048C7.5165 26.0903 7.7869 23.7535 8.1538 21.2236C8.1538 20.9533 8.3276 20.7022 8.5787 20.5863C8.8491 20.5284 9.1194 20.7022 9.1967 20.9726C9.2546 21.2429 9.2353 21.5133 9.1581 21.7644C8.8877 23.6183 9.6988 23.657 9.9305 22.5369C9.9499 22.3244 10.0271 22.112 10.1237 21.8996C10.2395 21.7064 10.452 21.5712 10.6837 21.5712C10.9927 21.6292 11.2245 21.8996 11.2245 22.2085C11.2245 22.5175 11.1665 22.8265 11.0313 23.0969C10.4133 24.835 10.1816 26.689 10.3747 28.5429C10.452 29.3541 10.6065 30.1845 10.3747 30.9376C10.0464 31.9612 9.0615 32.5985 8.5787 33.5834C8.2697 34.3559 8.1152 35.2056 8.1538 36.0361C8.1924 36.8665 8.0573 37.7162 7.729 38.4887C7.362 39.2419 6.55091 39.8406 5.72049 39.7054C5.04456 39.5895 4.54245 39.0294 4.11758 38.508C3.42234 37.7742 2.8816 36.9244 2.47604 36.0167C2.14774 35.0705 2.18636 33.931 2.86229 33.1779C3.53821 32.4247 4.63901 32.1929 5.17975 31.3818C5.46943 30.8604 5.60461 30.2617 5.56599 29.663C5.52737 29.0644 5.56599 28.4657 5.68186 27.8863C5.81705 27.4228 6.10673 27.0366 6.49297 26.8048Z" fill="#B47DAB"/>
<path d="M0.0991077 28.775C0.0411677 28.3308 0.176358 27.8673 0.466038 27.5197C0.775028 27.1914 1.25784 27.0948 1.66339 27.3072C2.1462 27.5969 2.26207 28.3308 2.7835 28.5239C3.09249 28.6398 3.45942 28.5239 3.78773 28.6011C4.27053 28.7943 4.52159 29.3157 4.38641 29.8178C4.23191 30.3006 3.9036 30.7062 3.47874 30.9572C3.05387 31.2276 2.51313 31.44 2.10757 31.1504C1.81789 30.9572 1.6827 30.571 1.45096 30.3392C0.929528 29.8951 0.176358 29.953 0.0991077 28.775Z" fill="#DC7B91"/>
<path d="M26.2666 28.1185C25.5521 28.1571 25.05 28.0605 24.6637 27.5198C24.3161 26.9597 24.123 26.3224 24.123 25.6658C24.0071 24.7968 24.0844 23.9084 24.3354 23.0587C24.6251 22.2089 25.3397 21.5716 26.228 21.4171C26.9233 21.3978 27.6185 21.6296 28.1592 22.0737C28.7 22.5179 29.26 22.9235 29.8587 23.2904C30.9595 23.8891 32.292 23.9277 33.5473 23.8312C34.8026 23.7346 36.0386 23.5222 37.2939 23.6767C38.5492 23.8312 39.8238 24.4105 40.4031 25.5306C40.7701 26.2838 40.8473 27.1528 40.6542 27.964C40.4418 28.7751 40.1135 29.5476 39.6693 30.2428C39.4568 30.6484 39.1865 31.0153 38.8389 31.305C38.4912 31.614 38.0084 31.7105 37.5643 31.5753C37.1008 31.3629 36.7725 30.9573 36.6566 30.4745C36.5407 29.9917 36.3669 29.5282 36.1738 29.0841C35.7489 28.4468 35.0923 28.0026 34.3391 27.8674C33.586 27.7322 32.8328 27.7129 32.0796 27.7901L26.2666 28.1185Z" fill="#B47DAB"/>
<path d="M21.1306 44.2444C21.034 43.4913 20.3388 42.9505 19.5663 43.0664C19.5277 43.0664 19.4698 43.0857 19.4311 43.0857C18.9676 43.2016 18.5041 43.1823 18.06 43.0278C17.3454 42.6608 16.7274 42.1587 16.2446 41.5214C15.7618 40.8841 15.1245 40.382 14.41 40.0537C13.9851 39.9185 13.5602 39.822 13.1354 39.7447C12.4208 39.5902 10.9724 38.9143 10.1613 36.9444C9.79438 36.0368 9.83298 35.0132 10.2965 34.1442C10.76 33.2751 11.687 32.7344 12.6719 32.7344C13.9272 32.7923 14.9121 33.8352 15.588 34.8973C16.2639 35.9595 16.8433 37.1762 17.8475 37.91C19.1028 38.837 20.8989 38.9143 22.019 40.0344C22.7528 40.8841 23.0811 42.0235 22.9073 43.1436C22.7142 44.2831 22.3473 45.4032 21.8065 46.4267C21.7679 46.5233 21.6907 46.6198 21.6134 46.6778C21.2851 46.9095 21.0147 46.6198 20.9761 46.3302C20.9761 46.1177 20.9954 45.9053 21.0727 45.6929C21.1692 45.21 21.1885 44.7272 21.1306 44.2444Z" fill="#DC7B91"/>
<path d="M15.973 48.4541C15.4709 48.1645 15.1619 47.6623 15.1426 47.083C15.1812 46.5229 15.4516 46.0015 15.8958 45.6346C16.3206 45.2869 16.8034 44.9973 17.3249 44.7848C17.6725 44.611 18.0394 44.4951 18.4063 44.4179C18.7926 44.36 19.1788 44.4758 19.4685 44.7462C19.7582 45.1324 19.8741 45.6346 19.7968 46.1174C19.7582 46.716 19.6037 47.2954 19.3333 47.8168C19.0629 48.3576 18.5801 48.7631 18.0201 48.9756C17.46 49.1301 16.4558 48.7824 15.973 48.4541Z" fill="#DC7B91"/>
<path d="M8.5004 43.9151C7.8631 43.7027 6.83956 42.8529 6.78162 42.177C6.72369 41.5011 7.2644 40.8445 7.7859 40.3231C8.3073 39.8016 8.9253 39.2802 9.6205 39.454C10.3157 39.6278 10.6247 40.4582 11.1848 40.9024C11.7448 41.3659 12.498 41.4432 13.2126 41.5783C13.9271 41.6942 14.6803 41.926 15.0665 42.544C15.3562 43.0847 15.3562 43.7413 15.0665 44.282C14.7769 44.8228 14.4292 45.3056 13.9851 45.7112C13.4829 46.2519 12.8263 46.8313 12.1118 46.6768C11.7255 46.5802 11.4359 46.2905 11.32 45.9236C11.1269 45.209 11.7062 44.5331 11.8607 43.7992C11.9766 43.3744 11.88 42.9109 11.6097 42.544C11.3393 42.1963 10.8565 42.0611 10.4316 42.2156C10.0068 42.4088 9.8329 42.8723 9.6012 43.2778C9.3695 43.6834 8.9253 44.0696 8.5004 43.9151Z" fill="#0567AE"/>
<path d="M24.665 43.4905C24.4912 42.0228 23.8346 40.2847 23.8539 39.4929C23.8539 39.1646 23.9697 38.8362 24.2015 38.5852C24.6264 38.1989 25.3409 38.3341 25.8044 38.6817C26.2293 39.0873 26.6155 39.5122 26.9824 39.9757C27.8129 40.8447 28.9909 41.3082 30.1883 41.231C31.0187 41.1151 31.8491 40.9026 32.6216 40.5937C33.4134 40.2847 34.3018 40.246 35.1129 40.4585C35.9047 40.7288 36.5806 41.5399 36.4261 42.3511C36.2909 42.8918 35.924 43.336 35.4412 43.6063C34.9584 43.8574 34.4563 44.0505 33.9348 44.2243C32.5637 44.7458 31.3277 45.5762 30.3428 46.6384C29.802 47.3143 29.2033 47.9323 28.5467 48.4923C27.4846 49.2262 26.1134 49.3614 24.9354 48.8786C24.1822 48.5503 23.4869 47.8937 23.5063 47.0632C23.5063 46.4259 23.9311 45.8659 24.2981 45.3251C24.6457 44.7844 24.7809 44.1278 24.665 43.4905Z" fill="#0567AE"/>
<path d="M34.1075 36.7708C34.4937 37.1957 34.5517 37.8136 34.2427 38.2964C33.953 38.5861 33.5668 38.7793 33.1612 38.8372L29.7816 39.6676C29.4533 39.7449 29.0477 39.8028 28.816 39.5517C28.6615 39.3586 28.6421 39.1076 28.7387 38.8758C28.8353 38.6634 28.9898 38.4703 29.1636 38.2964L30.6699 36.7128C30.8824 36.4618 31.1334 36.2494 31.4231 36.0949C32.1956 35.7279 33.644 36.2107 34.1075 36.7708Z" fill="#DC7B91"/>
<path d="M35.7488 36.8864C35.1888 36.5967 34.9184 35.9594 35.1115 35.3607C35.266 34.9166 35.3047 34.4337 35.2081 33.9703C35.0536 33.6226 34.957 33.2557 34.957 32.8888C34.9763 32.6957 35.0729 32.5412 35.2081 32.4253C35.5943 32.1356 36.0965 32.4446 36.5213 32.657C37.5062 33.1205 38.665 32.9853 39.534 32.2901C39.8816 31.9811 40.1906 31.6335 40.4803 31.2665C40.7893 30.8417 41.2335 30.5327 41.7356 30.3782C42.0253 30.3009 42.3343 30.3203 42.6047 30.4554C43.242 30.7837 43.2419 31.5755 42.9523 32.1549C42.6626 32.5991 42.3343 33.0046 41.948 33.3716C40.8859 34.5496 40.2486 36.056 40.152 37.6396C40.1713 38.3348 40.1327 39.03 39.9782 39.7253C39.7658 40.4012 39.1864 41.0192 38.4912 40.9806C37.7959 40.9419 37.2938 40.2853 37.0814 39.6094C36.8689 38.9528 36.8303 38.2382 36.5406 37.6009C36.3475 37.2726 36.0771 37.0409 35.7488 36.8864Z" fill="#0567AE"/>
<path d="M44.1697 35.7083C44.0152 35.1482 42.9724 35.4379 42.5089 36.0366C42.1033 36.5194 41.8716 37.1374 41.8909 37.7747V37.8133C41.9681 39.0493 41.6012 40.2853 40.8866 41.2895V41.3088C40.5583 41.7723 40.0369 42.0813 39.4575 42.1393C38.9747 42.1779 38.5306 42.3903 38.2216 42.7379C38.0091 43.0662 37.816 43.4139 37.7001 43.7808C37.4877 44.2636 37.1015 44.6498 36.6187 44.8816C36.1165 45.1133 35.6144 45.3064 35.093 45.4609C34.6874 45.5575 34.3012 45.7313 33.9536 45.9824C33.5673 46.3107 33.4321 46.9866 33.9536 47.2763C34.0888 47.3535 34.2239 47.3922 34.3784 47.3922C34.8612 47.2956 35.344 47.1218 35.7882 46.9287C40.288 45.0747 43.4745 41.0191 44.2083 36.2104C44.2276 36.0173 44.2083 35.8435 44.1697 35.7083Z" fill="#DC7B91"/>
<path d="M42.9323 27.0368C42.4108 27.3265 42.0632 27.9831 42.3722 28.4852C42.6619 28.8328 43.0095 29.1032 43.3957 29.3156C44.1682 29.9143 44.5352 30.8992 44.3034 31.8648C44.1875 32.2897 43.9751 32.6566 43.8399 33.0815C43.6854 33.487 43.7241 33.9505 43.9365 34.3368C44.342 34.781 44.9987 34.8775 45.5008 34.5492C45.9836 34.2209 46.3505 33.7574 46.5629 33.236C47.0651 32.2897 47.3354 31.2468 47.3354 30.1847C47.3354 29.1032 46.8913 28.0796 46.0801 27.3651C45.1918 26.6505 43.9558 26.5347 42.9323 27.0368Z" fill="#B47DAB"/>
<path d="M43.4948 22.7308C44.5376 22.7308 44.6535 20.3168 47.3186 21.0313C48.3808 21.321 49.1339 22.248 49.1919 23.3295C49.1919 24.4303 48.5159 25.4345 47.4924 25.8207C46.604 26.1684 45.6191 26.0332 44.6728 25.8787C43.7845 25.7821 42.9154 25.4924 42.1429 25.0483C41.2739 24.4689 40.9263 23.793 40.1152 23.2136C39.1302 22.5184 37.7591 22.3832 36.5617 22.2866C35.3644 22.1901 34.1477 22.1901 32.9697 21.9583C32.6413 21.9004 32.2358 21.7459 32.1779 21.4176C32.1585 21.1665 32.2744 20.9348 32.5062 20.8382C32.7186 20.7223 32.9503 20.6451 33.2014 20.6258C34.2443 20.6451 35.3064 20.703 36.33 20.8382C37.3728 20.9734 38.435 20.7996 39.4006 20.3361C39.8255 20.1043 40.231 19.776 40.6945 19.8147C41.1773 19.9112 41.5829 20.2588 41.7567 20.7223C41.9112 21.1858 42.1043 21.63 42.3167 22.0742C42.5678 22.499 43.012 22.7308 43.4948 22.7308Z" fill="#0567AE"/>
<path d="M134.954 13.365C135.688 13.3457 136.306 13.9444 136.325 14.6783V14.6976V20.4526C136.325 23.3881 133.93 24.7013 131.671 24.7013C131.014 24.7013 130.377 24.624 129.74 24.4695C129.025 24.2957 128.504 23.6391 128.504 22.9053C128.504 22.5769 128.774 22.3066 129.102 22.3066C129.18 22.3066 129.237 22.3259 129.295 22.3452C129.971 22.5963 130.686 22.7314 131.42 22.7314C132.675 22.7314 134.046 22.2679 134.046 20.5492V20.0471C133.37 20.8195 132.385 21.2444 131.362 21.2058C129.141 21.2058 127.615 19.4097 127.615 17.1695C127.615 14.9293 129.141 13.1333 131.362 13.1333C132.385 13.0947 133.351 13.5195 134.027 14.2727V14.0217C134.027 13.6547 134.336 13.3457 134.703 13.3457L134.954 13.365ZM134.027 17.2275V17.1889C134.027 16.0881 133.158 15.1804 132.057 15.1418H132.038C130.898 14.9873 129.855 15.7791 129.701 16.9185C129.546 18.0579 130.338 19.1008 131.478 19.2553C131.671 19.2746 131.845 19.2746 132.038 19.2553H132.057C133.158 19.2359 134.027 18.3283 134.027 17.2275Z" fill="#0567AE"/>
<path d="M64.6384 23.3293V23.2907C64.6384 22.9624 64.9088 22.692 65.2371 22.692C65.2757 22.692 65.3144 22.692 65.3723 22.7113C65.5461 22.75 65.7006 22.75 65.8744 22.75C66.7048 22.75 67.2069 22.2285 67.6704 21.1471L64.6964 14.4264C64.5226 14.0402 64.6964 13.596 65.0826 13.4222C65.1792 13.3836 65.295 13.3643 65.3916 13.3643H65.7006C66.28 13.3643 66.8207 13.7119 67.0331 14.2719L68.8099 18.6558L70.4514 14.3685C70.6831 13.7698 71.2625 13.3643 71.8998 13.3643H72.0929C72.5178 13.3643 72.8461 13.7119 72.8461 14.1174C72.8461 14.214 72.8268 14.3106 72.7882 14.4071L69.5051 22.2479C68.8099 23.8701 67.7863 24.7391 66.2993 24.7391H66.0096C65.2178 24.7005 64.6384 24.0825 64.6384 23.3293Z" fill="#0567AE"/>
<path d="M137.736 23.3286V23.2899C137.736 22.9616 138.006 22.6913 138.334 22.6913C138.373 22.6913 138.412 22.6913 138.45 22.7106C138.624 22.7492 138.779 22.7492 138.952 22.7492C139.783 22.7492 140.285 22.2278 140.748 21.1463L137.755 14.445C137.581 14.0587 137.755 13.6145 138.141 13.4407C138.238 13.4021 138.354 13.3828 138.45 13.3828H138.759C139.339 13.3828 139.879 13.7304 140.092 14.2905L141.868 18.6743L143.491 14.387C143.722 13.7884 144.302 13.3828 144.958 13.3828H145.152C145.576 13.3828 145.905 13.7304 145.905 14.136C145.905 14.2325 145.885 14.3291 145.847 14.4257L142.564 22.2471C141.868 23.8693 140.845 24.7384 139.358 24.7384H139.068C138.315 24.6997 137.755 24.0817 137.736 23.3286Z" fill="#0567AE"/>
<path d="M74.5469 20.6065V14.7163C74.5469 13.9824 75.1456 13.3644 75.8794 13.3644H76.1305C76.4974 13.3644 76.8064 13.6734 76.8064 14.0404V14.33C77.4823 13.5576 78.4672 13.1327 79.5101 13.152C81.4027 13.152 82.4262 14.4459 82.4262 16.493V20.6065C82.4262 21.1665 81.9627 21.63 81.4027 21.63H81.1709C80.6109 21.63 80.1474 21.1665 80.1474 20.6065V16.9372C80.1474 15.5467 79.317 15.2377 78.6217 15.2377C77.8879 15.2763 77.1926 15.6626 76.8064 16.2806V20.5872C76.8064 21.1472 76.3429 21.6107 75.7829 21.6107H75.5511C74.9911 21.6107 74.5469 21.1665 74.5469 20.6065Z" fill="#0567AE"/>
<path d="M84.1425 17.3816C84.0459 15.1414 85.8033 13.2488 88.0435 13.1523C88.1401 13.1523 88.2366 13.1523 88.3332 13.1523C90.5734 13.1523 91.9446 14.8131 92.1377 16.8795C92.2536 18.0575 91.0369 18.0382 91.0369 18.0382L86.3827 18.0189C86.6337 19.1583 87.6959 19.6798 89.0671 19.6798C89.7237 19.6798 90.3803 19.5446 90.979 19.2935C91.23 19.197 91.5197 19.3128 91.6163 19.5639C91.6356 19.6218 91.6549 19.6798 91.6549 19.7377C91.6742 20.4523 91.2107 21.0896 90.5348 21.3213C89.8975 21.5144 89.2602 21.611 88.6036 21.5917C86.1702 21.6303 84.1425 20.0081 84.1425 17.3816ZM89.9361 16.5512C89.9168 15.6435 89.1829 14.929 88.2753 14.929C88.256 14.929 88.256 14.929 88.2366 14.929C87.2903 14.871 86.4792 15.6049 86.402 16.5512H89.9361Z" fill="#0567AE"/>
<path d="M93.5488 17.3623C93.5488 14.7165 95.6345 13.1523 97.952 13.1523C98.338 13.1523 98.724 13.1909 99.111 13.2488C99.825 13.384 100.327 14.0213 100.327 14.7359C100.327 15.0642 100.057 15.3345 99.729 15.3345C99.671 15.3345 99.613 15.3152 99.555 15.3152C99.053 15.1607 98.512 15.1028 97.991 15.1414C96.8319 15.2187 95.9049 16.107 95.789 17.2657C95.7311 18.6948 96.8898 19.6411 98.28 19.6411C98.744 19.6605 99.207 19.5832 99.671 19.448C99.98 19.3321 100.327 19.506 100.424 19.815C100.443 19.8729 100.463 19.9308 100.463 19.9888C100.463 20.6647 99.999 21.2827 99.342 21.4372C98.879 21.553 98.396 21.5917 97.913 21.5917C95.6345 21.6303 93.5488 20.0274 93.5488 17.3623Z" fill="#0567AE"/>
<path d="M101.854 17.3816C101.854 15.0448 103.669 13.1523 106.315 13.1523C108.96 13.1523 110.776 15.0448 110.776 17.3816C110.776 19.7184 108.941 21.6303 106.315 21.6303C103.688 21.6303 101.854 19.757 101.854 17.3816ZM108.555 17.3816C108.536 16.1456 107.531 15.18 106.295 15.1993C105.059 15.2187 104.094 16.2229 104.113 17.4589C104.132 18.6755 105.117 19.6605 106.334 19.6411C107.531 19.6605 108.536 18.7142 108.555 17.5168C108.555 17.4782 108.555 17.4396 108.555 17.3816Z" fill="#0567AE"/>
<path d="M112.629 19.4094V11.3562C112.629 10.6803 113.17 10.1396 113.846 10.1396H114.058C114.521 10.1396 114.888 10.5065 114.888 10.97V18.7914C114.888 19.3708 115.217 19.6025 115.622 19.6025C115.815 19.6025 116.028 19.5639 116.202 19.448V20.8578C116.202 21.1475 116.009 21.4179 115.719 21.4951C115.41 21.5724 115.082 21.611 114.753 21.611C113.672 21.6303 112.629 21.1475 112.629 19.4094Z" fill="#0567AE"/>
<path d="M117.379 17.3816C117.379 15.0448 119.194 13.1523 121.84 13.1523C124.486 13.1523 126.301 15.0448 126.301 17.3816C126.301 19.7184 124.466 21.6303 121.84 21.6303C119.214 21.6303 117.379 19.757 117.379 17.3816ZM124.08 17.3816C124.061 16.1456 123.057 15.18 121.821 15.1993C120.585 15.2187 119.619 16.2229 119.638 17.4589C119.658 18.6755 120.643 19.6411 121.859 19.6411C123.057 19.6798 124.061 18.7335 124.08 17.5361C124.08 17.4782 124.08 17.4396 124.08 17.3816Z" fill="#0567AE"/>
<path d="M58.9025 22.3642C58.0914 22.3642 57.2803 22.2097 56.5271 21.9007C55.0787 21.2827 53.9007 20.1433 53.2827 18.6949C52.6454 17.2079 52.6454 15.5084 53.2827 14.0214C53.92 12.573 55.0787 11.4335 56.5271 10.8155C57.2803 10.5066 58.0914 10.3327 58.9025 10.3521C59.4046 10.3521 59.926 10.41 60.4282 10.5259C60.8917 10.6224 61.3552 10.7962 61.78 11.028C61.9345 11.1052 62.0697 11.2404 62.1469 11.3949C62.2242 11.5301 62.2628 11.7039 62.2628 11.8584C62.2628 12.1288 62.1663 12.3798 61.9925 12.573C61.8186 12.7854 61.5676 12.9013 61.3165 12.8819C61.22 12.8819 61.1234 12.8626 61.0462 12.8433C60.9496 12.824 60.853 12.7854 60.7758 12.7468C60.4861 12.6309 60.1964 12.5343 59.8874 12.4571C59.5591 12.3798 59.2308 12.3605 58.9025 12.3605C58.2073 12.3605 57.512 12.5343 56.9327 12.9013C56.334 13.2489 55.8512 13.751 55.5036 14.3497C54.8083 15.605 54.8083 17.1113 55.5036 18.3666C55.8512 18.9653 56.334 19.4674 56.9327 19.8343C57.5313 20.2013 58.2073 20.3751 58.9025 20.3751C59.2694 20.3751 59.6364 20.3364 60.0033 20.2785C60.3316 20.2206 60.6792 20.1433 60.9882 20.0081L60.8337 20.5103V17.6521L61.1234 17.9031H59.2501C58.9798 17.9031 58.7287 17.8066 58.5163 17.6134C58.13 17.2079 58.13 16.5706 58.5163 16.1843C58.7094 15.9912 58.9798 15.8946 59.2501 15.8946H61.9925C62.2628 15.8946 62.5139 15.9912 62.707 16.1843C62.9001 16.3775 62.9967 16.6478 62.9967 16.9182V20.4523C62.9967 20.6454 62.9387 20.8386 62.8422 21.0124C62.7456 21.1476 62.6298 21.2634 62.4753 21.36C61.9538 21.669 61.3938 21.92 60.8144 22.0939C60.1964 22.287 59.5591 22.3642 58.9025 22.3642Z" fill="#0567AE"/>
<path d="M75.0488 33.5069C75.0488 30.8612 77.1345 29.2969 79.452 29.2969C79.8382 29.2969 80.2245 29.3355 80.6107 29.3934C81.3253 29.5286 81.8467 30.1659 81.8467 30.8805C81.8467 31.2088 81.5763 31.4792 81.248 31.4792C81.1901 31.4792 81.1322 31.4598 81.0742 31.4598C80.5721 31.3053 80.0314 31.2474 79.5099 31.286C78.3512 31.3633 77.4242 32.2516 77.3083 33.4104C77.2504 34.8395 78.3898 35.7858 79.7996 35.7858C80.2631 35.8051 80.7266 35.7278 81.1901 35.5926C81.4991 35.4768 81.8467 35.6506 81.9433 35.9596C81.9626 36.0175 81.9819 36.0948 81.9819 36.1527C81.9819 36.8286 81.5184 37.4466 80.8618 37.6011C80.3983 37.717 79.9155 37.7556 79.4327 37.7556C77.1345 37.7556 75.0488 36.172 75.0488 33.5069Z" fill="#0567AE"/>
<path d="M112.629 35.5345V27.6165C112.629 26.8826 113.228 26.2646 113.961 26.2646H114.213C114.579 26.2646 114.888 26.5736 114.888 26.9406V34.9165C114.888 35.4959 115.217 35.7276 115.622 35.7276C115.815 35.7276 116.028 35.689 116.202 35.5731V37.0022C116.202 37.3112 116.009 37.5623 115.719 37.6395C115.41 37.7168 115.101 37.7554 114.773 37.7554C113.672 37.7747 112.629 37.2919 112.629 35.5345Z" fill="#0567AE"/>
<path d="M66.7441 35.9596C66.7441 35.6313 67.0145 35.3609 67.3428 35.3609C67.4201 35.3609 67.4973 35.3802 67.5746 35.4188C68.3664 35.7278 69.1968 35.9016 70.0272 35.9016C70.9156 35.9016 71.4177 35.6506 71.4177 35.2257C71.4177 34.6657 70.5293 34.5884 69.3513 34.2601C67.6325 33.8159 66.7441 33.2559 66.7441 31.7688C66.7441 30.2818 68.0767 29.2969 70.2976 29.2969C70.9542 29.2969 71.6108 29.3934 72.2481 29.5866C72.8854 29.7797 73.3103 30.359 73.3103 31.035C73.3103 31.3633 73.0399 31.6336 72.7116 31.6336C72.6344 31.6336 72.5571 31.6143 72.4799 31.595C71.8232 31.3247 71.1087 31.1895 70.3941 31.1702C69.5058 31.1702 69.1002 31.4212 69.1002 31.8075C69.1002 32.3868 70.0851 32.4834 71.1087 32.7344C72.7502 33.1207 73.7351 33.8159 73.7351 35.2836C73.7351 36.7514 72.3254 37.7749 70.1431 37.7749C69.3899 37.7749 68.6367 37.6784 67.9029 37.4852C67.2076 37.2921 66.7441 36.6741 66.7441 35.9596Z" fill="#0567AE"/>
<path d="M83.8945 36.7328V26.1304C83.8945 25.3965 84.4932 24.7979 85.2271 24.7979H85.4781C85.8451 24.7979 86.1541 25.1069 86.1541 25.4738V30.4756C86.83 29.7032 87.8149 29.2783 88.8384 29.2976C90.731 29.2976 91.7739 30.5915 91.7739 32.6386V36.7521C91.7739 37.3122 91.3104 37.7756 90.7504 37.7756H90.5186C89.9586 37.7756 89.4951 37.3122 89.4951 36.7521V33.0828C89.4951 31.6923 88.6646 31.364 87.9694 31.364C87.2355 31.4026 86.5596 31.7889 86.1541 32.4262V36.7328C86.1541 37.2928 85.6906 37.7563 85.1305 37.7563H84.8988C84.358 37.7563 83.8945 37.3121 83.8945 36.7328Z" fill="#0567AE"/>
<path d="M102.141 34.7435C101.736 35.1684 101.369 35.574 100.963 35.9795C100.423 36.5202 99.843 37.003 99.187 37.3507C98.53 37.6983 97.854 37.8528 97.14 37.8335C96.5409 37.8142 95.9615 37.679 95.4401 37.37C94.6676 36.9258 94.1269 36.2692 93.7985 35.3808C93.5089 34.6083 93.4123 33.8165 93.5089 33.0054C93.6827 31.2866 94.8607 29.8382 96.3864 29.3941C97.584 29.0464 98.685 29.2975 99.727 30.0314C100.365 30.4755 100.905 31.0163 101.446 31.5956C101.678 31.8467 101.89 32.0978 102.103 32.3681C102.354 32.0978 102.586 31.8467 102.798 31.615C103.377 31.0163 103.957 30.4369 104.633 29.9734C105.444 29.4327 106.332 29.1623 107.278 29.2396C108.669 29.3554 109.731 30.07 110.368 31.4605C110.677 32.1364 110.813 32.8702 110.774 33.6234C110.716 35.3036 110.001 36.5396 108.669 37.3314C107.954 37.7562 107.201 37.8914 106.39 37.7948C105.618 37.7176 104.942 37.3507 104.304 36.8679C103.551 36.3078 102.914 35.5933 102.277 34.8787C102.238 34.8787 102.18 34.8208 102.141 34.7435ZM103.204 33.5075C103.416 33.7779 103.609 34.029 103.822 34.2414C104.246 34.7049 104.671 35.1491 105.154 35.4967C105.618 35.825 106.1 36.0568 106.66 36.0954C107.529 36.134 108.244 35.7478 108.727 34.956C109.19 34.2028 109.229 33.3917 108.959 32.5613C108.727 31.8467 108.283 31.3639 107.626 31.1322C106.892 30.8618 106.178 31.0163 105.502 31.4025C105.038 31.6536 104.633 32.0012 104.246 32.3874C103.899 32.7737 103.532 33.1599 103.204 33.5075ZM101.079 33.5462C100.616 33.0634 100.152 32.5613 99.689 32.0978C99.225 31.6536 98.723 31.2673 98.124 31.0935C97.564 30.9197 97.024 30.939 96.4829 31.2287C95.498 31.7501 95.0152 32.793 95.1504 33.971C95.2276 34.5504 95.4401 35.0525 95.8263 35.4581C96.4443 36.0761 97.159 36.2113 97.951 36.0181C98.472 35.9023 98.916 35.6126 99.341 35.2843C99.978 34.8015 100.519 34.1835 101.079 33.5462Z" fill="#B47DAB"/>
</g>
</svg>
