<svg width="216" height="72" viewBox="0 0 216 72" fill="none" xmlns="http://www.w3.org/2000/svg">
<mask id="mask0_1_2757" style="mask-type:luminance" maskUnits="userSpaceOnUse" x="0" y="0" width="216" height="72">
<path d="M215.265 0H0.734375V72H215.265V0Z" fill="white"/>
</mask>
<g mask="url(#mask0_1_2757)">
<path d="M54.0011 11.1816C53.9728 12.0569 54.2282 12.904 54.7674 13.5817C55.3066 14.2592 56.1011 14.711 56.9808 14.7958C57.8605 14.8804 58.7119 14.5417 59.3077 13.9204C59.705 13.4687 60.9819 12.0851 60.1874 10.7298C59.8753 10.1087 59.3644 9.60037 58.7686 9.2334C58.3996 9.00751 58.0024 8.86628 57.5768 8.83806C56.7538 8.69697 55.9025 8.83806 55.1646 9.26161C54.5404 9.7416 54.1147 10.4193 54.0011 11.1816Z" fill="#DC7B91"/>
<path d="M39.1308 2.88076C39.6132 3.0784 40.1523 3.16311 40.6914 3.10665C41.1454 3.0784 41.5428 2.82428 41.7981 2.45723C41.9968 2.06192 41.9401 1.58193 41.6564 1.2431C41.2874 0.621939 40.6347 0.198399 39.9253 0.113702C39.5281 0.0854554 39.1308 0.198399 38.7902 0.367821C38.62 0.452517 38.4781 0.621925 38.3646 0.791347C38.1091 1.13016 38.0807 1.5537 38.2227 1.949C38.393 2.34429 38.7334 2.68311 39.1308 2.88076Z" fill="#6965A9"/>
<path d="M43.8428 17.1123C42.7644 15.5875 42.4807 13.6393 43.105 11.8605C43.2753 11.4651 43.474 11.0699 43.7294 10.731C44.836 9.0934 46.7089 8.13342 48.667 8.18986C49.4615 8.18986 50.1992 8.44396 50.8236 8.89573C51.3912 9.4323 51.7884 10.11 52.0438 10.8441C52.6114 12.1994 53.1505 13.5545 53.718 14.8816C54.0869 15.6157 54.2856 16.4346 54.3423 17.2534C54.3423 18.1851 53.945 19.0605 53.2641 19.6817C52.583 20.3029 51.6749 20.6417 50.7385 20.6135C49.7737 20.5288 48.8656 20.2463 48.0143 19.7946C47.1062 19.4558 46.2264 19.0323 45.4036 18.4958C44.7792 18.1569 44.2685 17.6769 43.8428 17.1123Z" fill="#0567AE"/>
<path d="M35.9547 9.94018C34.9615 10.2507 34.2805 11.1825 34.252 12.2273C34.252 13.2437 34.7345 14.2319 35.5857 14.8531C36.4087 15.4461 37.4019 15.8131 38.4234 15.8413C39.1897 15.9543 39.9842 15.7284 40.6085 15.2202C41.3463 14.486 41.2612 13.3283 41.403 12.3119C41.7436 9.82717 43.4462 7.76597 45.8015 6.91898C46.6812 6.60838 47.7311 6.43897 48.2419 5.70485C48.7244 4.88603 48.6392 3.84132 48.0148 3.10722C46.8799 1.69545 44.8367 1.46956 43.4178 2.57073C43.0772 2.82485 42.7935 3.16368 42.5948 3.53074C42.2827 4.09544 42.0557 4.82957 41.4314 4.97074C40.9773 5.08369 40.5233 4.82957 40.0693 4.82957C39.3315 4.94251 38.7356 5.50721 38.5653 6.21309C38.395 6.91898 38.2247 7.62489 37.9979 8.30254C37.6005 9.12129 36.8628 9.74252 35.9547 9.94018Z" fill="#0567AE"/>
<path d="M27.043 4.17992C27.0713 4.34933 27.1281 4.49051 27.1848 4.65993C27.5254 5.11169 28.1497 5.28111 28.6605 5.08346C29.1996 4.88582 29.7387 4.6317 30.2496 4.34933C30.8738 4.09521 31.6401 4.12346 31.9238 4.74464C32.0656 5.02699 32.0656 5.36581 31.9238 5.64816C31.6401 6.15639 31.1008 6.52346 30.5334 6.57993C30.0793 6.66463 29.5969 6.6364 29.1145 6.66463C28.2915 6.6364 27.497 7.03169 27.0146 7.70938C26.7592 8.10457 26.7592 8.61293 26.9578 9.03633C27.5821 10.0811 29.1996 9.3188 29.7104 10.3352C29.8523 10.6741 29.7956 11.0411 29.5969 11.3516C29.1996 12.0575 28.4902 12.2834 27.8658 12.6505C27.1281 13.0459 26.5322 13.6669 26.1916 14.4294C25.8512 15.2199 25.993 16.1517 26.5606 16.8011C27.2416 17.394 28.1781 17.5352 29.0009 17.1965C30.4481 16.6881 31.4131 15.2764 32.0656 13.8364C32.7183 12.3964 33.0304 10.8434 33.7684 9.45989C34.3075 8.44347 35.0453 7.51171 35.6412 6.52345C36.2938 5.56346 36.6911 4.40581 36.7195 3.24816C36.7764 2.06228 36.0953 0.961095 35.0169 0.452858C34.3926 0.255218 33.7115 0.226986 33.0589 0.396394C31.6968 0.62228 30.3631 0.989342 29.0862 1.52581C28.4902 1.72345 27.9227 2.09051 27.497 2.54228C27.0997 2.99404 26.9294 3.58699 27.043 4.17992Z" fill="#6965A9"/>
<path d="M20.0344 13.0454C19.8926 12.7066 19.4953 12.5372 19.1549 12.6782C17.5657 13.3559 15.7212 12.65 15.0118 11.0688C14.6997 10.3347 14.6712 9.48777 14.9551 8.72531C15.4091 7.73711 16.1185 6.91831 17.0266 6.32537C18.1332 5.47831 19.325 4.74418 20.5454 4.12302C21.1979 3.75595 21.9075 3.53007 22.6736 3.44536C23.4681 3.36066 24.2628 3.67124 24.7735 4.29242C25.1992 5.02653 25.341 5.90183 25.1423 6.72067C24.9438 7.53944 24.9722 8.38655 25.1992 9.2053C25.4829 9.88296 26.1073 10.476 26.0788 11.2101C26.0221 11.9442 25.3126 12.4524 24.9438 13.13C24.3195 14.2595 24.8586 15.6712 24.7168 16.9701C24.5465 18.5513 23.383 19.8218 22.2763 20.9795C22.0209 21.2901 21.7088 21.5443 21.3682 21.7701C21.0277 21.996 20.6021 22.0525 20.2047 21.9112C19.6373 21.6571 19.3535 21.0359 19.4953 20.443C19.6373 19.85 20.0061 19.3136 20.4885 18.9465C20.8007 18.7206 21.0561 18.4383 21.2264 18.0995C21.3115 17.9019 21.3115 17.676 21.2264 17.4783C20.9994 17.0265 20.4318 17.0547 20.0061 17.1678C19.5805 17.2806 18.9846 17.4783 18.5872 17.083C18.3886 16.8854 18.2751 16.5748 18.3319 16.2924C18.4738 15.7278 18.8143 15.2478 19.2683 14.9371C19.6373 14.6548 19.9494 14.2877 20.1764 13.8925C20.2047 13.5818 20.1764 13.2995 20.0344 13.0454Z" fill="#B47DAB"/>
<path d="M10.499 11.8889C11.5773 11.3807 12.8827 11.2678 13.7907 12.0583C14.6704 12.9054 15.0961 14.0913 14.9541 15.3054C14.8123 16.4912 14.415 17.6207 13.7907 18.6371C13.2232 19.6819 12.5705 20.6701 12.0597 21.7431C10.2152 25.7524 10.9246 30.4395 9.93146 34.7595C9.73281 35.8042 9.30716 36.7643 8.71123 37.6395C8.11532 38.5148 7.15051 39.1078 6.10056 39.2489C4.59656 39.3901 3.17771 38.3453 2.43991 37.0466C1.78724 35.6913 1.41834 34.2231 1.38996 32.6983C1.19132 31.0889 1.24806 29.4513 1.50346 27.8701C1.75885 26.2606 2.5818 24.7925 3.83038 23.7195C4.79521 22.9571 6.04379 22.4772 6.61133 21.4042C7.264 20.1901 6.83835 18.7501 6.86672 17.3666C6.98023 14.9948 8.37072 12.9054 10.499 11.8889Z" fill="#0567AE"/>
<path d="M13.1663 26.063C12.9678 23.9736 13.5637 21.856 14.8407 20.1901C15.2947 19.6253 16.0042 19.0889 16.7136 19.2584C17.423 19.4559 17.7351 20.2466 17.9338 20.9524C18.3878 22.4206 18.8418 23.9454 18.6432 25.47C18.5296 26.4301 18.1041 27.3053 17.423 27.983C16.7136 28.6606 15.7203 28.9147 14.7838 28.6889C13.8759 28.463 13.2516 26.9948 13.1663 26.063Z" fill="#6965A9"/>
<path d="M10.2744 39.192C11.7784 38.1474 12.1757 34.7309 12.7148 31.032C12.7148 30.6368 12.9702 30.2697 13.3392 30.1003C13.7365 30.0156 14.1336 30.2697 14.2472 30.665C14.3323 31.0602 14.304 31.4556 14.1905 31.8227C13.7932 34.5332 14.985 34.5898 15.3255 32.9521C15.354 32.6414 15.4674 32.3309 15.6094 32.0204C15.7795 31.7379 16.0918 31.5402 16.4322 31.5402C16.8863 31.625 17.2269 32.0204 17.2269 32.472C17.2269 32.9238 17.1416 33.3755 16.943 33.7709C16.0349 36.3121 15.6944 39.0227 15.9782 41.7332C16.0918 42.9192 16.3188 44.1333 15.9782 45.2344C15.4958 46.7309 14.0486 47.6627 13.3392 49.1026C12.8851 50.2321 12.6581 51.4744 12.7148 52.6886C12.7715 53.9027 12.573 55.145 12.0906 56.2744C11.5513 57.3756 10.3595 58.251 9.13933 58.0533C8.14613 57.8838 7.40834 57.0649 6.78404 56.3026C5.76246 55.2298 4.9679 53.9873 4.37198 52.6602C3.88958 51.2768 3.94633 49.6108 4.93953 48.5098C5.93272 47.4086 7.55022 47.0697 8.34478 45.8838C8.77043 45.1215 8.96906 44.2462 8.91231 43.3708C8.85557 42.4956 8.91231 41.6203 9.08257 40.7732C9.28122 40.0955 9.70687 39.5309 10.2744 39.192Z" fill="#B47DAB"/>
<path d="M0.879704 42.0708C0.794567 41.4213 0.993214 40.7437 1.41887 40.2355C1.87289 39.7555 2.58233 39.6142 3.17824 39.9248C3.88767 40.3483 4.05793 41.4213 4.82411 41.7036C5.27814 41.8731 5.8173 41.7036 6.29972 41.8165C7.00914 42.099 7.37804 42.8613 7.17941 43.5954C6.95239 44.3013 6.46997 44.8943 5.84569 45.2612C5.22139 45.6566 4.42684 45.9671 3.83091 45.5437C3.40526 45.2612 3.20661 44.6966 2.8661 44.3577C2.09991 43.7084 0.993214 43.7931 0.879704 42.0708Z" fill="#DC7B91"/>
<path d="M39.3297 41.1119C38.2799 41.1683 37.5421 41.0271 36.9745 40.2366C36.4637 39.4177 36.18 38.4859 36.18 37.5259C36.0097 36.2554 36.1232 34.9565 36.4921 33.7142C36.9177 32.4718 37.9678 31.54 39.273 31.3141C40.2947 31.2859 41.3162 31.6248 42.1107 32.2741C42.9053 32.9236 43.7282 33.5166 44.6079 34.053C46.2254 34.9283 48.1834 34.9847 50.0279 34.8437C51.8724 34.7024 53.6886 34.3919 55.5331 34.6178C57.3776 34.8437 59.2505 35.6906 60.1017 37.3283C60.641 38.4295 60.7544 39.7 60.4707 40.886C60.1586 42.0719 59.6762 43.2013 59.0235 44.2177C58.7113 44.8107 58.3141 45.3472 57.8033 45.7707C57.2924 46.2225 56.583 46.3636 55.9304 46.1659C55.2494 45.8554 54.767 45.2624 54.5967 44.5565C54.4264 43.8506 54.171 43.1729 53.8873 42.5236C53.2629 41.5919 52.2981 40.9424 51.1914 40.7448C50.0848 40.5471 48.978 40.5189 47.8713 40.6318L39.3297 41.1119Z" fill="#B47DAB"/>
<path d="M31.7832 64.6875C31.6412 63.5865 30.6197 62.7958 29.4846 62.9653C29.4279 62.9653 29.3428 62.9935 29.2859 62.9935C28.6049 63.1629 27.9238 63.1347 27.2713 62.9088C26.2212 62.3723 25.3132 61.6382 24.6037 60.7064C23.8943 59.7746 22.9579 59.0405 21.908 58.5605C21.2837 58.3629 20.6593 58.2218 20.0351 58.1088C18.9851 57.8829 16.8568 56.8947 15.665 54.0146C15.1259 52.6876 15.1826 51.1911 15.8637 49.9206C16.5447 48.6499 17.9069 47.8594 19.3541 47.8594C21.1986 47.944 22.6458 49.4688 23.6389 51.0216C24.6321 52.5746 25.4835 54.3535 26.959 55.4264C28.8035 56.7817 31.4427 56.8947 33.0886 58.5323C34.1668 59.7746 34.6492 61.4405 34.3938 63.0781C34.1101 64.7441 33.571 66.3818 32.7763 67.8782C32.7196 68.0194 32.6062 68.1605 32.4926 68.2453C32.0102 68.584 31.6129 68.1605 31.5561 67.7371C31.5561 67.4264 31.5845 67.1159 31.6981 66.8053C31.8399 66.0993 31.8682 65.3934 31.7832 64.6875Z" fill="#DC7B91"/>
<path d="M24.2046 70.8423C23.4668 70.4189 23.0127 69.6847 22.9844 68.8377C23.0411 68.0188 23.4384 67.2565 24.0911 66.7201C24.7153 66.2117 25.4247 65.7883 26.191 65.4776C26.7018 65.2235 27.2409 65.0541 27.78 64.9412C28.3476 64.8566 28.9151 65.0259 29.3408 65.4212C29.7665 65.9858 29.9368 66.7201 29.8232 67.426C29.7665 68.3011 29.5395 69.1483 29.1421 69.9106C28.7448 70.7012 28.0354 71.2941 27.2125 71.6048C26.3895 71.8307 24.914 71.3223 24.2046 70.8423Z" fill="#DC7B91"/>
<path d="M13.2242 64.207C12.2878 63.8964 10.7838 62.654 10.6987 61.6658C10.6135 60.6776 11.4081 59.7176 12.1743 58.9553C12.9405 58.1928 13.8486 57.4305 14.8701 57.6846C15.8916 57.9387 16.3456 59.1528 17.1686 59.8022C17.9915 60.4799 19.0982 60.5929 20.1483 60.7904C21.1981 60.9599 22.3049 61.2988 22.8724 62.2023C23.298 62.9929 23.298 63.9529 22.8724 64.7434C22.4468 65.5341 21.9359 66.2399 21.2834 66.8329C20.5454 67.6235 19.5806 68.4706 18.5308 68.2447C17.9631 68.1035 17.5376 67.6799 17.3673 67.1435C17.0836 66.0987 17.9348 65.1105 18.1618 64.0375C18.3321 63.4164 18.1902 62.7388 17.793 62.2023C17.3957 61.694 16.6862 61.4963 16.0619 61.7222C15.4377 62.0047 15.1822 62.6823 14.8417 63.2752C14.5013 63.8682 13.8486 64.4328 13.2242 64.207Z" fill="#0567AE"/>
<path d="M36.9766 63.5876C36.7212 61.4418 35.7564 58.9006 35.7848 57.743C35.7848 57.263 35.9549 56.7828 36.2955 56.4159C36.9199 55.8511 37.9698 56.0487 38.6508 56.557C39.2752 57.15 39.8426 57.7712 40.3818 58.4488C41.6021 59.7194 43.333 60.397 45.0925 60.2841C46.3127 60.1147 47.5328 59.804 48.6679 59.3524C49.8314 58.9006 51.1368 58.844 52.3286 59.1547C53.4921 59.5499 54.4852 60.7358 54.2582 61.9218C54.0596 62.7123 53.5204 63.3618 52.811 63.7569C52.1016 64.1241 51.3638 64.4064 50.5975 64.6605C48.5829 65.423 46.7667 66.637 45.3195 68.19C44.5248 69.1782 43.6451 70.0818 42.6803 70.9005C41.1197 71.9735 39.1049 72.1712 37.3739 71.4653C36.2672 70.9853 35.2455 70.0253 35.274 68.8111C35.274 67.8793 35.8982 67.0606 36.4375 66.2699C36.9482 65.4794 37.1469 64.5194 36.9766 63.5876Z" fill="#0567AE"/>
<path d="M50.8515 53.7614C51.419 54.3826 51.5042 55.286 51.0502 55.9919C50.6245 56.4155 50.0571 56.6979 49.4611 56.7826L44.4951 57.9967C44.0127 58.1097 43.4167 58.1943 43.0763 57.8272C42.8493 57.5449 42.8208 57.1779 42.9627 56.839C43.1046 56.5285 43.3317 56.2462 43.587 55.9919L45.8004 53.6766C46.1126 53.3096 46.4814 52.9991 46.9071 52.7732C48.0422 52.2366 50.1705 52.9425 50.8515 53.7614Z" fill="#DC7B91"/>
<path d="M53.2631 53.931C52.4402 53.5074 52.0429 52.5757 52.3266 51.7003C52.5536 51.051 52.6105 50.345 52.4686 49.6675C52.2416 49.1592 52.0996 48.6227 52.0996 48.0863C52.128 47.804 52.2699 47.5781 52.4686 47.4086C53.036 46.9851 53.774 47.4369 54.3982 47.7474C55.8454 48.4251 57.5481 48.2274 58.825 47.211C59.3358 46.7592 59.7898 46.251 60.2155 45.7144C60.6695 45.0933 61.3222 44.6416 62.06 44.4157C62.4857 44.3027 62.9397 44.331 63.337 44.5286C64.2735 45.0085 64.2733 46.1662 63.8478 47.0133C63.4221 47.6628 62.9397 48.2556 62.3721 48.7922C60.8115 50.5145 59.875 52.7169 59.7331 55.0322C59.7614 56.0486 59.7047 57.065 59.4777 58.0816C59.1656 59.0698 58.3142 59.9733 57.2927 59.9169C56.2711 59.8603 55.5333 58.9003 55.2212 57.9121C54.9089 56.9522 54.8522 55.9074 54.4265 54.9756C54.1428 54.4956 53.7455 54.1569 53.2631 53.931Z" fill="#0567AE"/>
<path d="M65.6364 52.2083C65.4094 51.3894 63.8771 51.813 63.1961 52.6883C62.6001 53.3942 62.2596 54.2977 62.288 55.2295V55.2859C62.4014 57.093 61.8623 58.9001 60.8123 60.3683V60.3965C60.3299 61.0742 59.5638 61.526 58.7124 61.6108C58.003 61.6672 57.3504 61.9777 56.8964 62.4859C56.5841 62.9659 56.3004 63.4743 56.1301 64.0107C55.818 64.7166 55.2505 65.2812 54.5411 65.6201C53.8032 65.9589 53.0654 66.2412 52.2992 66.4671C51.7033 66.6083 51.1358 66.8624 50.625 67.2295C50.0574 67.7095 49.8587 68.6977 50.625 69.1213C50.8237 69.2342 51.0222 69.2907 51.2492 69.2907C51.9586 69.1495 52.6681 68.8954 53.3208 68.6131C59.9327 65.9024 64.6149 59.973 65.6932 52.9424C65.7215 52.6601 65.6932 52.406 65.6364 52.2083Z" fill="#DC7B91"/>
<path d="M63.8182 39.5313C63.0519 39.9549 62.5411 40.9148 62.9952 41.6489C63.4209 42.1571 63.9316 42.5525 64.4991 42.863C65.6342 43.7384 66.1735 45.1783 65.8329 46.5901C65.6626 47.2113 65.3505 47.7477 65.1518 48.369C64.9248 48.9618 64.9816 49.6395 65.2937 50.2043C65.8896 50.8537 66.8545 50.9948 67.5923 50.5148C68.3017 50.0348 68.8408 49.3571 69.1529 48.5948C69.8909 47.2113 70.288 45.6865 70.288 44.1337C70.288 42.5525 69.6355 41.0559 68.4435 40.0113C67.1383 38.9665 65.3221 38.7972 63.8182 39.5313Z" fill="#B47DAB"/>
<path d="M64.6447 33.2349C66.177 33.2349 66.3473 29.7055 70.2633 30.7501C71.8241 31.1737 72.9307 32.529 73.0159 34.1102C73.0159 35.7196 72.0226 37.1878 70.5187 37.7524C69.2133 38.2608 67.7661 38.0631 66.3756 37.8372C65.0704 37.696 63.7933 37.2724 62.6582 36.6232C61.3813 35.776 60.8706 34.7878 59.6787 33.9407C58.2314 32.9243 56.2167 32.7266 54.4573 32.5854C52.698 32.4443 50.9102 32.4443 49.1792 32.1054C48.6967 32.0208 48.1008 31.7949 48.0158 31.3149C47.9873 30.9478 48.1576 30.609 48.4982 30.4678C48.8103 30.2983 49.1507 30.1855 49.5197 30.1572C51.0521 30.1855 52.6128 30.2701 54.1168 30.4678C55.6491 30.6655 57.2099 30.4113 58.6287 29.7337C59.2531 29.3948 59.8489 28.9148 60.53 28.9714C61.2394 29.1125 61.8354 29.6207 62.0907 30.2983C62.3178 30.976 62.6015 31.6254 62.9136 32.2749C63.2826 32.896 63.9353 33.2349 64.6447 33.2349Z" fill="#0567AE"/>
<path d="M199.034 19.5415C200.112 19.5133 201.02 20.3886 201.048 21.4616V21.4898V29.9039C201.048 34.1958 197.529 36.1157 194.21 36.1157C193.244 36.1157 192.308 36.0027 191.372 35.7768C190.322 35.5227 189.556 34.5627 189.556 33.4899C189.556 33.0098 189.953 32.6146 190.435 32.6146C190.55 32.6146 190.633 32.6428 190.719 32.671C191.712 33.0381 192.762 33.2356 193.841 33.2356C195.685 33.2356 197.7 32.558 197.7 30.0452V29.3111C196.706 30.4404 195.259 31.0616 193.756 31.0051C190.492 31.0051 188.25 28.3792 188.25 25.1039C188.25 21.8286 190.492 19.2028 193.756 19.2028C195.259 19.1463 196.678 19.7674 197.672 20.8686V20.5016C197.672 19.9651 198.126 19.5133 198.665 19.5133L199.034 19.5415ZM197.672 25.1887V25.1322C197.672 23.5228 196.395 22.1957 194.777 22.1393H194.749C193.074 21.9134 191.541 23.071 191.315 24.7369C191.087 26.4028 192.251 27.9275 193.926 28.1534C194.21 28.1816 194.465 28.1816 194.749 28.1534H194.777C196.395 28.1251 197.672 26.7981 197.672 25.1887Z" fill="#0567AE"/>
<path d="M95.7131 34.1084V34.0519C95.7131 33.5719 96.1104 33.1766 96.5928 33.1766C96.6496 33.1766 96.7064 33.1766 96.7915 33.2048C97.0469 33.2614 97.2739 33.2614 97.5293 33.2614C98.7495 33.2614 99.4872 32.4989 100.168 30.9179L95.7983 21.0919C95.543 20.5273 95.7983 19.8778 96.3658 19.6237C96.5078 19.5673 96.6779 19.5391 96.8199 19.5391H97.2739C98.1253 19.5391 98.9198 20.0473 99.2318 20.866L101.843 27.2755L104.255 21.0073C104.595 20.1319 105.446 19.5391 106.383 19.5391H106.667C107.291 19.5391 107.773 20.0473 107.773 20.6401C107.773 20.7814 107.745 20.9226 107.688 21.0637L102.864 32.5273C101.843 34.899 100.339 36.1696 98.1536 36.1696H97.7279C96.5645 36.1131 95.7131 35.2096 95.7131 34.1084Z" fill="#0567AE"/>
<path d="M203.122 34.1096V34.053C203.122 33.573 203.519 33.1778 204.001 33.1778C204.058 33.1778 204.115 33.1778 204.171 33.206C204.427 33.2625 204.655 33.2625 204.909 33.2625C206.13 33.2625 206.868 32.5002 207.548 30.919L203.15 21.1213C202.894 20.5566 203.15 19.9071 203.717 19.653C203.86 19.5966 204.03 19.5684 204.171 19.5684H204.625C205.478 19.5684 206.271 20.0766 206.584 20.8955L209.194 27.3048L211.578 21.0365C211.918 20.1614 212.77 19.5684 213.734 19.5684H214.019C214.642 19.5684 215.126 20.0766 215.126 20.6696C215.126 20.8107 215.096 20.9519 215.04 21.0931L210.216 32.5284C209.194 34.9001 207.69 36.1708 205.505 36.1708H205.079C203.973 36.1142 203.15 35.2107 203.122 34.1096Z" fill="#0567AE"/>
<path d="M110.272 30.1283V21.5165C110.272 20.4435 111.152 19.54 112.23 19.54H112.599C113.139 19.54 113.593 19.9917 113.593 20.5283V20.9517C114.586 19.8224 116.033 19.2012 117.565 19.2294C120.346 19.2294 121.85 21.1212 121.85 24.1141V30.1283C121.85 30.947 121.169 31.6247 120.346 31.6247H120.006C119.183 31.6247 118.502 30.947 118.502 30.1283V24.7636C118.502 22.7306 117.282 22.2788 116.26 22.2788C115.182 22.3353 114.16 22.9001 113.593 23.8036V30.1001C113.593 30.9188 112.911 31.5965 112.089 31.5965H111.748C110.925 31.5965 110.272 30.947 110.272 30.1283Z" fill="#0567AE"/>
<path d="M124.372 25.4139C124.23 22.1386 126.812 19.3716 130.104 19.2305C130.246 19.2305 130.388 19.2305 130.53 19.2305C133.821 19.2305 135.836 21.6586 136.12 24.6798C136.29 26.4021 134.502 26.3739 134.502 26.3739L127.664 26.3457C128.032 28.0115 129.593 28.774 131.608 28.774C132.573 28.774 133.538 28.5763 134.417 28.2092C134.786 28.0681 135.212 28.2374 135.354 28.6045C135.382 28.6892 135.41 28.774 135.41 28.8586C135.439 29.9034 134.758 30.8352 133.765 31.1739C132.828 31.4563 131.892 31.5975 130.927 31.5693C127.351 31.6257 124.372 29.254 124.372 25.4139ZM132.885 24.1998C132.856 22.8727 131.778 21.8281 130.444 21.8281C130.416 21.8281 130.416 21.8281 130.388 21.8281C128.997 21.7433 127.805 22.8163 127.692 24.1998H132.885Z" fill="#0567AE"/>
<path d="M138.193 25.3857C138.193 21.5174 141.258 19.2305 144.663 19.2305C145.231 19.2305 145.798 19.2869 146.366 19.3716C147.416 19.5692 148.153 20.501 148.153 21.5458C148.153 22.0258 147.756 22.421 147.274 22.421C147.189 22.421 147.104 22.3927 147.019 22.3927C146.281 22.1668 145.486 22.0822 144.721 22.1386C143.018 22.2516 141.655 23.5504 141.485 25.2445C141.4 27.3339 143.103 28.7174 145.145 28.7174C145.827 28.7458 146.507 28.6328 147.189 28.4351C147.643 28.2656 148.153 28.5199 148.296 28.9717C148.324 29.0563 148.353 29.141 148.353 29.2258C148.353 30.214 147.671 31.1175 146.706 31.3434C146.025 31.5127 145.316 31.5693 144.606 31.5693C141.258 31.6257 138.193 29.2822 138.193 25.3857Z" fill="#0567AE"/>
<path d="M150.397 25.4139C150.397 21.9974 153.064 19.2305 156.952 19.2305C160.839 19.2305 163.507 21.9974 163.507 25.4139C163.507 28.8304 160.811 31.6257 156.952 31.6257C153.092 31.6257 150.397 28.8869 150.397 25.4139ZM160.244 25.4139C160.216 23.6068 158.739 22.1951 156.923 22.2233C155.107 22.2516 153.689 23.7198 153.717 25.5269C153.745 27.3057 155.192 28.7458 156.98 28.7174C158.739 28.7458 160.216 27.3622 160.244 25.6116C160.244 25.5551 160.244 25.4987 160.244 25.4139Z" fill="#0567AE"/>
<path d="M166.229 28.3771V16.6029C166.229 15.6147 167.024 14.8242 168.018 14.8242H168.329C169.01 14.8242 169.549 15.3606 169.549 16.0383V27.4736C169.549 28.3207 170.032 28.6594 170.627 28.6594C170.911 28.6594 171.224 28.603 171.48 28.4335V30.4947C171.48 30.9183 171.196 31.3136 170.77 31.4265C170.316 31.5395 169.834 31.596 169.35 31.596C167.762 31.6242 166.229 30.9183 166.229 28.3771Z" fill="#0567AE"/>
<path d="M173.209 25.4139C173.209 21.9974 175.876 19.2305 179.764 19.2305C183.652 19.2305 186.319 21.9974 186.319 25.4139C186.319 28.8304 183.623 31.6257 179.764 31.6257C175.905 31.6257 173.209 28.8869 173.209 25.4139ZM183.055 25.4139C183.027 23.6068 181.552 22.1951 179.736 22.2233C177.92 22.2516 176.5 23.7198 176.528 25.5269C176.558 27.3057 178.005 28.7174 179.792 28.7174C181.552 28.774 183.027 27.3905 183.055 25.6398C183.055 25.5551 183.055 25.4987 183.055 25.4139Z" fill="#0567AE"/>
<path d="M87.2842 32.6972C86.0924 32.6972 84.9006 32.4713 83.7938 32.0196C81.6656 31.116 79.9346 29.4502 79.0265 27.3325C78.0901 25.1585 78.0901 22.6737 79.0265 20.4997C79.963 18.382 81.6656 16.716 83.7938 15.8125C84.9006 15.3608 86.0924 15.1066 87.2842 15.135C88.022 15.135 88.7881 15.2196 89.5261 15.3891C90.2071 15.5302 90.8882 15.7843 91.5124 16.1232C91.7394 16.236 91.9381 16.4337 92.0515 16.6596C92.1651 16.8573 92.2218 17.1114 92.2218 17.3372C92.2218 17.7326 92.08 18.0996 91.8246 18.382C91.5691 18.6926 91.2003 18.862 90.8313 18.8336C90.6895 18.8336 90.5476 18.8054 90.4341 18.7772C90.2922 18.749 90.1503 18.6926 90.0368 18.6361C89.6111 18.4667 89.1855 18.3254 88.7314 18.2126C88.249 18.0996 87.7666 18.0713 87.2842 18.0713C86.2627 18.0713 85.241 18.3254 84.3898 18.862C83.5101 19.3702 82.8007 20.1043 82.2899 20.9796C81.2682 22.8149 81.2682 25.0172 82.2899 26.8525C82.8007 27.7279 83.5101 28.462 84.3898 28.9984C85.2694 29.535 86.2627 29.7891 87.2842 29.7891C87.8233 29.7891 88.3626 29.7325 88.9017 29.6478C89.3841 29.5632 89.8949 29.4502 90.3489 29.2525L90.1219 29.9867V25.8079L90.5476 26.1749H87.795C87.3978 26.1749 87.0288 26.0338 86.7167 25.7513C86.1491 25.1585 86.1491 24.2267 86.7167 23.6619C87.0005 23.3796 87.3978 23.2384 87.795 23.2384H91.8246C92.2218 23.2384 92.5908 23.3796 92.8745 23.6619C93.1582 23.9444 93.3002 24.3396 93.3002 24.7349V29.9019C93.3002 30.1843 93.215 30.4667 93.0732 30.7208C92.9312 30.9185 92.7611 31.0878 92.534 31.229C91.7678 31.6808 90.9449 32.0478 90.0935 32.302C89.1855 32.5844 88.249 32.6972 87.2842 32.6972Z" fill="#0567AE"/>
<path d="M111.01 48.9912C111.01 45.123 114.074 42.8359 117.48 42.8359C118.047 42.8359 118.615 42.8924 119.182 42.977C120.232 43.1747 120.999 44.1065 120.999 45.1512C120.999 45.6312 120.601 46.0266 120.119 46.0266C120.034 46.0266 119.949 45.9982 119.863 45.9982C119.126 45.7723 118.331 45.6877 117.565 45.7441C115.862 45.8571 114.5 47.1558 114.33 48.8501C114.245 50.9395 115.919 52.323 117.991 52.323C118.672 52.3512 119.353 52.2382 120.034 52.0406C120.488 51.8712 120.999 52.1253 121.14 52.5771C121.169 52.6618 121.197 52.7748 121.197 52.8594C121.197 53.8476 120.516 54.7512 119.551 54.9771C118.87 55.1465 118.161 55.203 117.451 55.203C114.074 55.203 111.01 52.8877 111.01 48.9912Z" fill="#0567AE"/>
<path d="M166.229 51.9554V40.3789C166.229 39.3059 167.11 38.4023 168.187 38.4023H168.557C169.095 38.4023 169.549 38.8541 169.549 39.3907V51.0518C169.549 51.8989 170.032 52.2377 170.627 52.2377C170.911 52.2377 171.224 52.1813 171.48 52.0118V54.1012C171.48 54.553 171.196 54.9201 170.77 55.033C170.316 55.146 169.862 55.2024 169.38 55.2024C167.762 55.2307 166.229 54.5248 166.229 51.9554Z" fill="#0567AE"/>
<path d="M98.8066 52.5771C98.8066 52.0971 99.204 51.7018 99.6864 51.7018C99.7999 51.7018 99.9134 51.73 100.027 51.7864C101.19 52.2382 102.411 52.4923 103.631 52.4923C104.936 52.4923 105.674 52.1253 105.674 51.5041C105.674 50.6854 104.369 50.5724 102.638 50.0924C100.112 49.4429 98.8066 48.6242 98.8066 46.45C98.8066 44.2759 100.765 42.8359 104.028 42.8359C104.993 42.8359 105.958 42.977 106.894 43.2595C107.831 43.5418 108.455 44.3888 108.455 45.3771C108.455 45.8571 108.058 46.2523 107.575 46.2523C107.462 46.2523 107.348 46.2241 107.235 46.1959C106.27 45.8007 105.22 45.603 104.17 45.5748C102.865 45.5748 102.269 45.9418 102.269 46.5066C102.269 47.3535 103.716 47.4948 105.22 47.8617C107.632 48.4265 109.079 49.4429 109.079 51.5888C109.079 53.7348 107.008 55.2312 103.801 55.2312C102.694 55.2312 101.588 55.0901 100.509 54.8076C99.4877 54.5253 98.8066 53.6218 98.8066 52.5771Z" fill="#0567AE"/>
<path d="M124.008 53.7053V38.204C124.008 37.131 124.888 36.2559 125.966 36.2559H126.335C126.874 36.2559 127.328 36.7076 127.328 37.2441V44.5569C128.321 43.4276 129.768 42.8064 131.272 42.8346C134.053 42.8346 135.586 44.7264 135.586 47.7193V53.7335C135.586 54.5524 134.905 55.2299 134.082 55.2299H133.741C132.918 55.2299 132.237 54.5524 132.237 53.7335V48.3688C132.237 46.3358 131.017 45.8558 129.995 45.8558C128.917 45.9122 127.924 46.477 127.328 47.4088V53.7053C127.328 54.524 126.647 55.2017 125.824 55.2017H125.484C124.689 55.2017 124.008 54.5522 124.008 53.7053Z" fill="#0567AE"/>
<path d="M150.819 50.7984C150.224 51.4196 149.685 52.0126 149.088 52.6055C148.295 53.396 147.443 54.1019 146.479 54.6102C145.513 55.1184 144.52 55.3443 143.471 55.3161C142.59 55.2879 141.739 55.0902 140.973 54.6385C139.838 53.989 139.043 53.029 138.561 51.7301C138.135 50.6007 137.993 49.4431 138.135 48.2572C138.391 45.7442 140.122 43.6266 142.363 42.9773C144.123 42.469 145.741 42.8361 147.272 43.9091C148.21 44.5584 149.003 45.349 149.798 46.196C150.139 46.5631 150.45 46.9302 150.763 47.3254C151.132 46.9302 151.473 46.5631 151.785 46.2244C152.635 45.349 153.488 44.5019 154.481 43.8243C155.673 43.0337 156.977 42.6384 158.367 42.7514C160.411 42.9207 161.972 43.9655 162.908 45.9985C163.362 46.9867 163.562 48.0595 163.504 49.1607C163.419 51.6173 162.369 53.4244 160.411 54.582C159.361 55.2031 158.254 55.4008 157.063 55.2595C155.928 55.1467 154.935 54.6102 153.997 53.9044C152.891 53.0855 151.955 52.0408 151.019 50.9961C150.962 50.9961 150.876 50.9114 150.819 50.7984ZM152.381 48.9913C152.693 49.3866 152.976 49.7538 153.289 50.0643C153.912 50.7419 154.537 51.3914 155.246 51.8996C155.928 52.3796 156.636 52.7185 157.459 52.7749C158.736 52.8314 159.787 52.2667 160.497 51.1091C161.177 50.0079 161.234 48.822 160.837 47.6079C160.497 46.5631 159.844 45.8572 158.879 45.5185C157.8 45.1232 156.751 45.349 155.758 45.9137C155.076 46.2808 154.481 46.789 153.912 47.3537C153.402 47.9184 152.863 48.4831 152.381 48.9913ZM149.259 49.0479C148.578 48.342 147.897 47.6079 147.216 46.9302C146.534 46.2808 145.797 45.716 144.917 45.4619C144.094 45.2078 143.3 45.236 142.505 45.6596C141.058 46.4219 140.349 47.9467 140.547 49.669C140.661 50.5161 140.973 51.2502 141.54 51.8432C142.449 52.7467 143.499 52.9444 144.662 52.6619C145.428 52.4926 146.08 52.069 146.705 51.5891C147.641 50.8832 148.436 49.9796 149.259 49.0479Z" fill="#B47DAB"/>
</g>
</svg>
