<svg width="14" height="10" viewBox="0 0 14 10" fill="none" xmlns="http://www.w3.org/2000/svg">
<path d="M5 3.5H4.0073C4.47165 2.15525 4.86815 1.51125 6.1875 0.96145C6.4077 0.86965 6.53225 0.6353 6.48535 0.4014C6.4385 0.16795 6.2334 0 5.9951 0H5.9941C3.24165 0.0049 1.6606 1.1084 0.5395 3.80565C0.18165 4.65285 0 5.55955 0 6.5C0 7.9463 0.4375 8.7339 1.1045 9.7705C1.1963 9.91355 1.355 10 1.5249 10H5C5.82715 10 6.5 9.32715 6.5 8.5V5C6.5 4.17285 5.82715 3.5 5 3.5ZM12.5 3.5H11.5073C11.9717 2.15525 12.3681 1.51125 13.6875 0.96145C13.9077 0.86965 14.0322 0.6353 13.9853 0.4014C13.9385 0.16795 13.7334 0 13.4951 0H13.4941C10.7416 0.0049 9.1606 1.1084 8.0395 3.80565C7.68165 4.65285 7.5 5.55955 7.5 6.5C7.5 7.9463 7.9375 8.7339 8.6045 9.7705C8.6963 9.91355 8.855 10 9.0249 10H12.5C13.3272 10 14 9.32715 14 8.5V5C14 4.17285 13.3272 3.5 12.5 3.5Z" fill="#0667AE"/>
</svg>
