<svg width="14" height="10" viewBox="0 0 14 10" fill="none" xmlns="http://www.w3.org/2000/svg">
<path d="M9 6.5L9.9927 6.5C9.52835 7.84475 9.13185 8.48875 7.8125 9.03855C7.5923 9.13035 7.46775 9.3647 7.51465 9.5986C7.5615 9.83205 7.7666 10 8.0049 10L8.0059 10C10.7583 9.9951 12.3394 8.8916 13.4605 6.19435C13.8184 5.34715 14 4.44045 14 3.5C14 2.0537 13.5625 1.2661 12.8955 0.2295C12.8037 0.0864495 12.645 -1.18458e-07 12.4751 -1.33311e-07L9 -4.37114e-07C8.17285 -5.09426e-07 7.5 0.672849 7.5 1.5L7.5 5C7.5 5.82715 8.17285 6.5 9 6.5ZM1.5 6.5L2.4927 6.5C2.02835 7.84475 1.63185 8.48875 0.3125 9.03855C0.0923005 9.13035 -0.0322494 9.3647 0.0146504 9.5986C0.0615006 9.83205 0.2666 10 0.5049 10L0.5059 10C3.25835 9.9951 4.8394 8.8916 5.9605 6.19435C6.31835 5.34715 6.5 4.44045 6.5 3.5C6.5 2.0537 6.0625 1.2661 5.3955 0.229499C5.3037 0.0864489 5.145 -7.74129e-07 4.9751 -7.88982e-07L1.5 -1.09278e-06C0.672851 -1.1651e-06 8.15405e-07 0.672848 7.43094e-07 1.5L4.37114e-07 5C3.64802e-07 5.82715 0.67285 6.5 1.5 6.5Z" fill="#0667AE"/>
</svg>
