<svg width="22" height="18" viewBox="0 0 22 18" fill="none" xmlns="http://www.w3.org/2000/svg">
<path d="M20.1249 0.159011C20.1249 0.159011 22.1594 -0.620453 21.99 1.27214C21.933 2.05002 21.4248 4.77828 21.0289 7.7278L19.6721 16.4657C19.6721 16.4657 19.5596 17.7489 18.5416 17.9687C17.5235 18.1883 15.9989 17.1891 15.7155 16.9662C15.489 16.8058 11.4803 14.2941 10.0632 13.0703C9.66732 12.7368 9.21614 12.0679 10.1202 11.29L16.0543 5.72448C16.7336 5.05574 17.4112 3.49831 14.5883 5.38932L6.6751 10.6822C6.6751 10.6822 5.77103 11.2387 4.06883 10.7383L0.394046 9.62515C0.394046 9.62515 -0.961229 8.78958 1.35509 7.9555C7.01064 5.3348 13.9562 2.66274 20.1249 0.159011Z" fill="white"/>
</svg>
