<svg width="23" height="24" viewBox="0 0 23 24" fill="none" xmlns="http://www.w3.org/2000/svg">
<path d="M19.6497 3.80129C17.5769 1.72849 14.7136 0.446289 11.5505 0.446289C5.2251 0.446289 0.0963001 5.57429 0.0963001 11.9005C0.0963001 14.0056 0.6642 15.9774 1.6544 17.6726L1.6251 17.6187L0 23.5534L6.0711 21.9607C7.6515 22.8383 9.537 23.3546 11.5435 23.3546H11.5482C17.8736 23.3523 23 18.2235 23 11.8981C23 8.73659 21.7194 5.87479 19.6489 3.80199L19.6497 3.80129ZM11.5482 21.4198H11.5443C9.7574 21.4198 8.0846 20.9266 6.6567 20.069L6.6999 20.0929L6.3524 19.8872L2.7501 20.8326L3.7109 17.3197L3.4844 16.9599C2.5713 15.5251 2.0288 13.7767 2.0288 11.9012C2.0288 6.64459 6.2907 2.38269 11.5474 2.38269C16.804 2.38269 21.0659 6.64459 21.0659 11.9012C21.0659 17.1579 16.8056 21.4198 11.5482 21.4198ZM16.7694 14.2915C16.4835 14.1481 15.0765 13.457 14.8145 13.3606C14.5517 13.2651 14.3606 13.2181 14.1696 13.5047C13.98 13.7906 13.4314 14.4348 13.2642 14.6259C13.0977 14.8177 12.9297 14.8409 12.6439 14.6983C11.7577 14.3392 10.9965 13.8607 10.3346 13.2713L10.3423 13.2782C9.7266 12.708 9.1988 12.0553 8.7727 11.3356L8.7511 11.2956C8.5846 11.0097 8.7334 10.8548 8.8759 10.7123C9.0046 10.5844 9.1626 10.3779 9.3051 10.2114C9.4176 10.0735 9.5139 9.91549 9.5871 9.74599L9.5917 9.73289C9.6249 9.66589 9.6441 9.58799 9.6441 9.50479C9.6441 9.40389 9.6156 9.30989 9.5663 9.22969L9.5679 9.23209C9.4954 9.08869 8.9237 7.68019 8.6856 7.10689C8.4529 6.54899 8.2163 6.62529 8.0414 6.61609C7.875 6.60829 7.6839 6.60679 7.4928 6.60679C7.1884 6.61449 6.918 6.75169 6.7315 6.96359L6.7307 6.96509C6.1127 7.55149 5.729 8.37829 5.729 9.29449C5.729 9.31449 5.729 9.33529 5.7298 9.35529V9.35229C5.8307 10.4826 6.2545 11.4975 6.9064 12.3243L6.8971 12.3127C8.1331 14.1458 9.7805 15.6122 11.7138 16.6L11.7863 16.6331C12.2085 16.8242 12.7494 17.0284 13.3027 17.2033L13.4175 17.2349C13.7581 17.3428 14.1503 17.4052 14.5571 17.4052C14.7906 17.4052 15.0202 17.3844 15.2422 17.3451L15.2183 17.3482C16.042 17.1764 16.7255 16.6794 17.1423 16.0005L17.1493 15.9874C17.2764 15.7054 17.3504 15.3764 17.3504 15.0304C17.3504 14.8879 17.338 14.7484 17.3141 14.6128L17.3165 14.6274C17.2456 14.508 17.0545 14.4371 16.7678 14.293L16.7694 14.2915Z" fill="white"/>
</svg>
