<svg width="26" height="15" viewBox="0 0 26 15" fill="none" xmlns="http://www.w3.org/2000/svg">
<path fill-rule="evenodd" clip-rule="evenodd" d="M14.2007 14.4879C14.2007 14.4879 14.6675 14.4368 14.9065 14.1836C15.1254 13.9516 15.1178 13.5138 15.1178 13.5138C15.1178 13.5138 15.0887 11.4695 16.0514 11.1676C17.0002 10.8708 18.2184 13.1446 19.5113 14.0189C20.4879 14.68 21.2292 14.5353 21.2292 14.5353L24.684 14.4879C24.684 14.4879 26.4904 14.3782 25.634 12.9775C25.5632 12.8627 25.1343 11.941 23.066 10.0476C20.899 8.06561 21.1899 8.38621 23.7984 4.95741C25.3873 2.86941 26.0224 1.59471 25.8238 1.04961C25.6353 0.528213 24.4664 0.666715 24.4664 0.666715L20.5777 0.690414C20.5777 0.690414 20.2892 0.651715 20.0755 0.777715C19.8667 0.901215 19.7314 1.18932 19.7314 1.18932C19.7314 1.18932 19.1166 2.80451 18.2956 4.17911C16.5637 7.07782 15.8718 7.23121 15.5884 7.05161C14.9293 6.63121 15.0938 5.36522 15.0938 4.46592C15.0938 1.65582 15.5264 0.484614 14.2525 0.181514C13.83 0.080514 13.5188 0.014314 12.4372 0.00311399C11.0495 -0.010586 9.87547 0.00811365 9.21007 0.328714C8.76737 0.542014 8.42577 1.01841 8.63447 1.04591C8.89127 1.07951 9.47318 1.20051 9.78187 1.61461C10.1804 2.14971 10.1665 3.34961 10.1665 3.34961C10.1665 3.34961 10.3955 6.65742 9.63137 7.06782C9.10767 7.34972 8.38907 6.77471 6.84447 4.14411C6.05387 2.79711 5.45677 1.30781 5.45677 1.30781C5.45677 1.30781 5.34167 1.02961 5.13547 0.880014C4.88617 0.699114 4.53837 0.643014 4.53837 0.643014L0.843174 0.666715C0.843174 0.666715 0.287875 0.681614 0.0841746 0.919914C-0.0967254 1.13071 0.0702548 1.56852 0.0702548 1.56852C0.0702548 1.56852 2.96337 8.24271 6.23977 11.6067C9.24427 14.69 12.6548 14.4879 12.6548 14.4879H14.2007Z" fill="white"/>
</svg>
