<svg width="23" height="24" viewBox="0 0 23 24" fill="none" xmlns="http://www.w3.org/2000/svg">
<path d="M19.6497 3.80227C17.5769 1.72947 14.7136 0.447266 11.5505 0.447266C5.2251 0.447266 0.0963001 5.57527 0.0963001 11.9015C0.0963001 14.0066 0.6642 15.9784 1.6544 17.6736L1.6251 17.6197L0 23.5544L6.0711 21.9617C7.6515 22.8393 9.537 23.3556 11.5435 23.3556H11.5482C17.8736 23.3533 23 18.2245 23 11.8991C23 8.73757 21.7194 5.87576 19.6489 3.80297L19.6497 3.80227ZM11.5482 21.4208H11.5443C9.7574 21.4208 8.0846 20.9276 6.6567 20.07L6.6999 20.0939L6.3524 19.8882L2.7501 20.8336L3.7109 17.3207L3.4844 16.9609C2.5713 15.5261 2.0288 13.7777 2.0288 11.9022C2.0288 6.64557 6.2907 2.38367 11.5474 2.38367C16.804 2.38367 21.0659 6.64557 21.0659 11.9022C21.0659 17.1589 16.8056 21.4208 11.5482 21.4208ZM16.7694 14.2925C16.4835 14.1491 15.0765 13.458 14.8145 13.3616C14.5517 13.2661 14.3606 13.2191 14.1696 13.5057C13.98 13.7916 13.4314 14.4358 13.2642 14.6269C13.0977 14.8187 12.9297 14.8419 12.6439 14.6993C11.7577 14.3402 10.9965 13.8617 10.3346 13.2723L10.3423 13.2792C9.7266 12.709 9.1988 12.0563 8.7727 11.3366L8.7511 11.2966C8.5846 11.0107 8.7334 10.8558 8.8759 10.7133C9.0046 10.5854 9.1626 10.3789 9.3051 10.2124C9.4176 10.0745 9.5139 9.91647 9.5871 9.74697L9.5917 9.73387C9.6249 9.66687 9.6441 9.58897 9.6441 9.50577C9.6441 9.40487 9.6156 9.31087 9.5663 9.23067L9.5679 9.23307C9.4954 9.08967 8.9237 7.68117 8.6856 7.10787C8.4529 6.54997 8.2163 6.62627 8.0414 6.61707C7.875 6.60927 7.6839 6.60777 7.4928 6.60777C7.1884 6.61547 6.918 6.75267 6.7315 6.96457L6.7307 6.96607C6.1127 7.55247 5.729 8.37927 5.729 9.29547C5.729 9.31547 5.729 9.33627 5.7298 9.35627V9.35327C5.8307 10.4836 6.2545 11.4985 6.9064 12.3253L6.8971 12.3137C8.1331 14.1468 9.7805 15.6132 11.7138 16.601L11.7863 16.6341C12.2085 16.8252 12.7494 17.0294 13.3027 17.2043L13.4175 17.2359C13.7581 17.3438 14.1503 17.4062 14.5571 17.4062C14.7906 17.4062 15.0202 17.3854 15.2422 17.3461L15.2183 17.3492C16.042 17.1774 16.7255 16.6804 17.1423 16.0015L17.1493 15.9884C17.2764 15.7064 17.3504 15.3774 17.3504 15.0314C17.3504 14.8889 17.338 14.7494 17.3141 14.6138L17.3165 14.6284C17.2456 14.509 17.0545 14.4381 16.7678 14.294L16.7694 14.2925Z" fill="white"/>
</svg>
