<svg width="22" height="19" viewBox="0 0 22 19" fill="none" xmlns="http://www.w3.org/2000/svg">
<path d="M20.1249 0.659011C20.1249 0.659011 22.1594 -0.120453 21.99 1.77214C21.933 2.55002 21.4248 5.27828 21.0289 8.2278L19.6721 16.9657C19.6721 16.9657 19.5596 18.2489 18.5416 18.4687C17.5235 18.6883 15.9989 17.6891 15.7155 17.4662C15.489 17.3058 11.4803 14.7941 10.0632 13.5703C9.66732 13.2368 9.21614 12.5679 10.1202 11.79L16.0543 6.22448C16.7336 5.55574 17.4112 3.99831 14.5883 5.88932L6.6751 11.1822C6.6751 11.1822 5.77103 11.7387 4.06883 11.2383L0.394046 10.1252C0.394046 10.1252 -0.961229 9.28958 1.35509 8.4555C7.01064 5.8348 13.9562 3.16274 20.1249 0.659011Z" fill="white"/>
</svg>
